<?xml version="1.0" encoding="utf-8"?>
<!-- Generator: Adobe Illustrator 25.0.0, SVG Export Plug-In . SVG Version: 6.00 Build 0)  -->
<svg version="1.1" id="Layer_1" xmlns="http://www.w3.org/2000/svg" xmlns:xlink="http://www.w3.org/1999/xlink" x="0px" y="0px"
	 viewBox="0 0 1920 1080" style="enable-background:new 0 0 1920 1080;" xml:space="preserve">
<style type="text/css">
	.st0{fill:#B54A36;stroke:#B54A36;stroke-miterlimit:10;}
	.st1{fill:#942D24;}
	.st2{fill:#FFFFFF;}
</style>
<g id="bladder">
	<path class="st0" d="M1013,420.17c-12.21-6.52-28.03-6.24-59.71-5.62c-58.02,1.07-76.49,16.58-82.93,22.47
		c-11.08,10.17-27.07,25.4-33.17,56.19c-6.04,30.4,1.13,58.77,3.32,67.42c11.88,46.92,42.79,61.92,86.25,84.28
		c7.4,3.82,53.61,26.8,109.47,16.86c11.68-2.08,21.2-5.11,29.85-16.86c19.21-26.01,21.36-77.71,16.59-112.37
		C1071.75,453.04,1019.07,423.43,1013,420.17z"/>
	<path class="st1" d="M1003.91,443.88c-68-23.88-119.69-1.18-128.64,42.87c-9.06,44.44,27.33,101.02,31.38,107.21
		c33.84,51.52,89.9,68.83,125.52,26.8c5.54-6.52,24.32-28.71,28.23-69.67c4.38-45.57-12.87-80.29-15.69-85.8"/>
	<path class="st2" d="M1021.3,467.93c4.21-8.2,19.01-3.71,23.22,11.24c1.26,4.44,2.32,12.36,0,16.86
		c-4.21,8.2-19.01,3.71-23.22-11.24C1020.04,480.35,1018.97,472.43,1021.3,467.93z"/>
</g>
</svg>
