<?xml version="1.0" encoding="utf-8"?>
<!-- Generator: Adobe Illustrator 25.0.0, SVG Export Plug-In . SVG Version: 6.00 Build 0)  -->
<svg version="1.1" id="Layer_1" xmlns="http://www.w3.org/2000/svg" xmlns:xlink="http://www.w3.org/1999/xlink" x="0px" y="0px"
	 viewBox="0 0 1920 1080" style="enable-background:new 0 0 1920 1080;" xml:space="preserve">
<style type="text/css">
	.st0{fill:#DA4F6E;stroke:#DA4F6E;stroke-width:0.75;stroke-miterlimit:10;}
	.st1{fill:none;stroke:#671837;stroke-width:2;stroke-miterlimit:10;}
</style>
<g id="cervix">
	<path class="st0" d="M965.04,380.46c1.23-0.16,2.54,6.15,12.71,12.42c10.25,6.3,19.03,6.03,23.7,10.78
		c4.84,4.86-0.98,8.68-4.51,16.23c-6.48,13.82,1.48,26.19,8.69,37.6c5.58,8.72,9.35,10.16,15.01,20.71
		c3.61,6.73,5.41,12.22,6.64,16.97c8.53,31.29,12.8,46.98-4.92,58.89c-9.76,6.58-24.61,11.48-28.95,10.12
		c-5.41-1.71,9.43-11.75,15.01-27.32c7.05-19.81-5-37.17-12.55-48.03c-12.63-18.14-21.74-17.83-26.49-32.3
		c-3.53-10.55-2.3-21.68-1.39-30.32c1.31-12.07,3.61-13.93,2.79-22.85C969.55,390.54,963.39,380.65,965.04,380.46z"/>
</g>
<path class="st1" d="M1004,409c-14.98,19.57-8.78,40,12,61c8.02,15.8,15.03,30.55,16,39c4.22,20.2,3.36,33.26-2,40"/>
<path class="st1" d="M964.76,382.02c6.39,19.31,6.49,35.94,2.68,49.74c-3.36,14.8,0.84,27.1,8.56,38.24
	c14.23,11.25,22.77,22.99,28,35c11.35,21.4,4.8,40.01-12,57"/>
</svg>
