<?xml version="1.0" encoding="utf-8"?>
<!-- Generator: Adobe Illustrator 25.0.0, SVG Export Plug-In . SVG Version: 6.00 Build 0)  -->
<svg version="1.1" id="Layer_1" xmlns="http://www.w3.org/2000/svg" xmlns:xlink="http://www.w3.org/1999/xlink" x="0px" y="0px"
	 viewBox="0 0 1920 1080" style="enable-background:new 0 0 1920 1080;" xml:space="preserve">
<style type="text/css">
	.st0{fill:none;stroke:#671837;stroke-width:2;stroke-miterlimit:10;}
	.st1{fill:#E66E91;stroke:#E66E91;stroke-miterlimit:10;}
	.st2{fill:#F695B0;stroke:#F695B0;stroke-width:0.75;stroke-miterlimit:10;}
	.st3{fill:#FAFAFD;stroke:#FAFAFD;stroke-miterlimit:10;}
	.st4{fill:#E1748D;stroke:#E1748D;stroke-miterlimit:10;}
	.st5{fill:#FFFFFF;stroke:#FFFFFF;stroke-width:0.75;stroke-miterlimit:10;}
	.st6{fill:#E2748A;stroke:#671837;stroke-width:2;stroke-miterlimit:10;}
	.st7{fill:none;stroke:#E1748D;stroke-miterlimit:10;}
	.st8{fill:#DA4F6E;stroke:#671837;stroke-width:2;stroke-miterlimit:10;}
	.st9{fill:#DA4F6E;stroke:#DA4F6E;stroke-width:0.75;stroke-miterlimit:10;}
	.st10{fill:#F7DCD5;stroke:#671837;stroke-width:2;stroke-miterlimit:10;}
	.st11{fill:#D97091;stroke:#E27795;stroke-width:0.75;stroke-miterlimit:10;}
	.st12{fill:#DB6C8D;stroke:#E27795;stroke-width:0.75;stroke-miterlimit:10;}
	.st13{fill:#DE7292;stroke:#E27795;stroke-width:0.75;stroke-miterlimit:10;}
	.st14{fill:#24B6CE;stroke:#000000;stroke-width:3;stroke-miterlimit:10;}
</style>
<g>
	<g id="fallopiantube">
		<path class="st0" d="M748.2,340c-5.5-7.6-15.1-19.1-30-28.5c-19.8-12.5-38-14.1-45.4-14.7c-3.6-0.3-69.3-4.4-99.4,46.7
			c-18.3,31.1-18.5,73.9-6.6,81.4c6.9,4.3,17.9-3.1,31.1,5.6c1,0.6,6,4,5.5,6.7c-0.9,4.4-15.5,1.7-17.4,7.3
			c-1.3,3.9,5.2,7.5,10.3,18.9c0.3,0.8,7.3,16.2,3.5,19.8c-3.1,2.9-12.4-3-15.8-5.5c-3.5-2.6-4.2-4.1-8.8-7.3
			c-5.2-3.6-8.5-5.9-10.5-4.6c-2.5,1.5-1.3,7.3-0.7,22.1c0.8,19.2-0.8,21.1-1.8,21.6c-2.5,1.3-6.3-2.5-11.1-7.1
			c-3.8-3.7-8.5-8.3-11-16c-2.2-6.9-1.4-12.6-2-12.6c-1.4-0.1-1.4,32.5-7.3,33.6c-3.7,0.7-10.2-10.7-11.3-22.7
			c-1.2-13.4,5.3-17,6.5-32.4c1-12.2-2.7-15.1-5.8-34.2c-0.2-1.4-3.1-19.5-2.1-39.5c0.6-11.1,1.8-34.9,14.3-58.5
			c10.5-19.7,24-30.2,35.2-38.7c36.9-28,74.8-31.5,84.8-32.2c53.5-3.6,92.7,22.7,106.2,32.7"/>
		<path class="st1" d="M749.3,338c1.4-1.5-25.5-43.3-56.2-49.6c-2-0.4-8.7-2.3-17.5-2.3c0,0-15.7-1.2-29.8,0.6
			c-5.7,0.7-45.8,5.7-69.1,34.6c-26,32.1-20.2,80.3-20.5,80.2c-0.2,0-1.5-24.8,11.5-51.1c9-18.1,20.9-29,27-34
			c19.5-15.8,39-18.6,51.8-20.4c11.3-1.6,34.6-4.6,59.8,6.5C735.3,315.4,748.3,339,749.3,338z"/>
		<path class="st1" d="M581.8,274.5c3,3.1-38.8,38-50.2,84.9c-16.9,69,37.2,142.8,29.8,147.1c-2.7,1.6-12-7.4-15.6-14.8
			c-2.1-4.3-3.1-6.5-3.5-9.3c-0.3-2.2-0.3-4.7-1.7-7.6c-0.5-0.9-1.5-3.1-2.6-2.9c-1.1,0.1-1.7,2.5-2.2,4.5
			c-1.7,7.3-1.4,12.2-2.1,17.7c-0.6,5.3-1.3,10.6-3.1,10.9c-2.6,0.5-7.7-9.6-8-19.5c-0.1-3.6,0.3-7,0.7-9.4
			c0.8-5.6,1.9-8.7,2.7-11.8c1.8-7.2,1.5-13.1,1-20.6c-0.6-10.8-3-18.6-3.8-21.8c-6.8-24.7-2.6-53-1.8-58.2
			c1.5-9.9,4.7-30.3,18-50.6c9.4-14.4,19.7-22.3,34-33.3C580.5,274.1,581.5,274.2,581.8,274.5z"/>
		<path class="st2" d="M750.3,335.6c-15.4-23.2-32.9-40.4-53.9-47.8c-20.4-3.8-42.3-3.7-64.8,0c-31.5,6.3-53,23.5-66.6,49.6
			c-5.8,14.2-9,29.7-10.7,46.1c0.9,13.8,2.4,25.2,4.6,34.1c4.7,9.2,10.7,13.8,18.8,10.9c10.6,0.1,18.8,2.4,23.5,8
			c-6.8,0.5-12.3,2.4-16.7,5.6c-1.3,5.1,0.4,9.4,4.4,12.9c5.9,10.4,9.2,19.3,9.3,26.3c-7.8-2.1-15.4-7.3-22.9-13.6
			c-4.7-3.7-8.8-4.7-12.5-3.8c-1.9,3.4-2.3,7.5-1.6,12.2l0.7,23.7l-12.9-29.7c-9.5-19.8-16.1-38.6-18.7-56
			c-1.3-22.9-1.4-43.7,2.4-57.2c7.8-21.5,18-40.8,31.1-57c6.8-13.8,15.6-24.6,27-31c28.6-13.5,57.1-20,85.7-17.4
			c20.9,3.7,40.6,9.8,58.9,18.5l23.8,12.9L750.3,335.6z"/>
		<path class="st3" d="M668.9,258.5c-5.5-11.1-54.9,3.3-54.5,10.4c0.2,2.6,7.1,3.9,8.7,4.3c10.1,2,13.4-3.9,26.4-5.7
			c10.5-1.5,16.9,1.2,19.2-3.1C669.6,262.7,669.7,260.2,668.9,258.5z"/>
		<path class="st0" d="M1164.7,348.5c5.8-8.4,16.9-22.2,34.6-32.3c22.5-12.7,42.9-12.3,56.9-12.1c14.1,0.3,35.2,0.7,57.5,14.9
			c6.3,4,22.5,14.6,33.8,36c13.3,25.2,13.7,53.4,7.3,60.8c-4,4.7-9.1,6.6-9.1,6.6c-3.1,1.1-5.6,1.1-6.6,1.2
			c-11.3,0.4-25.6,12.3-24.6,15.1c0.5,1.4,4.3,0,17.9,0.9c2.4,0.2,6.4,0.5,9.7,3.5c1.5,1.3,2.9,2.6,3,4.3c0.2,4.4-8.5,5.2-14.3,13.2
			c-4.6,6.3-6.1,15.3-4,17c1.3,1.1,3.6-0.9,14.7-7.6c9.4-5.7,10.8-6.1,12.2-5.4c4.1,2,3.8,12.6,3.6,21.6c-0.3,12.9-2.6,18.4-0.3,20
			c2.7,1.9,9.8-3.4,14.1-9.7c6-8.8,5.2-17.5,7.6-17.7c4.1-0.4,7.1,24.4,12.6,24.4c3.2,0,5.6-8.7,6.1-10.4
			c4.5-16.3-0.8-27.7-2.4-42.2c-2.2-19.1,4.5-22.3,6.7-46.3c0,0,2.7-29.1-6.3-58.1c-15-48.5-57-71.7-65.9-76.3
			c-43-22.4-94.2-16.7-119.7-3.9c-5.8,2.9-28.9,15.6-62,22.3c-0.9,0.2-1.7,0.3-2.2,0.4"/>
		<path class="st4" d="M1143.8,334.1c6.3-4.3,15.8-10.7,27.6-18c2.1-1.3,23-14.2,33-19.2c42.5-21.2,93.2-2,95.4-1.2
			c21.4,8.4,45.6,17,58.3,44.2c14.4,30.8,3.9,63.5,1.3,71c6.1-26.2-4.3-51.1-21.8-75.4c-18.5-19.5-39.1-30.1-61.4-33.2
			c-15.8-1.9-32.2-1.3-49.2,1.2c-17.2,5.6-32.1,12.8-44.5,21.5l-18.5,20.7L1143.8,334.1z"/>
		<path class="st4" d="M1373.7,308.7c0.7,0.5,9,58,9.7,94.2c0.5,27.2-1,51.8-3.4,73.2c5,5.9,8.8,14.2,11.5,24.4
			c6.8-13.2,6.4-30.6,2-50.3c-0.2-14.9,1.2-28,5.1-38.5c1.5-25.1,0.2-49.1-6.9-70.3C1387.7,330.7,1373,308.2,1373.7,308.7z"/>
		<path class="st2" d="M1145,332.8c24.3-17.9,49.4-33,75.6-44.2c23.4-4.6,46.1-4.5,67.9,1.7c18.5,4.9,35.6,13.2,51.4,24.3
			c15.2,18.7,25.4,35.4,25.7,48.3c0.7,16.7-1.6,33.4-6,50c-5,10.1-13.4,13.7-23.7,13.7c-6.4,2.3-12.2,6-17.8,10.5
			c19-2.5,27.4,1.1,29,8.7c-4.1,7.2-13.1,13.3-17.9,23.2c-6.1,14.3,10.8,1,23.4-7.1c2.5-1.8,4.9,0.7,6.9,13.5
			c0.7,10.3,0.7,20-0.8,28.7c5.1-3.4,9.5-7.8,13.3-12.9c1.3-6.4,3.5-11.5,6.7-15.1c3.2-24.8,4.7-48.8,3.5-71.5
			c-1.4-31.7-4.7-64.1-9.9-97.2c-25.2-28.2-54.5-43.4-87-49c-2.4-4.5-66.7,2.5-65,6c0.2,0.5-49.6,21.1-49.6,21.1
			c-1,0.3-28.2,7.7-23.5,5.5C1145,290.4,1145,332.8,1145,332.8z"/>
		<path class="st5" d="M1209.9,273.8c-0.5-3.3,14.2-9.9,27.2-12.5c10.1-2,19.1-1.5,37.2-0.3c8.5,0.6,16.7,1.1,16.7,2.3
			c0.1,1.7-16.2,2.5-40.8,9.3c-4.7,1.3-4.8,1.5-7.3,2C1227.5,278.1,1210.4,277.3,1209.9,273.8z"/>
	</g>
	<g id="structure">
		<path class="st0" d="M894.9,925.9c-2.3-26.8-1.9-48.3-1.2-62.9c1.4-28.6,4.6-37.3,1.7-58.1c-0.7-5.4-1.5-8.5-12.2-46.1
			c-13-45.6-12.8-43.9-13.3-46.5c-6.4-35.5,3.2-45.8-3.8-74.8c-3.6-14.8-8.2-20.9-19.5-41.8c-16.6-30.7-40.1-74-52.9-122.8
			c-9.5-36.3-4.4-42.5-16.2-75.6c-9.3-25.8-20.7-45.3-29.3-58.1"/>
		<path class="st0" d="M1026.1,925.5c0.8-12.3,1.9-31.6,2.6-55.5c1.9-65.5-2.1-79.2,4.9-111.6c7.4-34.5,14.2-29.8,18.8-60.4
			c6.9-45.7-8-57.4,3.5-85.3c8.4-20.4,18-17.8,41.9-53.5c7.2-10.8,16-24,23-41.1c18.7-45.9,4.3-70.8,19.5-120.1
			c3.7-11.8,10.4-29.6,23.7-49.6"/>
		<path class="st6" d="M1132.8,482.8c2.8-0.8,5.8,7.7,11.3,15.4c8.4,11.8,19.1,16.6,28,20.6c26,11.8,48.3,3.6,50.5,12.5
			c0.9,3.8-2.9,6.7-3.1,16.3c-0.2,7.4,3.6,10.4,2.1,13.4c-2.1,4-10.6,2.7-17.3,1.5c-19-3.5-28.5-5.3-38.5-9.9
			c-14.8-6.8-41.9-19.3-41.9-35.4c0-4.2,1.8-4.4,4.7-18.3C1130.9,488.1,1130.8,483.3,1132.8,482.8z"/>
		<path class="st6" d="M701.6,529.9c3.5-3.6,7.9-2.7,14.1-2.9c15.2-0.4,26.4-7.3,40.6-14.5c9.9-5.1,14.8-7.6,18.8-11.9
			c11.1-12,14-29,15.7-28.5c0.8,0.3-0.3,4.1,0.8,9.9c1,5.4,3.2,8.9,4.4,11c3.9,6.8,8.2,18.5,7.8,25.3c-0.5,11.1-14.9,18.3-43.4,33.4
			c-3.4,1.8-19.2,10.1-40.6,12.5c-7.1,0.8-11.8,0.6-15.7-2.6C695.9,554.6,695.1,536.6,701.6,529.9z"/>
		<path class="st0" d="M758.2,281.7c51.4,17.1,123-20.4,204.1-27.9c72.9,5.9,131.7,45.2,184.7,34.9"/>
		<path class="st4" d="M1146.4,335.2c-4.2,1-6.4,5.4-9.7,12.2c-10.5,21.6-15.7,32.5-16,33.1c-7.2,20.5-10.8,37.5-12.3,44.8
			c-8.9,41.9-5.3,49.2-13.1,75.6c-3.3,11.3-8.8,29.3-21.2,48.2c-22,33.7-41.8,33.6-48.1,60.7c-2.4,10.4-2.3,22-2.1,38.1
			c0.1,11.1,0.8,10.6,2.1,32.3c2.2,35.9,1.2,49.5-6.3,61c-1.2,1.9-1.1,1.3-3.1,4.3c-6.8,10-15,21.9-15.2,36c0,3-0.1,8.1,2.4,13.4
			c1.1,2.4,1.9,3,3.4,6.1c1.4,2.9,3.5,7.1,3.7,11.3c0.4,8.1-6.8,9.7-7.8,20.6c-0.2,2-0.5,5.1,0.3,9c1.7,9.2,7.1,11.8,6.9,18.8
			c-0.1,3.6-1.5,3-2.4,7.9c-1.6,8,1.9,10.8,2.9,25c0.3,4.5,0.2,7.6-1,10.7c-1.4,3.6-2.6,3.2-3.9,6.4c-2.4,5.9,1.1,8.9-1,15.1
			c-1.4,4.1-3.5,4.3-3.7,7.6c-0.2,3.6,2,7.4,5,9c5.1,2.7,11.4-1.8,14.4-5.8c3.4-4.6,3.8-10,3.9-11.9c1.6-27.9,2.4-41.8,1.8-59.6
			c-0.7-19.3,1.1-12.4,1.3-47.7c0.1-17.5-0.3-29.9,2.4-48.2c1.5-10.1,3.2-17.6,3.7-19.5c6-25.3,12.1-29.7,16.2-47.7
			c3-12.7,2.7-22.4,2.1-41.8c-0.8-25.3-4.5-32.1,0.3-45.6c4.3-12.2,12.8-21.7,13.9-23c5.2-5.8,7.8-6.6,13.9-12.5
			c4.8-4.7,8.9-9.8,17-23c4.3-6.9,15.6-25.2,21.7-38.9c17.1-38.4,4.3-62.5,16.2-109.6c3.4-13.4,8.6-28.1,17.3-42.7
			c2.3-3.9,4.4-7,5.8-9c0.2-0.9,0.7-2.4,1.6-4.1c1.4-2.8,2.5-3.4,2.7-4.5C1162.9,343.4,1153.9,333.4,1146.4,335.2z"/>
		<path class="st7" d="M1061.2-3054.2c12.6,0.6,25.3,1.2,37.9,1.8"/>
		<path class="st2" d="M970.8,766c16.1,4.4,30.1-1.8,42-18.7c14.9-7.1,15.8-50.4,11.1-108.2c-1.1-29,3.7-52.4,24.1-60.6
			c33.1-31,51.5-79.8,58.4-142.9c5.7-38.5,18.2-72.5,37.2-102.3l2-43c-29.5,4.4-61.2-2.6-93.8-13.9c-28.8-9.2-58.7-15.8-89.4-20.4
			c-39.8,6.2-79,14.4-117.6,24.4c-29.3,8.8-58.2,10.5-86.5,3.9l-8.5,54.5c26.4,37.8,39.2,74.7,41.5,111.1
			c11,49.7,28.1,93.9,51.3,132.5c9.9,15.9,18.1,32,24.6,48.4c4.6,12.6,5.3,25.7,4,38.9c-0.8,21.1-0.3,40.1,4.5,52.7l18.1,62.7
			c4.5,17,6.3,33.2,4.4,48.5c-2.5,26.4-3,53.2-1.5,80.4c2,24.4,8.9,33.5,22.5,21.6c-2.3-6.4-3.3-12.4-2.2-17.8
			c-2.7-5.1-4.1-10.5-4.1-16.4c-1-7.5-1.4-14.5-0.1-20.2c-2.7-5-4-10.2-3.3-15.6c0.3-8,2.2-14.8,5.8-20.4c-5.2-8.7-6-16-2.3-21.9
			c6.8-5,7.3-11.8,1.4-20.6c-1.6-6.9-1.7-13.3-0.1-19.3c3.6-7.7,2-14.5-4.1-20.5c-2.7-7.5-3.7-13.6-0.4-16.4c3-0.7,5.2,0.4,7,3
			c11.1,13.4,23.6,21.4,38.3,19.9c4.7-17.2,4.3-32.7-2.1-46.3c-5.1-12.6-6.6-24-4.4-34.1c2.3-21.9-1.1-38.5-13.7-46.7
			c-6.8-3.7-11.6-8.2-12.9-14.1c2.6-13.3,3.3-25.5-9.3-29.8c-7.5-1.8-11.2-6.9-12.6-14c0.8-9.4-2.8-17-10.5-22.9
			c-1.1-2.6-1.5-5.4-1.5-8.4c1.2-8-2.4-15.6-8.9-23c-2.2-9.4-3.4-17.6-3.4-24.4c-3.2-11.4-8.2-22.7-14.4-34
			c-8.5-9.7-13-18.8-11.1-26.9c1.4-8.2-4.1-18.5-11.6-29.5c-0.1-16.8-1.7-32.4-7.9-44.4l-20.1-27.7c-0.4-4,0.9-6.1,4.9-5.3
			c10.5,6.7,24,8.8,41.3,5.5c9.5,12.6,20.2,12,31.8,1.6c11,6,22,4.8,32.9-2.4c13.8,8.7,27.5,6.8,40.9-4.8
			c16.8,5.4,32.5,7.1,45.7,1.5c34.2,4.1,65.8,6.3,88.2,2.2c2.5,3.4,8.7,1.8,16.2-1.4c2.9,4.5,2.5,8.9,0,13.2
			c-4.2,9-9.6,14.7-16.2,16.8c-9,23.8-19.9,49.4-16.2,61.2c-11.3,14-18.8,27.9-18,41.7c-9.1,8.6-13.1,21.4-14.5,36.3
			c-12.8,5.8-15.3,20.5-15.1,37.4c-11.3,4.4-17.8,15.9-21.8,30.9c-10.6,6.8-15,17.1-13.2,31.1c-7.3,8.3-12.3,19.3-15.5,32.6
			c-7.3,7.7-12.2,17.6-14.9,29.5c-2.2,9.2-3.3,18-2.8,26.3c1.5,6.9,3.5,14.5,6,22.6c2,8.4,3.1,16.3,2.7,23.2L970.8,766z"/>
	</g>
	<g id="vagina">
		<path class="st0" d="M956.2,771.9c-7.2,0.8-16.4,0.5-25.1-4.6c-12-7-18.2-20.1-21.2-18.3c-1.7,1-1.1,5.9-0.5,8.4
			c1.4,6.1,5,6.9,7.3,11.3c4.8,9.1-4.8,16.4-1.8,30.5c1.9,8.8,6.5,10.2,5.5,16.6c-1.1,6.9-6.9,6.9-8.4,13.7
			c-1.9,8.7,6.8,12.7,5.8,23c-0.9,8.1-6.5,8.1-7.1,16.3c-0.6,8,4.8,9.7,5.5,20.4c0.5,7.5-2.1,7.4-1.6,15.1c0.5,7.1,2.7,7.9,5,19.2
			c1.9,9.7,1,12.5,0.3,14c-1.7,3.6-5.2,6-8.4,6.4c-6.4,0.9-14.1-6.1-17-17.7"/>
		<path class="st0" d="M968.4,768.4c6.9,2.1,15.7,3.2,24.4-0.4c13.3-5.5,20.6-19.6,21.3-19c0.8,0.7-16.9,16.2-16.2,35.3
			c0.6,15.4,12.7,22,9.4,34.9c-2.1,8.1-7.7,8.7-8.2,16.5c-0.5,9.4,7.6,11.4,8.4,22.1c0.7,10.1-6.3,12.3-5.4,22.9
			c0.8,9.3,6.5,10.1,6.5,18.2c-0.1,8.7-6.7,9.8-9.8,21.5c-0.4,1.5-4.4,17.2,2.8,23.2c4.4,3.7,11.2,2.4,15.5-0.4
			c5.4-3.4,8.7-10.2,8.5-17.6"/>
		<path class="st8" d="M911.3,751.5c1.6-1.2,6.8,10.6,18.7,17.6c3.9,2.3,16.3,10.2,26.1,5.1c4.5-2.3,8.8-7.6,10.7-6.1
			c0.7,0.6,0.4,1.5,1,2.7c1.9,3.8,10.1,2.6,16.9,1.8c8.5-1.1,12.7-6.9,14.5-5.1c1.8,1.8-3,7.2-3.2,15.6c-0.3,11.6,8.3,16.6,6.4,20.8
			c-2.6,5.7-18.9-5.3-42.1-2c-5.4,0.8-20.9,3.6-27.3,3.8c-1,0-3,0-5.6,0.6c-4.2,0.9-4.8,2.1-6.1,1.8c-3.8-1-6.5-11.9-4.3-21.5
			c1.4-6.1,4.3-7.2,3.8-11.9c-0.5-5.1-4.2-6.4-7.6-15.1C912.4,757.8,910.2,752.3,911.3,751.5z"/>
		<path class="st8" d="M922.3,809.7c9.4-1.8,22.4-4.1,38.1-5.8c35.1-3.9,40.1-0.5,42.4,3.1c4.9,7.6,1.9,22.9-5.8,28.5
			c-8.7,6.4-16.5-4.8-35.6-4.3c-23.2,0.5-37.2,17.7-43.4,10.9c-2.4-2.7-3.4-8.6-2-12.8c1.1-3.2,3.1-3.9,4.8-7.4
			C922.9,817.5,922.7,813,922.3,809.7z"/>
		<path class="st8" d="M996.5,838.3c7.4,5,11.1,18.9,7,25.2c-4.7,7-15.8-0.6-36.5,0c-31,1-45.5,19.3-52.9,11.4
			c-6.1-6.5-2.6-25.6,4.5-30c0.3-0.2,0.4-0.2,7.5-3.3c6.6-2.9,8.2-3.6,8.9-3.9c8.6-3.6,19.3-3.8,24.4-3.9c8.9-0.1,6.6,1.1,24.4,2.3
			C992,836.7,993.9,836.5,996.5,838.3z"/>
		<path class="st8" d="M916.5,878.9c-6.5,4.1-2.3,32.1,3.9,32.8c1.9,0.3,3.2-2.3,5.5-4.9c2.5-2.9,7.2-7,34-10.5
			c29.5-3.8,34.8-0.2,37.6,2.7c2.8,2.9,3.4,5.7,5.1,5.5c5.2-0.8,10-30.2,0.8-37.2c-2.7-2.1-4.4-0.4-15.2,0
			c-14.1,0.5-14.9-2.3-26.2-1.2c-5.5,0.5-10.2,1.9-19.6,4.6c-1.7,0.5-6.3,3.8-12.6,5.2c-0.3,0.1-0.4,0.1-2.9,0.6
			C920.2,878,916.8,878.7,916.5,878.9z"/>
		<path class="st8" d="M923.3,935.8c2.9,0.8,4.2-4.3,10.5-7.9c5.2-2.9,7.8-1.4,27.5-0.3c13.8,0.8,14.9,0.1,19.6,1.8
			c7.8,2.6,9.9,6.1,13.3,4.9c6.6-2.1,11.9-18.2,7.6-27.6c-9.8-21.3-73.8-18-82.7,6.1C915.9,921.4,919,934.6,923.3,935.8z"/>
		<path class="st8" d="M923.3,937.4c2.9,0.8,4.2-4.3,10.5-7.9c5.2-2.9,7.8-1.4,27.5-0.3c13.8,0.8,14.9,0.1,19.6,1.8
			c7.8,2.6,9.9,6.1,13.3,4.9c6.6-2.1,11.9-18.2,7.6-27.6c-9.8-21.3-73.8-18-82.7,6.1C915.9,923,919,936.1,923.3,937.4z"/>
	</g>
	<g id="cervix">
		<path class="st0" d="M949.2,658.5c1.5,13.3,1.6,24,1.4,31.4c-0.2,7.7-0.8,12.2,0.3,19.4c1.6,9.9,4.9,15.2,7,20.5
			c3.1,8,5.1,20.8-1,41.1"/>
		<path class="st0" d="M963.1,676.6c-0.9,4.9-1.8,12.3-0.8,21c1,9.5,3.8,16.1,4.7,18.7c3.4,9.2,5.9,24.4,1.4,50.8"/>
		<path class="st9" d="M951.9,664c0.3-0.1,0.6,3.6,3.2,7.3c2.6,3.7,4.8,3.5,5.9,6.3c1.2,2.8-0.2,5.1-1.1,9.5
			c-1.6,8.1,0.4,15.3,2.2,22c1.4,5.1,2.3,5.9,3.8,12.1c0.9,3.9,1.4,7.1,1.7,9.9c2.1,18.3,3.2,27.5-1.2,34.4
			c-2.4,3.8-6.1,6.7-7.2,5.9c-1.4-1,2.4-6.9,3.8-16c1.8-11.6-1.3-21.7-3.1-28.1c-3.2-10.6-5.4-10.4-6.6-18.9
			c-0.9-6.2-0.6-12.7-0.3-17.7c0.3-7.1,0.9-8.1,0.7-13.4C953,669.9,951.4,664.1,951.9,664z"/>
	</g>
	<g id="ovaries">
		<path class="st10" d="M1326.6,477.3c-3.7-3.1-2.6-14.2,2.4-21.2c5.9-8.4,15.4-8.3,15.2-10.7c-0.2-2.9-13.6-4.5-25.9-4
			c-14.7,0.6-23.2,0.9-30.6,7.5c-8.6,7.7-6.4,15.7-13.9,18.9c-8.4,3.6-14.5-5.1-22.8-0.6c-3.3,1.8-5.2,5.2-9.2,11.9
			c-2.7,4.6-6.3,10.8-7.6,19.2c-1.5,9.6,1.8,10.4,0.8,18.6c-1.8,13.9-11.9,15.5-12.4,26.8c-0.5,10.4,7.7,18.8,10.3,21.5
			c7.2,7.3,12.3,6.3,24.3,11.9c18.7,8.8,17,17.4,29.8,20.1c14.4,3,27.3-4.9,28.3-5.5c7.4-4.7,5.7-7.3,11-9
			c9.9-3.3,17.2,5.4,30.4,0.6c1.2-0.5,1.8-0.7,2.6-1.2c8.9-5.4,5.2-20.2,9.9-35.4c5.4-17.3,15.1-14.6,19.4-30.5
			c4.9-18.6-4.2-38.1-7.3-37.8c-2.5,0.3-0.2,13-8.4,21.8c-5,5.4-13.2,8.6-16.5,5.5c-1.8-1.7-1.5-4.5-0.5-17.1
			c1.4-18.5,1.4-22.3-0.3-23.2c-2-1.2-4.4,2.9-12.3,7.6C1338.1,475.7,1330.2,480.3,1326.6,477.3z"/>
		<path class="st10" d="M589,446.5c2.3-9.9,54.2-9.8,60.7,9.3c1.3,3.7,1,8.7,4.9,12c3.9,3.3,8.1,1.5,14.7,2.3
			c7,0.8,14.6,4.3,18.8,8.9c9,9.7-0.1,21.3,7.3,42.6c5,14.2,11.3,15.8,11.2,26.7c-0.1,8.4-4,16.6-9.4,21.7c-5.7,5.3-9.9,4-19.2,7.4
			c-16.8,6.1-15.2,14.7-30,20.1c-9.3,3.4-26.8,6.2-35.9-3.5c-3.9-4.1-4.4-8.6-9.1-10.1c-5.4-1.7-8.5,3.1-16,3.9
			c-7.9,0.8-14.3-3.5-16-4.6c-9.8-6.6-4.5-18.4-13.6-36.8c-6.3-12.8-10.4-10.8-15-22.5c-6.7-17-3.5-35-1.4-35.3
			c1.4-0.2,1.6,7.9,8,15.5c3.9,4.6,11.1,10.2,15.4,7.7c0.8-0.4,3.1-2.1,3.8-14.3c1-16.9-2.7-26.3,0-27.9c2.1-1.3,5.2,4.2,14,9.7
			c2.5,1.5,16,10,20.6,5.4c3.5-3.5,0.6-12.9-0.3-15.9C597.7,454,588,451,589,446.5z"/>
	</g>
	<g id="uterus">
		<path class="st8" d="M812.1,340.8c1.3-2.2,16.3,3.2,25.2,9.6c1.5,1.1,3.7,2.8,6.8,2.9c4.6,0.1,6.4-3.4,9.6-2.5
			c2.5,0.7,2.6,3.2,5.9,7.7c2.3,3.1,5.4,7.4,9.8,8.9c4.8,1.7,9.6-0.8,15.7-3.9c7.5-3.8,7.6-6.3,11.9-6.6c5.9-0.5,7.4,4.2,12.9,3.5
			c5.8-0.8,5.9-6.2,11.2-7.4c7.8-1.7,12,9.6,20.9,9.7c3.5,0,8.4-1.7,14.3-9.3c4.8-4.1,8.3-4.6,10.8-4.3c6.9,1,9.2,9.3,15.4,8.9
			c2.8-0.2,2.7-1.9,7.7-4.6c2-1.1,12.6-7,19.2-2.7c4.9,3.2,3.2,9,7.7,11.2c4.6,2.2,6.7-3.6,16-4.3c8-0.6,12.5,3.3,17.1-0.4
			c1.7-1.3,2.3-2.8,4.2-3.1c3.5-0.7,6.6,3.3,8,4.6c10.3,9.3,44.4-22,49.2-16.7c2.4,2.6-2.1,14.8-10.1,22.1
			c-8,7.2-13.4,4.1-18.1,10.9c-5.6,7.9,0.1,14.7-5.6,24.4c-5,8.5-11.3,6.4-14,14c-3,8.5,4,14,0.7,22.1c-2.8,7-8.9,4.9-12.2,12
			c-4.3,9.1,3.2,17.6-1.4,24c-3.4,4.7-8.5,1.5-11.9,6.2c-4.9,6.9,3.6,17.6-1,24.4c-3.7,5.5-10.9,1.1-14.7,6.2
			c-5.8,7.8,7.3,23.2,1.4,33.3c-3.6,6.1-9.4,2.3-15,9.7c-6,7.9-1.5,14.8-8,22.5c-4.2,4.8-7.8,4.1-10.5,9.7
			c-2.3,4.8-0.4,6.8-2.1,11.6c-3.2,9.1-11.8,6.7-15.4,14.7c-3.6,8.1,3.5,14.3-0.7,25.2c-1.7,4.4-3.1,4.1-5.6,8.5
			c-8,14.5-0.6,31.8-3.5,32.9c-2.5,1-11.3-10.5-14-25.4c-2.2-12.2,1.6-16.3-2.4-24.2c-4.1-8-9.7-6.9-12.9-15.5
			c-2.8-7.5,0.5-10.9-2.8-16.3c-3.9-6.3-9.4-3.4-14.3-9.7c-4.4-5.6-1.1-9.4-5.2-19.4c-4.1-9.8-8.2-8.4-11.2-17.1
			c-3.5-10,1.5-13.5-2.1-22.5c-3.8-9.6-10.4-7.8-12.9-16.7c-2.4-8.4,2.5-13.7-1.4-20.1c-2.5-4.1-4.8-2.7-7.3-7
			c-3.7-6.4,0.5-11.5-2.8-18.6c-2.5-5.6-5.7-3.8-8.4-8.9c-4.8-9,3.6-17.1-0.8-26.7c-3-6.7-8.1-5-10.4-12c-2.1-6.5,1.5-10-0.7-17.4
			c-1.3-4.3-2.9-4.3-7-10.5c-7.6-11.4-4.8-15.6-11.2-23.2c-4-4.8-5.1-3.2-12.9-10.5C819.1,351.2,810.9,342.7,812.1,340.8z"/>
		<path class="st11" d="M966.5,669.9c-1.2-0.1-3.1-10.3,0.5-20.1c2.5-7,5.2-6.5,7.5-12.8c4.1-11.2-2.7-16.7,1.2-25
			c3.8-7.9,11.4-5.7,15.4-14.9c2.3-5.3,0-6.4,2.4-12c3.5-7.9,8.8-7.2,12.7-15.1c3.1-6.1,0.5-7.6,3.1-13.4c4.8-10.4,14.4-7.7,18-15.7
			c4.7-10.6-7.9-24.2-3-30c2.8-3.3,8.2-0.5,13.6-6.2c0.7-0.7,2-2.2,3-4.5c3.2-7.5-2.3-12.6-0.3-18.8c2.2-6.7,9.9-4.4,13.3-11.7
			c3.2-6.8-2.5-11,0-19.5c2.8-9.4,11.3-8.8,13.3-17.9c1.4-6.4-2.2-8.9-1.3-15.4c1.2-8.6,8.7-7.5,13.6-17.1
			c4.9-9.7,0.6-16.1,6.7-23.4c3.2-3.9,8-6.4,9.4-5.1c1.3,1.2-1,4.9-4,15.2c-3,10.3-2.3,11.8-5,17.6c-3.2,7.2-4.7,5.9-6.9,11.3
			c-4.3,10.9,1.5,16.7-2.8,25.1c-3.5,6.9-8,4.1-12,11.3c-4.4,8.1,0.2,13.3-4.5,22.8c-3.2,6.5-5.7,4.6-8.8,11
			c-4.5,9.4,0,14.9-4.5,22.8c-3.6,6.3-7.2,3.9-10.6,9.8c-5.4,9.3,2.2,17.6-2.8,26.5c-3.8,6.7-9,3.6-14.9,11.6
			c-5.3,7.2-2.1,11-7.7,20.1c-5.6,9.2-10.2,7.8-12.5,15.3c-2.1,7,1.4,10.2-1.5,17.1c-2.1,5-4.3,4.1-8.1,9.8c-5,7.6-2.3,11-7,20.2
			c-3.8,7.4-6.1,6.4-10.1,14.3C967.2,662.6,967.6,670,966.5,669.9z"/>
		<path class="st12" d="M835.2,346.2c-0.2,1.4,4.5,4,9.3,4.3c5.8,0.4,6.9-2.9,10.5-1.8c4.8,1.4,4.4,7.8,11.8,13.7
			c2.3,1.8,3.6,2.9,5.7,3.5c9.2,2.3,14-11.1,25.3-10.9c5.3,0.1,5.7,3.1,11.1,2.5c7-0.8,8.2-5.9,13.9-6.8c8.1-1.2,10.1,8.8,18.6,9.3
			c10.9,0.6,15.4-15.4,25.1-13.5c6,1.2,6.5,7.8,13.4,8.4c3.8,0.3,4.5-1.6,13.3-4.7c8-2.8,12-4.2,15.4-2.5c5.5,2.8,4.5,10.1,9.5,11.7
			c4.1,1.4,5.5-3.4,13-4.6c7.6-1.2,9.6,3.3,15.8,1c4.5-1.6,5.3-4.6,8.9-4.5c3.7,0.1,4.3,3.5,8.3,5.4c6.1,3,13.1-0.6,21.1-4.7
			c5.1-2.6,12.4-6.4,11.9-8.7c-0.8-3.8-22.1,4.6-53.6,1c-17-2-24.2-6.1-39.5-3.2c-6.9,1.3-10.1,3.1-17.5,2.9
			c-14.1-0.3-16.6-6.7-26.4-4.9c-11,1.9-11.8,10.7-21.5,10.5c-8.5-0.2-10.2-7-18.6-6.1c-7.2,0.8-7.6,5.9-15.2,6.7
			c-8.1,0.8-9.7-5-17.3-4.1c-7.9,1-9.4,7.8-16.2,8.1c-3.5,0.2-8.7-1.4-15.2-9.7C839.4,343.9,835.4,345,835.2,346.2z"/>
		<path class="st13" d="M819.9,355.1c7.3,2.8,11.3,6.9,13.6,10.1c5.2,7.1,3.4,12.1,9.4,22.1c4.8,7.9,6.8,6.4,9.1,12.4
			c3.4,9-0.7,13.5,3.1,20.9c3.3,6.4,7.1,4.7,9.4,10.5c3.2,7.9-3.5,12.9-0.7,22.1c1.9,6.4,5.4,4.9,8.4,12.8
			c2.8,7.5,0.4,10.9,3.8,17.8c2.6,5.3,4.4,4,7,8.9c4.6,8.8-0.3,14.7,3.8,23.2c3.2,6.6,6.7,4.2,10.1,10.9c4.6,8.9-1,14.8,3.5,25.2
			c2.7,6.2,4.8,4.5,8.4,11.6c5.2,10.4,1.4,15.5,6.3,22.1c4.7,6.2,9.2,3,13.6,9.3c4.4,6.2,1,10.9,5.2,19.8c3.6,7.6,7.7,5.6,10.8,12.8
			c1.5,3.6,1.3,5.4,2.6,18c0.9,8.7,2.5,12.5,1.6,13c-1.3,0.7-4-6.9-11.5-14.7c-7.4-7.8-10.1-5.9-13.1-11c-5.7-9.8,2.9-18.4-2.1-27.9
			c-4.9-9.4-15.4-5.1-20.1-15.1c-3.4-7.2,0.7-12.2-3.9-19.8c-3.5-5.6-6.6-4.4-8.6-9.6c-2.4-6.2,1.3-10.4-1.3-17.4
			c-1.4-3.8-3.5-5.5-5.2-7.6c-8.9-10.3-2.9-21.4-9.7-41c-4.5-12.8-12.8-24.5-13.3-25.3c-4.4-6.2-7.7-9.1-9.2-15.7
			c-1.7-7.8,1.4-9.8-0.3-17.3c-1.9-8.6-6.9-9.5-10.4-18.2c-3.4-8.3-1.8-14.8-1.8-21.5C838.2,386.8,835,372.9,819.9,355.1z"/>
	</g>
	<path id="indicator" class="st14" d="M646.2,500.8c12.7,2.6,27.1,14.5,26.6,29.6c-0.5,16.7-18.8,29.8-34.8,27.3
		c-16.9-2.7-31.1-22.6-26.6-38.7C615.3,504.6,632.8,498.1,646.2,500.8z"/>
</g>
</svg>
