<?xml version="1.0" encoding="utf-8"?>
<!-- Generator: Adobe Illustrator 25.0.0, SVG Export Plug-In . SVG Version: 6.00 Build 0)  -->
<svg version="1.1" id="Layer_1" xmlns="http://www.w3.org/2000/svg" xmlns:xlink="http://www.w3.org/1999/xlink" x="0px" y="0px"
	 viewBox="0 0 1920 1080" style="enable-background:new 0 0 1920 1080;" xml:space="preserve">
<style type="text/css">
	.st0{fill:none;stroke:#671837;stroke-width:2;stroke-miterlimit:10;}
	.st1{fill:#E66E91;stroke:#E66E91;stroke-miterlimit:10;}
	.st2{fill:#F695B0;stroke:#F695B0;stroke-width:0.75;stroke-miterlimit:10;}
	.st3{fill:#FAFAFD;stroke:#FAFAFD;stroke-miterlimit:10;}
	.st4{fill:#E1748D;stroke:#E1748D;stroke-miterlimit:10;}
	.st5{fill:#FFFFFF;stroke:#FFFFFF;stroke-width:0.75;stroke-miterlimit:10;}
	.st6{fill:#E2748A;stroke:#671837;stroke-width:2;stroke-miterlimit:10;}
	.st7{fill:none;stroke:#E1748D;stroke-miterlimit:10;}
	.st8{fill:#F7DCD5;stroke:#671837;stroke-width:2;stroke-miterlimit:10;}
	.st9{fill:#F5C4B3;stroke:#F5C4B3;stroke-width:0.75;stroke-miterlimit:10;}
	.st10{fill:#FAFEFF;stroke:#FAFEFF;stroke-width:0.75;stroke-miterlimit:10;}
	.st11{fill:#FFFFFF;stroke:#FAFFFF;stroke-width:0.75;stroke-miterlimit:10;}
	.st12{fill:#F3C3B9;stroke:#F3C3B9;stroke-width:0.75;stroke-miterlimit:10;}
	.st13{fill:#F8C2B8;stroke:#F6C2B7;stroke-width:0.75;stroke-miterlimit:10;}
	.st14{fill:#FFFCF9;stroke:#FFFCF9;stroke-width:0.75;stroke-miterlimit:10;}
	.st15{fill:#F6BFB8;stroke:#F6BFB8;stroke-width:0.75;stroke-miterlimit:10;}
	.st16{fill:#AA001C;stroke:#AA001C;stroke-miterlimit:10;}
</style>
<g>
	<g id="fallopiantube">
		<path class="st0" d="M768.3,335.2c-5-7.6-13.7-19.2-27.2-28.5c-18-12.5-34.4-14.1-41.1-14.7c-3.3-0.3-62.7-4.4-90,46.7
			c-16.6,31.1-16.7,74-6,81.4c6.2,4.3,16.2-3.1,28.2,5.6c0.9,0.6,5.5,4,5,6.7c-0.8,4.4-14,1.7-15.7,7.3c-1.2,3.9,4.7,7.5,9.3,18.9
			c0.3,0.8,6.6,16.2,3.2,19.8c-2.8,2.9-11.2-3-14.3-5.5c-3.2-2.6-3.8-4.1-7.9-7.3c-4.7-3.6-7.7-5.9-9.5-4.6
			c-2.3,1.5-1.2,7.3-0.6,22.1c0.7,19.2-0.7,21.1-1.7,21.7c-2.2,1.3-5.7-2.5-10.1-7.1c-3.4-3.7-7.7-8.3-9.9-16
			c-2-6.9-1.3-12.6-1.8-12.6c-1.2-0.1-1.3,32.5-6.6,33.6c-3.3,0.7-9.2-10.7-10.2-22.7c-1.1-13.4,4.8-17,5.9-32.4
			c0.9-12.3-2.5-15.1-5.3-34.3c-0.2-1.4-2.8-19.5-1.9-39.5c0.5-11.1,1.6-34.9,12.9-58.5c9.5-19.7,21.7-30.2,31.9-38.8
			c33.4-28,67.7-31.5,76.7-32.2c48.4-3.6,83.9,22.7,96.1,32.8"/>
		<path class="st1" d="M769.3,333.2c1.3-1.5-23.1-43.3-50.8-49.6c-1.8-0.4-7.9-2.3-15.9-2.3c0,0-14.2-1.2-27,0.6
			c-5.2,0.7-41.4,5.7-62.5,34.6c-23.5,32.2-18.3,80.3-18.6,80.2c-0.2,0-1.4-24.8,10.4-51.1c8.1-18.1,18.9-29,24.5-34
			c17.7-15.8,35.3-18.6,46.9-20.5c10.2-1.6,31.3-4.6,54.1,6.5C756.7,310.6,768.4,334.2,769.3,333.2z"/>
		<path class="st1" d="M617.7,269.7c2.7,3.1-35.1,38-45.5,84.9c-15.3,69,33.7,142.8,27,147.1c-2.5,1.6-10.9-7.4-14.1-14.8
			c-1.9-4.3-2.8-6.5-3.2-9.3c-0.3-2.2-0.2-4.7-1.6-7.7c-0.4-0.9-1.4-3.1-2.4-2.9c-1,0.1-1.6,2.5-2,4.5c-1.5,7.3-1.3,12.2-1.9,17.7
			c-0.6,5.3-1.1,10.6-2.8,11c-2.4,0.5-6.9-9.6-7.3-19.5c-0.1-3.6,0.3-7,0.6-9.4c0.7-5.6,1.7-8.7,2.4-11.8c1.7-7.2,1.3-13.1,0.9-20.6
			c-0.6-10.8-2.7-18.7-3.5-21.8c-6.1-24.7-2.4-53.1-1.7-58.2c1.3-10,4.2-30.3,16.3-50.6c8.5-14.4,17.9-22.3,30.8-33.3
			C616.5,269.3,617.4,269.3,617.7,269.7z"/>
		<path class="st2" d="M770.2,330.8c-13.9-23.2-29.8-40.4-48.7-47.8c-18.4-3.8-38.2-3.7-58.6,0c-28.5,6.3-48,23.5-60.3,49.6
			c-5.2,14.2-8.2,29.7-9.7,46.1c0.8,13.8,2.2,25.2,4.2,34.1c4.2,9.2,9.6,13.8,17,11c9.6,0.1,17,2.4,21.3,8
			c-6.1,0.5-11.1,2.4-15.1,5.6c-1.2,5.1,0.4,9.4,4,12.9c5.3,10.4,8.3,19.3,8.4,26.4c-7.1-2.1-13.9-7.3-20.7-13.6
			c-4.2-3.7-7.9-4.7-11.3-3.8c-1.7,3.4-2.1,7.5-1.4,12.2l0.6,23.8l-11.7-29.7c-8.6-19.8-14.5-38.6-16.9-56
			c-1.2-23-1.3-43.7,2.1-57.3c7-21.5,16.2-40.8,28.2-57.1c6.2-13.8,14.1-24.6,24.5-31c25.9-13.5,51.7-20,77.6-17.4
			c18.9,3.7,36.7,9.8,53.3,18.5l21.6,12.9L770.2,330.8z"/>
		<path class="st3" d="M696.5,253.7c-4.9-11.1-49.7,3.3-49.3,10.4c0.1,2.6,6.4,3.9,7.9,4.3c9.1,2,12.2-3.9,23.9-5.7
			c9.5-1.5,15.3,1.2,17.4-3.1C697.1,257.8,697.3,255.4,696.5,253.7z"/>
		<path class="st0" d="M1145.3,343.7c5.3-8.5,15.3-22.2,31.3-32.3c20.3-12.8,38.8-12.3,51.5-12.1c12.8,0.3,31.8,0.7,52,14.9
			c5.7,4,20.3,14.6,30.6,36.1c12.1,25.2,12.4,53.4,6.6,60.9c-3.7,4.7-8.2,6.6-8.2,6.6c-2.8,1.1-5,1.1-6,1.2
			c-10.3,0.4-23.1,12.3-22.3,15.1c0.4,1.4,3.9,0,16.2,0.9c2.2,0.2,5.8,0.5,8.8,3.5c1.3,1.3,2.6,2.6,2.7,4.3c0.2,4.4-7.7,5.2-13,13.2
			c-4.2,6.3-5.5,15.3-3.6,17c1.2,1.1,3.3-0.9,13.3-7.6c8.5-5.7,9.8-6.1,11-5.4c3.7,2.1,3.5,12.6,3.3,21.7c-0.3,12.9-2.3,18.4-0.3,20
			c2.5,1.9,8.9-3.4,12.8-9.7c5.4-8.8,4.7-17.5,6.9-17.7c3.7-0.4,6.4,24.4,11.4,24.4c2.9,0,5.1-8.7,5.5-10.4
			c4.1-16.3-0.7-27.8-2.2-42.2c-2-19.2,4.1-22.3,6.1-46.4c0,0,2.4-29.1-5.7-58.2c-13.6-48.5-51.6-71.8-59.7-76.4
			c-38.9-22.4-85.3-16.7-108.3-3.9c-5.2,2.9-26.2,15.6-56.1,22.3c-0.9,0.2-1.6,0.3-2,0.4"/>
		<path class="st4" d="M1126.3,329.3c5.7-4.3,14.3-10.7,25-18c1.9-1.3,20.8-14.2,29.8-19.2c38.5-21.2,84.4-2,86.3-1.2
			c19.4,8.4,41.3,17,52.7,44.2c13,30.9,3.5,63.5,1.2,71c5.5-26.2-3.9-51.1-19.8-75.5c-16.8-19.5-35.4-30.2-55.6-33.2
			c-14.3-1.9-29.2-1.3-44.5,1.2c-15.6,5.6-29,12.8-40.3,21.5l-16.7,20.7L1126.3,329.3z"/>
		<path class="st4" d="M1334.4,303.9c0.6,0.5,8.2,58,8.8,94.2c0.5,27.2-0.9,51.9-3.1,73.3c4.6,5.9,8,14.2,10.4,24.4
			c6.2-13.3,5.8-30.6,1.8-50.3c-0.2-14.9,1.1-28,4.6-38.5c1.3-25.1,0.2-49.1-6.3-70.4C1347.1,325.9,1333.8,303.4,1334.4,303.9z"/>
		<path class="st2" d="M1127.4,328c22-17.9,44.7-33,68.4-44.2c21.2-4.6,41.7-4.5,61.4,1.7c16.8,4.9,32.2,13.2,46.5,24.4
			c13.8,18.7,23,35.4,23.2,48.4c0.6,16.7-1.5,33.4-5.4,50c-4.5,10.1-12.1,13.7-21.4,13.7c-5.8,2.3-11.1,6-16.1,10.5
			c17.2-2.5,24.8,1.1,26.3,8.7c-3.7,7.2-11.9,13.3-16.2,23.3c-5.5,14.3,9.8,1,21.2-7.1c2.3-1.8,4.5,0.7,6.3,13.5
			c0.7,10.3,0.6,20-0.7,28.7c4.6-3.4,8.6-7.8,12.1-12.9c1.2-6.4,3.2-11.5,6-15.1c2.9-24.8,4.2-48.8,3.2-71.5
			c-1.2-31.8-4.2-64.2-9-97.3c-22.8-28.2-49.3-43.5-78.7-49c-2.2-4.5-60.3,2.6-58.8,6c0.2,0.5-44.9,21.1-44.9,21.1
			c-0.9,0.3-25.5,7.7-21.3,5.5C1127.4,285.5,1127.4,328,1127.4,328z"/>
		<path class="st5" d="M1186.2,269c-0.5-3.3,12.9-9.9,24.6-12.5c9.1-2.1,17.3-1.5,33.6-0.3c7.7,0.6,15.1,1.1,15.2,2.3
			c0.1,1.7-14.7,2.5-36.9,9.3c-4.3,1.3-4.3,1.5-6.6,2C1202.1,273.3,1186.6,272.4,1186.2,269z"/>
	</g>
	<g id="structure">
		<path class="st0" d="M901.1,921.5c-2.1-26.8-1.8-48.4-1.1-62.9c1.3-28.7,4.2-37.3,1.6-58.2c-0.7-5.4-1.3-8.5-11.1-46.1
			c-11.8-45.7-11.6-43.9-12-46.5c-5.8-35.5,2.9-45.9-3.5-74.8c-3.2-14.8-7.4-20.9-17.7-41.9c-15.1-30.7-36.3-74.1-47.8-122.9
			c-8.6-36.3-4-42.5-14.7-75.6c-8.4-25.8-18.8-45.4-26.5-58.2"/>
		<path class="st0" d="M1019.8,921.1c0.7-12.3,1.8-31.7,2.4-55.5c1.7-65.5-1.9-79.3,4.4-111.7c6.7-34.5,12.9-29.8,17-60.5
			c6.2-45.7-7.3-57.4,3.2-85.3c7.6-20.5,16.3-17.9,37.9-53.5c6.5-10.8,14.5-24,20.8-41.1c17-45.9,3.9-70.8,17.7-120.2
			c3.3-11.8,9.4-29.6,21.5-49.6"/>
		<path class="st6" d="M1116.4,478.1c2.6-0.8,5.2,7.7,10.2,15.4c7.6,11.8,17.3,16.6,25.3,20.6c23.6,11.8,43.7,3.6,45.7,12.5
			c0.9,3.8-2.6,6.7-2.8,16.3c-0.2,7.4,3.3,10.5,1.9,13.4c-1.9,4-9.6,2.7-15.6,1.5c-17.2-3.5-25.8-5.3-34.8-9.9
			c-13.4-6.8-37.9-19.3-37.9-35.5c0-4.2,1.7-4.4,4.3-18.3C1114.6,483.4,1114.6,478.6,1116.4,478.1z"/>
		<path class="st6" d="M726.2,525.2c3.2-3.6,7.1-2.7,12.8-2.9c13.8-0.4,23.9-7.3,36.7-14.5c8.9-5.1,13.4-7.6,17-11.9
			c10.1-12,12.7-29.1,14.2-28.5c0.7,0.3-0.3,4.1,0.7,9.9c0.9,5.4,2.9,8.9,4,11c3.5,6.8,7.4,18.5,7.1,25.3
			c-0.4,11.1-13.5,18.3-39.3,33.4c-3.1,1.8-17.4,10.1-36.7,12.5c-6.5,0.8-10.7,0.6-14.2-2.6C721,549.9,720.2,531.9,726.2,525.2z"/>
		<path class="st0" d="M777.3,276.8c46.5,17.2,111.3-20.4,184.8-27.9c65.9,5.9,119.2,45.2,167.1,34.9"/>
		<path class="st4" d="M1128.7,330.4c-3.8,1-5.8,5.4-8.8,12.2c-9.5,21.7-14.2,32.5-14.5,33.1c-6.5,20.5-9.7,37.5-11.1,44.8
			c-8,41.9-4.8,49.2-11.8,75.6c-3,11.3-7.9,29.3-19.2,48.3c-19.9,33.7-37.8,33.6-43.6,60.8c-2.2,10.4-2.1,22-1.9,38.1
			c0.1,11.1,0.7,10.6,1.9,32.3c2,35.9,1.1,49.5-5.7,61.1c-1.1,1.9-1,1.3-2.8,4.4c-6.2,10-13.6,21.9-13.7,36.1c0,3-0.1,8.1,2.1,13.4
			c1,2.4,1.7,3,3.1,6.1c1.3,2.9,3.2,7.2,3.3,11.3c0.3,8.1-6.2,9.7-7.1,20.6c-0.2,2.1-0.4,5.1,0.2,9c1.6,9.2,6.4,11.8,6.2,18.9
			c-0.1,3.6-1.3,3-2.2,7.9c-1.4,8,1.7,10.8,2.6,25c0.3,4.5,0.2,7.6-0.9,10.8c-1.3,3.6-2.4,3.2-3.5,6.4c-2.1,5.9,1,8.9-0.9,15.1
			c-1.3,4.1-3.2,4.3-3.3,7.6c-0.2,3.6,1.8,7.4,4.5,9c4.6,2.7,10.3-1.8,13-5.8c3.1-4.6,3.5-10,3.5-11.9c1.5-27.9,2.2-41.8,1.7-59.6
			c-0.6-19.4,1-12.4,1.2-47.7c0.1-17.5-0.3-29.9,2.1-48.3c1.3-10.1,2.9-17.7,3.3-19.5c5.4-25.3,10.9-29.7,14.7-47.7
			c2.7-12.7,2.4-22.4,1.9-41.9c-0.7-25.4-4.1-32.1,0.2-45.6c3.9-12.2,11.6-21.7,12.6-23c4.7-5.8,7.1-6.6,12.6-12.5
			c4.3-4.7,8-9.8,15.4-23c3.9-6.9,14.1-25.2,19.7-39c15.5-38.4,3.9-62.5,14.7-109.6c3.1-13.4,7.8-28.1,15.6-42.8c2.1-3.9,4-7,5.2-9
			c0.2-0.9,0.6-2.4,1.4-4.1c1.3-2.8,2.2-3.4,2.4-4.5C1143.7,338.6,1135.5,328.6,1128.7,330.4z"/>
		<path class="st7" d="M1051.6-3061.1c11.4,0.6,22.9,1.2,34.3,1.8"/>
		<path class="st2" d="M969.8,761.5c14.6,4.4,27.2-1.8,38-18.7c13.5-7.1,14.3-50.4,10-108.2c-1-29.1,3.4-52.4,21.9-60.7
			c29.9-31,46.7-79.9,52.8-143c5.2-38.5,16.5-72.5,33.6-102.3l1.8-43.1c-26.7,4.4-55.4-2.6-84.9-13.9c-26.1-9.2-53.1-15.8-81-20.4
			c-36,6.2-71.5,14.4-106.4,24.4c-26.5,8.8-52.7,10.5-78.3,3.9l-7.7,54.6c23.9,37.8,35.5,74.8,37.6,111.2
			c10,49.7,25.4,93.9,46.4,132.6c9,15.9,16.4,32,22.3,48.5c4.2,12.6,4.8,25.7,3.6,39c-0.8,21.1-0.3,40.1,4.1,52.7l16.4,62.7
			c4,17,5.7,33.2,4,48.5c-2.2,26.4-2.7,53.2-1.4,80.5c1.8,24.4,8,33.5,20.3,21.7c-2.1-6.4-3-12.4-2-17.8c-2.4-5.1-3.7-10.5-3.7-16.4
			c-0.9-7.5-1.2-14.5-0.1-20.2c-2.4-5-3.6-10.2-3-15.6c0.3-8,2-14.9,5.2-20.4c-4.7-8.7-5.4-16-2.1-21.9c6.1-5,6.6-11.8,1.2-20.6
			c-1.5-6.9-1.6-13.3-0.1-19.3c3.3-7.7,1.9-14.5-3.7-20.5c-2.4-7.5-3.3-13.6-0.4-16.4c2.7-0.7,4.7,0.4,6.4,3
			c10.1,13.4,21.4,21.4,34.7,19.9c4.2-17.2,3.9-32.7-1.9-46.3c-4.6-12.6-6-24-4-34.1c2.1-21.9-1-38.6-12.4-46.7
			c-6.1-3.7-10.5-8.2-11.7-14.1c2.4-13.3,3-25.5-8.4-29.8c-6.8-1.8-10.1-6.9-11.4-14c0.7-9.4-2.5-17-9.5-22.9
			c-1-2.6-1.3-5.4-1.3-8.4c1.1-8-2.2-15.6-8.1-23c-1.9-9.4-3.1-17.7-3.1-24.4c-2.9-11.4-7.4-22.8-13.1-34
			c-7.7-9.7-11.7-18.8-10.1-26.9c1.3-8.2-3.7-18.5-10.5-29.6c-0.1-16.8-1.6-32.4-7.2-44.4l-18.2-27.7c-0.4-4,0.8-6.1,4.5-5.3
			c9.5,6.7,21.8,8.8,37.3,5.5c8.6,12.6,18.3,12,28.8,1.6c9.9,6,19.9,4.8,29.8-2.4c12.5,8.7,24.9,6.8,37.1-4.8
			c15.2,5.4,29.4,7.1,41.4,1.5c31,4.1,59.5,6.3,79.8,2.2c2.3,3.4,7.9,1.8,14.6-1.4c2.6,4.5,2.3,9,0,13.3c-3.8,9-8.7,14.7-14.6,16.9
			c-8.1,23.8-18,49.5-14.7,61.2c-10.2,14-17,27.9-16.3,41.7c-8.3,8.6-11.9,21.4-13.1,36.4c-11.6,5.8-13.8,20.5-13.7,37.4
			c-10.3,4.4-16.1,15.9-19.8,30.9c-9.6,6.8-13.6,17.2-11.9,31.1c-6.6,8.3-11.1,19.3-14,32.6c-6.6,7.7-11.1,17.6-13.5,29.5
			c-2,9.2-3,18-2.5,26.4c1.3,6.9,3.2,14.5,5.5,22.6c1.8,8.4,2.8,16.3,2.4,23.3L969.8,761.5z"/>
	</g>
	<g id="ovaries">
		<path class="st8" d="M1288.1,474.9c-3.3-3.1-2.3-14.2,2.1-21.2c5.3-8.4,13.9-8.3,13.7-10.8c-0.2-2.9-12.3-4.5-23.4-4
			c-13.3,0.6-21,0.9-27.7,7.5c-7.8,7.7-5.8,15.7-12.6,18.9c-7.6,3.6-13.1-5.1-20.6-0.6c-2.9,1.8-4.7,5.2-8.3,11.9
			c-2.4,4.6-5.7,10.8-6.9,19.2c-1.4,9.6,1.7,10.4,0.7,18.6c-1.6,13.9-10.8,15.5-11.2,26.8c-0.4,10.5,7,18.8,9.3,21.5
			c6.5,7.3,11.1,6.3,22,11.9c16.9,8.8,15.4,17.4,27,20.1c13.1,3,24.7-4.9,25.6-5.5c6.7-4.7,5.2-7.3,9.9-9c9-3.3,15.6,5.4,27.5,0.6
			c1.1-0.5,1.7-0.7,2.4-1.2c8-5.4,4.7-20.2,9-35.5c4.9-17.3,13.7-14.6,17.5-30.5c4.5-18.6-3.8-38.1-6.6-37.8
			c-2.3,0.3-0.2,13-7.6,21.8c-4.5,5.4-11.9,8.6-14.9,5.5c-1.6-1.7-1.3-4.5-0.5-17.2c1.3-18.5,1.3-22.3-0.2-23.3
			c-1.9-1.2-4,2.9-11.1,7.6C1298.5,473.3,1291.3,477.9,1288.1,474.9z"/>
		<path class="st9" d="M1334.2,494.5c1.1-2.1,2-4,2.7-6.5c1.3-4.8,0.7-8,1.3-8.1c0.9-0.2,2.9,7.1,4,14.4c0.9,6,1.4,9.1,0.8,13.4
			c-0.8,6.1-3.3,10.4-5.3,13.8c-3.2,5.5-4.3,4.8-7.2,9.5c-4.3,6.9-5.7,14.4-6.6,19.3c-1.4,7.9-0.5,9.9-2.6,17
			c-1.5,5.1-2.2,7.8-4.1,9.7c-4.5,4.4-11.4,2.9-15.8,1.9c-3.1-0.7-3.6-1.8-6.3-2.1c-1.4-0.1-4.7-0.2-9.7,2.6
			c-4.9,2.8-5.9,5.2-9.6,8.2c-8.6,6.9-18.3,5.6-19.2,5.5c-6.3-1-10.9-4.7-15.4-8.4c-4.7-3.8-4.7-5.2-4.6-5.7
			c0.3-3.5,8.3-3.1,16.5-7.6c10.4-5.6,11.2-13.8,20-22.1c11.2-10.6,15.6-1.8,28.4-11.3c7.1-5.3,4.3-6.5,21.6-26.5
			C1323,511.5,1328.3,505.3,1334.2,494.5z"/>
		<path class="st10" d="M1282.2,495.3c-1.2,0.5-1.7,1.7-2.6,3c-4.1,6.3-9.6,5.6-9.8,8.3c-0.1,2.6,4.8,6.1,9.5,5.8
			c3.5-0.2,6.8-2.6,8.5-6.2c0.6-1.2,2-4.2,0.9-7.2C1287.7,495.9,1284.3,494.4,1282.2,495.3z"/>
		<path class="st10" d="M1243.3,544.2c-7.3,2.8-11,4.2-11.1,6.4c-0.1,2.7,4.9,6.1,9.5,5.8c3.5-0.2,6.8-2.6,8.5-6.2
			c0.9-1.8,2.2-5.5,0.9-7.2C1250.6,542.2,1249.5,541.8,1243.3,544.2z"/>
		<path class="st10" d="M1226.3,506.9c-2.8,0.6-10.4,2.3-11.4,8.7c-0.6,3.7,1.1,8.1,3.8,9.7c4.9,3,11.6-4,14.2-10.1
			c0.6-1.5,2.2-5,0.9-7.2C1232.4,505.5,1228.3,506.5,1226.3,506.9z"/>
		<path class="st11" d="M1259.7,468.5c-5.6,1.3-11.9,5.8-11.4,8.7c0.5,2.7,6.5,3.1,7.9,3.1c2.7,0.2,7.6,0.5,10.1-3.5
			c1.2-1.9,2-5.2,0.9-7.2C1265.9,467.1,1261.7,468.1,1259.7,468.5z"/>
		<path class="st12" d="M1246.7,515.4c-1.3-0.7-1.3-12.6,4.4-15.4c4.3-2.1,9.8,1.9,9.7,3.9c-0.1,1.7-4.5,1-9.2,5.5
			C1248.2,512.7,1247.4,515.8,1246.7,515.4z"/>
		<path class="st8" d="M620.5,441.8c2.1-10,49.1-9.8,54.9,9.3c1.1,3.7,0.9,8.7,4.4,12c3.5,3.3,7.3,1.5,13.3,2.3
			c6.3,0.8,13.2,4.3,17,8.9c8.2,9.7-0.1,21.3,6.6,42.6c4.5,14.2,10.3,15.8,10.1,26.7c-0.1,8.4-3.6,16.6-8.5,21.7
			c-5.2,5.3-9,4-17.4,7.4c-15.2,6.1-13.8,14.7-27.2,20.2c-8.4,3.4-24.3,6.2-32.5-3.5c-3.5-4.1-4-8.6-8.2-10.1
			c-4.9-1.7-7.7,3.1-14.5,3.9c-7.2,0.8-12.9-3.5-14.5-4.6c-8.9-6.6-4.1-18.4-12.3-36.8c-5.7-12.8-9.4-10.8-13.6-22.5
			c-6.1-17-3.2-35-1.3-35.3c1.3-0.2,1.4,7.9,7.3,15.5c3.5,4.6,10,10.2,13.9,7.7c0.7-0.4,2.8-2.1,3.5-14.4c0.9-16.9-2.4-26.3,0-27.9
			c1.9-1.3,4.7,4.2,12.6,9.7c2.2,1.5,14.5,10,18.6,5.4c3.1-3.5,0.5-12.9-0.3-15.9C628.4,449.3,619.6,446.3,620.5,441.8z"/>
		<path class="st13" d="M598.1,509.5c-4.2,0.8-8.5-1.2-13.4-6.2c-5.8-5.8-6.5-14.1-7.8-13.7c-1.3,0.4-0.9,9.5,0.4,17
			c0.7,4.2,1.7,9.8,4.6,16c3.8,8.2,6,6.9,10.1,14.8c5.1,9.7,6.6,20.8,6.6,20.8c0.6,4.6,0.7,8.9,3.3,13.7c0.6,1.1,1.9,3.4,4.2,5.3
			c6,5.1,13.4,3.3,14.7,3c5.2-1.4,6.3-4.3,10.3-3.5c2.6,0.5,4.6,2.3,5.9,3.5c3.3,3,4.4,5.9,5.8,7.9c6.9,9.9,25.5,4,27.8,3.2
			c4.5-1.5,8.1-2.6,11.7-6.1c2.1-2.1,3.9-4.6,7.8-7.7c2-1.6,3.6-2.6,4.7-3.2c9.4-5.8,18.2-6.1,18.2-7.3c0-1.6-15.5-7-29.8,0.4
			c-4.2,2.2-6.4,4.4-11.4,5c-2.2,0.3-10.3,0.9-16.3-5.2c-1.1-1.2-2.8-3.9-6.2-9.3c-5-8-4.2-7.8-5.4-8.9c-6.1-5.8-17-2.4-21.8-1
			c-5.3,1.6-7.5,3.4-9.3,1.8c-2.4-2.1-0.6-6.9-1.3-14.1C610.7,525.1,602.4,508.7,598.1,509.5z"/>
		<path class="st14" d="M667.6,524.8c1.6-2.5,8.4-2.2,11.1,3.8c2.5,5.6-0.1,12.5-2.6,13.1C672.2,542.5,665.2,528.5,667.6,524.8z"/>
		<path class="st15" d="M663.1,487.5c1.6-2.5,8.4-2.2,11.1,3.8c2.5,5.6-0.1,12.5-2.6,13.1C667.7,505.3,660.7,491.2,663.1,487.5z"/>
		<path class="st14" d="M632.5,495.6c1.6-2.5,8.4-2.2,11.1,3.8c2.5,5.6-0.1,12.5-2.6,13.1C637.1,513.4,630.1,499.3,632.5,495.6z"/>
		<path class="st14" d="M646.1,453.1c1.6-2.5,8.4-2.2,11.1,3.8c2.5,5.6-0.1,12.5-2.6,13.1C650.8,470.8,643.8,456.7,646.1,453.1z"/>
		<path class="st14" d="M693.9,513.2c1.6-2.5,8.4-2.2,11.1,3.8c2.5,5.6-0.1,12.5-2.6,13.1C698.6,531,691.6,517,693.9,513.2z"/>
	</g>
	<path class="st16" d="M958.1,350.1l-29.8,45.7c-4,28.2,5.7,43.1,29.8,44.4c23-3.3,35.3-16.1,29.1-45.1L958.1,350.1z"/>
	<path class="st16" d="M957,469.9l-25.2,34.7c-3.4,21.3,4.8,32.7,25.2,33.7c19.4-2.5,29.8-12.2,24.7-34.2L957,469.9z"/>
	<path class="st16" d="M958,570.1L937.3,599c-2.8,17.8,4,27.2,20.7,28c16-2.1,24.5-10.2,20.2-28.5L958,570.1z"/>
	<path class="st16" d="M961.7,775.1l-17.1,22c-2.3,13.5,3.3,20.7,17.1,21.3c13.2-1.6,20.2-7.7,16.7-21.6L961.7,775.1z"/>
	<path class="st16" d="M962.6,841.2l-14.4,18.5c-1.9,11.4,2.8,17.4,14.4,17.9c11.1-1.3,17-6.5,14.1-18.2L962.6,841.2z"/>
	<path class="st16" d="M962.6,895.8L951.8,912c-1.5,10,2.1,15.2,10.8,15.7c8.3-1.2,12.8-5.7,10.6-15.9L962.6,895.8z"/>
</g>
</svg>
