<?xml version="1.0" encoding="utf-8"?>
<!-- Generator: Adobe Illustrator 25.0.0, SVG Export Plug-In . SVG Version: 6.00 Build 0)  -->
<svg version="1.1" id="Layer_1" xmlns="http://www.w3.org/2000/svg" xmlns:xlink="http://www.w3.org/1999/xlink" x="0px" y="0px"
	 viewBox="0 0 1920 1080" style="enable-background:new 0 0 1920 1080;" xml:space="preserve">
<style type="text/css">
	.st0{fill:none;stroke:#671837;stroke-width:2;stroke-miterlimit:10;}
	.st1{fill:#E66E91;stroke:#E66E91;stroke-miterlimit:10;}
	.st2{fill:#F695B0;stroke:#F695B0;stroke-width:0.75;stroke-miterlimit:10;}
	.st3{fill:#FAFAFD;stroke:#FAFAFD;stroke-miterlimit:10;}
	.st4{fill:#E1748D;stroke:#E1748D;stroke-miterlimit:10;}
	.st5{fill:#FFFFFF;stroke:#FFFFFF;stroke-width:0.75;stroke-miterlimit:10;}
	.st6{fill:#E2748A;stroke:#671837;stroke-width:2;stroke-miterlimit:10;}
	.st7{fill:none;stroke:#E1748D;stroke-miterlimit:10;}
	.st8{fill:#DA4F6E;stroke:#671837;stroke-width:2;stroke-miterlimit:10;}
	.st9{fill:#DA4F6E;stroke:#DA4F6E;stroke-width:0.75;stroke-miterlimit:10;}
	.st10{fill:#F7DCD5;stroke:#671837;stroke-width:2;stroke-miterlimit:10;}
	.st11{fill:#D97091;stroke:#E27795;stroke-width:0.75;stroke-miterlimit:10;}
	.st12{fill:#DB6C8D;stroke:#E27795;stroke-width:0.75;stroke-miterlimit:10;}
	.st13{fill:#DE7292;stroke:#E27795;stroke-width:0.75;stroke-miterlimit:10;}
	.st14{fill:#24B6CE;stroke:#000000;stroke-width:2;stroke-miterlimit:10;}
</style>
<g>
	<g id="fallopiantube">
		<path class="st0" d="M793.9,300.3c-5-7.6-13.7-19.1-27.2-28.5c-18-12.5-34.4-14.1-41.1-14.7c-3.3-0.3-62.7-4.4-90,46.7
			c-16.6,31.1-16.7,73.9-6,81.4c6.2,4.3,16.2-3.1,28.2,5.6c0.9,0.6,5.5,4,5,6.7c-0.8,4.4-14,1.7-15.7,7.3c-1.2,3.9,4.7,7.5,9.3,18.9
			c0.3,0.8,6.6,16.2,3.2,19.8c-2.8,2.9-11.2-3-14.3-5.5c-3.2-2.6-3.8-4.1-7.9-7.3c-4.7-3.6-7.7-5.9-9.5-4.6
			c-2.3,1.5-1.2,7.3-0.6,22.1c0.7,19.2-0.7,21.1-1.7,21.6c-2.2,1.3-5.7-2.5-10.1-7.1c-3.4-3.7-7.7-8.3-9.9-16
			c-2-6.9-1.3-12.6-1.8-12.6c-1.2-0.1-1.3,32.5-6.6,33.6c-3.3,0.7-9.2-10.7-10.2-22.7c-1.1-13.4,4.8-17,5.9-32.4
			c0.9-12.2-2.5-15.1-5.3-34.2c-0.2-1.4-2.8-19.5-1.9-39.5c0.5-11.1,1.6-34.9,12.9-58.5c9.5-19.7,21.7-30.2,31.9-38.7
			c33.4-28,67.7-31.5,76.7-32.2c48.4-3.6,83.9,22.7,96.1,32.7"/>
		<path class="st1" d="M794.9,298.3c1.3-1.5-23.1-43.3-50.8-49.6c-1.8-0.4-7.9-2.3-15.9-2.3c0,0-14.2-1.2-27,0.6
			c-5.2,0.7-41.4,5.7-62.5,34.6c-23.5,32.1-18.3,80.3-18.6,80.2c-0.2,0-1.4-24.8,10.4-51.1c8.1-18.1,18.9-29,24.5-34
			c17.7-15.8,35.3-18.6,46.9-20.4c10.2-1.6,31.3-4.6,54.1,6.5C782.2,275.8,794,299.4,794.9,298.3z"/>
		<path class="st1" d="M643.2,234.9c2.7,3.1-35.1,38-45.5,84.9c-15.3,69,33.7,142.8,27,147.1c-2.5,1.6-10.9-7.4-14.1-14.8
			c-1.9-4.3-2.8-6.5-3.2-9.3c-0.3-2.2-0.2-4.7-1.6-7.6c-0.4-0.9-1.4-3.1-2.4-2.9c-1,0.1-1.6,2.5-2,4.5c-1.5,7.3-1.3,12.2-1.9,17.7
			c-0.6,5.3-1.1,10.6-2.8,10.9c-2.4,0.5-6.9-9.6-7.3-19.5c-0.1-3.6,0.3-7,0.6-9.4c0.7-5.6,1.7-8.7,2.4-11.8
			c1.7-7.2,1.3-13.1,0.9-20.6c-0.6-10.8-2.7-18.6-3.5-21.8c-6.1-24.7-2.4-53-1.7-58.2c1.3-9.9,4.2-30.3,16.3-50.6
			c8.5-14.4,17.9-22.3,30.8-33.3C642.1,234.5,643,234.5,643.2,234.9z"/>
		<path class="st2" d="M795.8,296c-13.9-23.2-29.8-40.4-48.7-47.8c-18.4-3.8-38.2-3.7-58.6,0c-28.5,6.3-48,23.5-60.3,49.6
			c-5.2,14.2-8.2,29.7-9.7,46.1c0.8,13.8,2.2,25.2,4.2,34.1c4.2,9.2,9.6,13.8,17,10.9c9.6,0.1,17,2.4,21.3,8
			c-6.1,0.5-11.1,2.4-15.1,5.6c-1.2,5.1,0.4,9.4,4,12.9c5.3,10.4,8.3,19.3,8.4,26.3c-7.1-2.1-13.9-7.3-20.7-13.6
			c-4.2-3.7-7.9-4.7-11.3-3.8c-1.7,3.4-2.1,7.5-1.4,12.2l0.6,23.7l-11.7-29.7c-8.6-19.8-14.5-38.6-16.9-56
			c-1.2-22.9-1.3-43.7,2.1-57.2c7-21.5,16.2-40.8,28.2-57c6.2-13.8,14.1-24.6,24.5-31c25.9-13.5,51.7-20,77.6-17.4
			c18.9,3.7,36.7,9.8,53.3,18.5l21.6,12.9L795.8,296z"/>
		<path class="st3" d="M722.1,218.9c-4.9-11.1-49.7,3.3-49.3,10.4c0.1,2.6,6.4,3.9,7.9,4.3c9.1,2,12.2-3.9,23.9-5.7
			c9.5-1.5,15.3,1.2,17.4-3.1C722.7,223.1,722.8,220.6,722.1,218.9z"/>
		<path class="st0" d="M1170.9,308.9c5.3-8.4,15.3-22.2,31.3-32.3c20.3-12.7,38.8-12.3,51.5-12.1c12.8,0.3,31.8,0.7,52,14.9
			c5.7,4,20.3,14.6,30.6,36c12.1,25.2,12.4,53.4,6.6,60.8c-3.7,4.7-8.2,6.6-8.2,6.6c-2.8,1.1-5,1.1-6,1.2
			c-10.3,0.4-23.1,12.3-22.3,15.1c0.4,1.4,3.9,0,16.2,0.9c2.2,0.2,5.8,0.5,8.8,3.5c1.3,1.3,2.6,2.6,2.7,4.3c0.2,4.4-7.7,5.2-13,13.2
			c-4.2,6.3-5.5,15.3-3.6,17c1.2,1.1,3.3-0.9,13.3-7.6c8.5-5.7,9.8-6.1,11-5.4c3.7,2,3.5,12.6,3.3,21.6c-0.3,12.9-2.3,18.4-0.3,20
			c2.5,1.9,8.9-3.4,12.8-9.7c5.4-8.8,4.7-17.5,6.9-17.7c3.7-0.4,6.4,24.4,11.4,24.4c2.9,0,5.1-8.7,5.5-10.4
			c4.1-16.3-0.7-27.7-2.2-42.2c-2-19.1,4.1-22.3,6.1-46.3c0,0,2.4-29.1-5.7-58.1c-13.6-48.5-51.6-71.7-59.7-76.3
			c-38.9-22.4-85.3-16.7-108.3-3.9c-5.2,2.9-26.2,15.6-56.1,22.3c-0.9,0.2-1.6,0.3-2,0.4"/>
		<path class="st4" d="M1151.9,294.5c5.7-4.3,14.3-10.7,25-18c1.9-1.3,20.8-14.2,29.8-19.2c38.5-21.2,84.4-2,86.3-1.2
			c19.4,8.4,41.3,17,52.7,44.2c13,30.8,3.5,63.5,1.2,71c5.5-26.2-3.9-51.1-19.8-75.4c-16.8-19.5-35.4-30.1-55.6-33.2
			c-14.3-1.9-29.2-1.3-44.5,1.2c-15.6,5.6-29,12.8-40.3,21.5l-16.7,20.7L1151.9,294.5z"/>
		<path class="st4" d="M1360,269.1c0.6,0.5,8.2,58,8.8,94.2c0.5,27.2-0.9,51.8-3.1,73.2c4.6,5.9,8,14.2,10.4,24.4
			c6.2-13.2,5.8-30.6,1.8-50.3c-0.2-14.9,1.1-28,4.6-38.5c1.3-25.1,0.2-49.1-6.3-70.3C1372.7,291,1359.4,268.5,1360,269.1z"/>
		<path class="st2" d="M1153,293.2c22-17.9,44.7-33,68.4-44.2c21.2-4.6,41.7-4.5,61.4,1.7c16.8,4.9,32.2,13.2,46.5,24.3
			c13.8,18.7,23,35.4,23.2,48.3c0.6,16.7-1.5,33.4-5.4,50c-4.5,10.1-12.1,13.7-21.4,13.7c-5.8,2.3-11.1,6-16.1,10.5
			c17.2-2.5,24.8,1.1,26.3,8.7c-3.7,7.2-11.9,13.3-16.2,23.2c-5.5,14.3,9.8,1,21.2-7.1c2.3-1.8,4.5,0.7,6.3,13.5
			c0.7,10.3,0.6,20-0.7,28.7c4.6-3.4,8.6-7.8,12.1-12.9c1.2-6.4,3.2-11.5,6-15.1c2.9-24.8,4.2-48.8,3.2-71.5
			c-1.2-31.7-4.2-64.1-9-97.2c-22.8-28.2-49.3-43.4-78.7-49c-2.2-4.5-60.3,2.5-58.8,6c0.2,0.5-44.9,21.1-44.9,21.1
			c-0.9,0.3-25.5,7.7-21.3,5.5C1153,250.7,1153,293.2,1153,293.2z"/>
		<path class="st5" d="M1211.7,234.2c-0.5-3.3,12.9-9.9,24.6-12.5c9.1-2,17.3-1.5,33.6-0.3c7.7,0.6,15.1,1.1,15.2,2.3
			c0.1,1.7-14.7,2.5-36.9,9.3c-4.3,1.3-4.3,1.5-6.6,2C1227.7,238.5,1212.2,237.6,1211.7,234.2z"/>
	</g>
	<g id="structure">
		<path class="st0" d="M926.6,886.3c-2.1-26.8-1.8-48.3-1.1-62.9c1.3-28.6,4.2-37.3,1.6-58.1c-0.7-5.4-1.3-8.5-11.1-46.1
			c-11.8-45.6-11.6-43.9-12-46.5c-5.8-35.5,2.9-45.8-3.5-74.8c-3.2-14.8-7.4-20.9-17.7-41.8c-15.1-30.7-36.3-74-47.8-122.8
			c-8.6-36.3-4-42.5-14.7-75.6c-8.4-25.8-18.8-45.3-26.5-58.1"/>
		<path class="st0" d="M1045.4,885.9c0.7-12.3,1.8-31.6,2.4-55.5c1.7-65.5-1.9-79.2,4.4-111.6c6.7-34.5,12.9-29.8,17-60.4
			c6.2-45.7-7.3-57.4,3.2-85.3c7.6-20.4,16.3-17.8,37.9-53.5c6.5-10.8,14.5-24,20.8-41.1c17-45.9,3.9-70.8,17.7-120.1
			c3.3-11.8,9.4-29.6,21.5-49.6"/>
		<path class="st6" d="M1142,443.1c2.6-0.8,5.2,7.7,10.2,15.4c7.6,11.8,17.3,16.6,25.3,20.6c23.6,11.8,43.7,3.6,45.7,12.5
			c0.9,3.8-2.6,6.7-2.8,16.3c-0.2,7.4,3.3,10.4,1.9,13.4c-1.9,4-9.6,2.7-15.6,1.5c-17.2-3.5-25.8-5.3-34.8-9.9
			c-13.4-6.8-37.9-19.3-37.9-35.4c0-4.2,1.7-4.4,4.3-18.3C1140.2,448.5,1140.1,443.7,1142,443.1z"/>
		<path class="st6" d="M751.7,490.2c3.2-3.6,7.1-2.7,12.8-2.9c13.8-0.4,23.9-7.3,36.7-14.5c8.9-5.1,13.4-7.6,17-11.9
			c10.1-12,12.7-29,14.2-28.5c0.7,0.3-0.3,4.1,0.7,9.9c0.9,5.4,2.9,8.9,4,11c3.5,6.8,7.4,18.5,7.1,25.3
			c-0.4,11.1-13.5,18.3-39.3,33.4c-3.1,1.8-17.4,10.1-36.7,12.5c-6.5,0.8-10.7,0.6-14.2-2.6C746.6,514.9,745.8,497,751.7,490.2z"/>
		<path class="st0" d="M802.9,242c46.5,17.1,111.3-20.4,184.8-27.9c65.9,5.9,119.2,45.2,167.1,34.9"/>
		<path class="st4" d="M1154.3,295.5c-3.8,1-5.8,5.4-8.8,12.2c-9.5,21.6-14.2,32.5-14.5,33.1c-6.5,20.5-9.7,37.5-11.1,44.8
			c-8,41.9-4.8,49.2-11.8,75.6c-3,11.3-7.9,29.3-19.2,48.2c-19.9,33.7-37.8,33.6-43.6,60.7c-2.2,10.4-2.1,22-1.9,38.1
			c0.1,11.1,0.7,10.6,1.9,32.3c2,35.9,1.1,49.5-5.7,61c-1.1,1.9-1,1.3-2.8,4.3c-6.2,10-13.6,21.9-13.7,36c0,3-0.1,8.1,2.1,13.4
			c1,2.4,1.7,3,3.1,6.1c1.3,2.9,3.2,7.1,3.3,11.3c0.3,8.1-6.2,9.7-7.1,20.6c-0.2,2-0.4,5.1,0.2,9c1.6,9.2,6.4,11.8,6.2,18.8
			c-0.1,3.6-1.3,3-2.2,7.9c-1.4,8,1.7,10.8,2.6,25c0.3,4.5,0.2,7.6-0.9,10.7c-1.3,3.6-2.4,3.2-3.5,6.4c-2.1,5.9,1,8.9-0.9,15.1
			c-1.3,4.1-3.2,4.3-3.3,7.6c-0.2,3.6,1.8,7.4,4.5,9c4.6,2.7,10.3-1.8,13-5.8c3.1-4.6,3.5-10,3.5-11.9c1.5-27.9,2.2-41.8,1.7-59.6
			c-0.6-19.3,1-12.4,1.2-47.7c0.1-17.5-0.3-29.9,2.1-48.2c1.3-10.1,2.9-17.6,3.3-19.5c5.4-25.3,10.9-29.7,14.7-47.7
			c2.7-12.7,2.4-22.4,1.9-41.8c-0.7-25.3-4.1-32.1,0.2-45.6c3.9-12.2,11.6-21.7,12.6-23c4.7-5.8,7.1-6.6,12.6-12.5
			c4.3-4.7,8-9.8,15.4-23c3.9-6.9,14.1-25.2,19.7-38.9c15.5-38.4,3.9-62.5,14.7-109.6c3.1-13.4,7.8-28.1,15.6-42.7
			c2.1-3.9,4-7,5.2-9c0.2-0.9,0.6-2.4,1.4-4.1c1.3-2.8,2.2-3.4,2.4-4.5C1169.2,303.8,1161,293.7,1154.3,295.5z"/>
		<path class="st7" d="M1077.1-3093.8c11.4,0.6,22.9,1.2,34.3,1.8"/>
		<path class="st2" d="M995.3,726.4c14.6,4.4,27.2-1.8,38-18.7c13.5-7.1,14.3-50.4,10-108.2c-1-29,3.4-52.4,21.9-60.6
			c29.9-31,46.7-79.8,52.8-142.9c5.2-38.5,16.5-72.5,33.6-102.3l1.8-43c-26.7,4.4-55.4-2.6-84.9-13.9c-26.1-9.2-53.1-15.8-81-20.4
			c-36,6.2-71.5,14.4-106.4,24.4c-26.5,8.8-52.7,10.5-78.3,3.9l-7.7,54.5c23.9,37.8,35.5,74.7,37.6,111.1
			c10,49.7,25.4,93.9,46.4,132.5c9,15.9,16.4,32,22.3,48.4c4.2,12.6,4.8,25.7,3.6,38.9c-0.8,21.1-0.3,40.1,4.1,52.7l16.4,62.7
			c4,17,5.7,33.2,4,48.5c-2.2,26.4-2.7,53.2-1.4,80.4c1.8,24.4,8,33.5,20.3,21.6c-2.1-6.4-3-12.4-2-17.8c-2.4-5.1-3.7-10.5-3.7-16.4
			c-0.9-7.5-1.2-14.5-0.1-20.2c-2.4-5-3.6-10.2-3-15.6c0.3-8,2-14.8,5.2-20.4c-4.7-8.7-5.4-16-2.1-21.9c6.1-5,6.6-11.8,1.2-20.6
			c-1.5-6.9-1.6-13.3-0.1-19.3c3.3-7.7,1.9-14.5-3.7-20.5c-2.4-7.5-3.3-13.6-0.4-16.4c2.7-0.7,4.7,0.4,6.4,3
			c10.1,13.4,21.4,21.4,34.7,19.9c4.2-17.2,3.9-32.7-1.9-46.3c-4.6-12.6-6-24-4-34.1c2.1-21.9-1-38.5-12.4-46.7
			c-6.1-3.7-10.5-8.2-11.7-14.1c2.4-13.3,3-25.5-8.4-29.8c-6.8-1.8-10.1-6.9-11.4-14c0.7-9.4-2.5-17-9.5-22.9
			c-1-2.6-1.3-5.4-1.3-8.4c1.1-8-2.2-15.6-8.1-23c-1.9-9.4-3.1-17.6-3.1-24.4c-2.9-11.4-7.4-22.7-13.1-34
			c-7.7-9.7-11.7-18.8-10.1-26.9c1.3-8.2-3.7-18.5-10.5-29.5c-0.1-16.8-1.6-32.4-7.2-44.4l-18.2-27.7c-0.4-4,0.8-6.1,4.5-5.3
			c9.5,6.7,21.8,8.8,37.3,5.5c8.6,12.6,18.3,12,28.8,1.6c9.9,6,19.9,4.8,29.8-2.4c12.5,8.7,24.9,6.8,37.1-4.8
			c15.2,5.4,29.4,7.1,41.4,1.5c31,4.1,59.5,6.3,79.8,2.2c2.3,3.4,7.9,1.8,14.6-1.4c2.6,4.5,2.3,8.9,0,13.2
			c-3.8,9-8.7,14.7-14.6,16.8c-8.1,23.8-18,49.4-14.7,61.2c-10.2,14-17,27.9-16.3,41.7c-8.3,8.6-11.9,21.4-13.1,36.3
			c-11.6,5.8-13.8,20.5-13.7,37.4c-10.3,4.4-16.1,15.9-19.8,30.9c-9.6,6.8-13.6,17.1-11.9,31.1c-6.6,8.3-11.1,19.3-14,32.6
			c-6.6,7.7-11.1,17.6-13.5,29.5c-2,9.2-3,18-2.5,26.3c1.3,6.9,3.2,14.5,5.5,22.6c1.8,8.4,2.8,16.3,2.4,23.2L995.3,726.4z"/>
	</g>
	<g id="vagina">
		<path class="st0" d="M982.1,732.3c-6.5,0.8-14.8,0.5-22.7-4.6c-10.8-7-16.4-20.1-19.2-18.3c-1.5,1-1,5.9-0.5,8.4
			c1.3,6.1,4.6,6.9,6.6,11.3c4.3,9.1-4.4,16.4-1.7,30.5c1.7,8.8,5.9,10.2,5,16.6c-1,6.9-6.3,6.9-7.6,13.7c-1.7,8.7,6.2,12.7,5.2,23
			c-0.8,8.1-5.9,8.1-6.4,16.3c-0.5,8,4.4,9.7,5,20.4c0.4,7.5-1.9,7.4-1.4,15.1c0.5,7.1,2.5,7.9,4.5,19.2c1.7,9.7,0.9,12.5,0.2,14
			c-1.6,3.6-4.7,6-7.6,6.4c-5.8,0.9-12.7-6.1-15.4-17.7"/>
		<path class="st0" d="M993.2,728.8c6.2,2.1,14.2,3.2,22.1-0.4c12-5.5,18.7-19.6,19.3-19c0.7,0.7-15.3,16.2-14.7,35.3
			c0.5,15.4,11.5,22,8.5,34.9c-1.9,8.1-7,8.7-7.4,16.5c-0.5,9.4,6.9,11.4,7.6,22.1c0.6,10.1-5.7,12.3-4.9,22.9
			c0.7,9.3,5.9,10.1,5.8,18.2c-0.1,8.7-6,9.8-8.8,21.5c-0.4,1.5-4,17.2,2.5,23.2c4,3.7,10.1,2.4,14-0.4c4.9-3.4,7.8-10.2,7.7-17.6"
			/>
		<path class="st8" d="M941.5,711.9c1.4-1.2,6.2,10.6,16.9,17.6c3.5,2.3,14.7,10.2,23.6,5.1c4.1-2.3,8-7.6,9.7-6.1
			c0.7,0.6,0.3,1.5,0.9,2.7c1.7,3.8,9.1,2.6,15.3,1.8c7.7-1.1,11.5-6.9,13.1-5.1c1.6,1.8-2.7,7.2-2.9,15.6
			c-0.2,11.6,7.5,16.6,5.8,20.8c-2.3,5.7-17.1-5.3-38.1-2c-4.9,0.8-18.9,3.6-24.7,3.8c-0.9,0-2.7,0-5.1,0.6
			c-3.8,0.9-4.3,2.1-5.6,1.8c-3.4-1-5.9-11.9-3.9-21.5c1.2-6.1,3.9-7.2,3.4-11.9c-0.5-5.1-3.8-6.4-6.9-15.1
			C942.5,718.2,940.5,712.6,941.5,711.9z"/>
		<path class="st8" d="M951.4,770.1c8.5-1.8,20.3-4.1,34.4-5.8c31.8-3.9,36.3-0.5,38.4,3.1c4.4,7.6,1.7,22.9-5.2,28.5
			c-7.9,6.4-15-4.8-32.2-4.3c-21,0.5-33.6,17.7-39.3,10.9c-2.2-2.7-3.1-8.6-1.8-12.8c1-3.2,2.8-3.9,4.4-7.4
			C952,777.9,951.9,773.3,951.4,770.1z"/>
		<path class="st8" d="M1018.6,798.7c6.7,5,10.1,18.9,6.3,25.2c-4.2,7-14.3-0.6-33,0c-28.1,1-41.1,19.3-47.8,11.4
			c-5.5-6.5-2.4-25.6,4.1-30c0.3-0.2,0.4-0.2,6.8-3.3c6-2.9,7.4-3.6,8.1-3.9c7.8-3.6,17.4-3.8,22.1-3.9c8.1-0.1,6,1.1,22.1,2.3
			C1014.5,797.1,1016.2,796.9,1018.6,798.7z"/>
		<path class="st8" d="M946.2,839.2c-5.8,4.1-2.1,32.1,3.5,32.8c1.7,0.3,2.9-2.3,5-4.9c2.3-2.9,6.5-7,30.8-10.5
			c26.7-3.8,31.5-0.2,34,2.7c2.5,2.9,3.1,5.7,4.6,5.5c4.7-0.8,9.1-30.2,0.7-37.2c-2.5-2.1-4-0.4-13.7,0c-12.8,0.5-13.5-2.3-23.7-1.2
			c-5,0.5-9.2,1.9-17.8,4.6c-1.5,0.5-5.7,3.8-11.4,5.2c-0.3,0.1-0.4,0.1-2.6,0.6C949.6,838.3,946.5,839,946.2,839.2z"/>
		<path class="st8" d="M952.4,896.2c2.6,0.8,3.8-4.3,9.5-7.9c4.7-2.9,7-1.4,24.9-0.3c12.5,0.8,13.5,0.1,17.8,1.8
			c7.1,2.6,8.9,6.1,12.1,4.9c6-2.1,10.8-18.2,6.9-27.6c-8.8-21.3-66.8-18-74.8,6.1C945.7,881.8,948.5,895,952.4,896.2z"/>
		<path class="st8" d="M952.4,897.7c2.6,0.8,3.8-4.3,9.5-7.9c4.7-2.9,7-1.4,24.9-0.3c12.5,0.8,13.5,0.1,17.8,1.8
			c7.1,2.6,8.9,6.1,12.1,4.9c6-2.1,10.8-18.2,6.9-27.6c-8.8-21.3-66.8-18-74.8,6.1C945.7,883.3,948.5,896.5,952.4,897.7z"/>
	</g>
	<g id="cervix">
		<path class="st0" d="M975.8,618.9c1.4,13.3,1.5,24,1.3,31.4c-0.2,7.7-0.7,12.2,0.3,19.4c1.4,9.9,4.5,15.2,6.3,20.5
			c2.8,8,4.6,20.8-0.9,41.1"/>
		<path class="st0" d="M988.4,636.9c-0.8,4.9-1.6,12.3-0.8,21c0.9,9.5,3.4,16.1,4.3,18.7c3.1,9.2,5.4,24.4,1.3,50.8"/>
		<path class="st9" d="M978.2,624.4c0.3-0.1,0.6,3.6,2.9,7.3c2.3,3.7,4.3,3.5,5.4,6.3c1.1,2.8-0.2,5.1-1,9.5c-1.5,8.1,0.3,15.3,2,22
			c1.3,5.1,2.1,5.9,3.4,12.1c0.8,3.9,1.2,7.1,1.5,9.9c1.9,18.3,2.9,27.5-1.1,34.4c-2.2,3.8-5.6,6.7-6.5,5.9c-1.2-1,2.1-6.9,3.4-16
			c1.6-11.6-1.1-21.7-2.8-28.1c-2.9-10.6-4.9-10.4-6-18.9c-0.8-6.2-0.5-12.7-0.3-17.7c0.3-7.1,0.8-8.1,0.6-13.4
			C979.2,630.3,977.8,624.5,978.2,624.4z"/>
	</g>
	<g id="ovaries">
		<path class="st10" d="M1317.3,437.7c-3.3-3.1-2.3-14.2,2.1-21.2c5.3-8.4,13.9-8.3,13.7-10.7c-0.2-2.9-12.3-4.5-23.4-4
			c-13.3,0.6-21,0.9-27.7,7.5c-7.8,7.7-5.8,15.7-12.6,18.9c-7.6,3.6-13.1-5.1-20.6-0.6c-2.9,1.8-4.7,5.2-8.3,11.9
			c-2.4,4.6-5.7,10.8-6.9,19.2c-1.4,9.6,1.7,10.4,0.7,18.6c-1.6,13.9-10.8,15.5-11.2,26.8c-0.4,10.4,7,18.8,9.3,21.5
			c6.5,7.3,11.1,6.3,22,11.9c16.9,8.8,15.4,17.4,27,20.1c13.1,3,24.7-4.9,25.6-5.5c6.7-4.7,5.2-7.3,9.9-9c9-3.3,15.6,5.4,27.5,0.6
			c1.1-0.5,1.7-0.7,2.4-1.2c8-5.4,4.7-20.2,9-35.4c4.9-17.3,13.7-14.6,17.5-30.5c4.5-18.6-3.8-38.1-6.6-37.8
			c-2.3,0.3-0.2,13-7.6,21.8c-4.5,5.4-11.9,8.6-14.9,5.5c-1.6-1.7-1.3-4.5-0.5-17.1c1.3-18.5,1.3-22.3-0.2-23.2
			c-1.9-1.2-4,2.9-11.1,7.6C1327.8,436.1,1320.6,440.7,1317.3,437.7z"/>
		<path class="st10" d="M646.1,404.6c2.1-9.9,49.1-9.8,54.9,9.3c1.1,3.7,0.9,8.7,4.4,12c3.5,3.3,7.3,1.5,13.3,2.3
			c6.3,0.8,13.2,4.3,17,8.9c8.2,9.7-0.1,21.3,6.6,42.6c4.5,14.2,10.3,15.8,10.1,26.7c-0.1,8.4-3.6,16.6-8.5,21.7
			c-5.2,5.3-9,4-17.4,7.4c-15.2,6.1-13.8,14.7-27.2,20.1c-8.4,3.4-24.3,6.2-32.5-3.5c-3.5-4.1-4-8.6-8.2-10.1
			c-4.9-1.7-7.7,3.1-14.5,3.9c-7.2,0.8-12.9-3.5-14.5-4.6c-8.9-6.6-4.1-18.4-12.3-36.8c-5.7-12.8-9.4-10.8-13.6-22.5
			c-6.1-17-3.2-35-1.3-35.3c1.3-0.2,1.4,7.9,7.3,15.5c3.5,4.6,10,10.2,13.9,7.7c0.7-0.4,2.8-2.1,3.5-14.3c0.9-16.9-2.4-26.3,0-27.9
			c1.9-1.3,4.7,4.2,12.6,9.7c2.2,1.5,14.5,10,18.6,5.4c3.1-3.5,0.5-12.9-0.3-15.9C653.9,412.1,645.2,409.1,646.1,404.6z"/>
	</g>
	<g id="uterus">
		<path class="st8" d="M851.7,301.2c1.2-2.2,14.7,3.2,22.8,9.6c1.4,1.1,3.4,2.8,6.2,2.9c4.2,0.1,5.8-3.4,8.6-2.5
			c2.2,0.7,2.3,3.2,5.4,7.7c2,3.1,4.9,7.4,8.8,8.9c4.4,1.7,8.7-0.8,14.2-3.9c6.8-3.8,6.9-6.3,10.7-6.6c5.4-0.5,6.7,4.2,11.7,3.5
			c5.3-0.8,5.4-6.2,10.1-7.4c7.1-1.7,10.9,9.6,18.9,9.7c3.2,0,7.6-1.7,12.9-9.3c4.3-4.1,7.5-4.6,9.8-4.3c6.2,1,8.3,9.3,13.9,8.9
			c2.5-0.2,2.5-1.9,6.9-4.6c1.8-1.1,11.4-7,17.4-2.7c4.5,3.2,2.9,9,6.9,11.2c4.2,2.2,6.1-3.6,14.5-4.3c7.2-0.6,11.3,3.3,15.5-0.4
			c1.5-1.3,2.1-2.8,3.8-3.1c3.2-0.7,6,3.3,7.3,4.6c9.3,9.3,40.2-22,44.5-16.7c2.2,2.6-1.9,14.8-9.2,22.1
			c-7.2,7.2-12.1,4.1-16.4,10.9c-5.1,7.9,0.1,14.7-5,24.4c-4.5,8.5-10.2,6.4-12.6,14c-2.7,8.5,3.6,14,0.6,22.1c-2.6,7-8,4.9-11.1,12
			c-3.9,9.1,2.9,17.6-1.3,24c-3.1,4.7-7.7,1.5-10.7,6.2c-4.4,6.9,3.2,17.6-0.9,24.4c-3.4,5.5-9.8,1.1-13.3,6.2
			c-5.2,7.8,6.6,23.2,1.3,33.3c-3.2,6.1-8.5,2.3-13.6,9.7c-5.4,7.9-1.3,14.8-7.3,22.5c-3.8,4.8-7,4.1-9.5,9.7
			c-2.1,4.8-0.3,6.8-1.9,11.6c-2.9,9.1-10.6,6.7-13.9,14.7c-3.3,8.1,3.2,14.3-0.6,25.2c-1.5,4.4-2.8,4.1-5,8.5
			c-7.3,14.5-0.5,31.8-3.2,32.9c-2.3,1-10.2-10.5-12.6-25.4c-2-12.2,1.5-16.3-2.2-24.2c-3.7-8-8.8-6.9-11.7-15.5
			c-2.6-7.5,0.5-10.9-2.5-16.3c-3.5-6.3-8.5-3.4-12.9-9.7c-4-5.6-1-9.4-4.7-19.4c-3.7-9.8-7.4-8.4-10.1-17.1
			c-3.2-10,1.4-13.5-1.9-22.5c-3.5-9.6-9.4-7.8-11.7-16.7c-2.1-8.4,2.2-13.7-1.3-20.1c-2.2-4.1-4.4-2.7-6.6-7
			c-3.3-6.4,0.4-11.5-2.5-18.6c-2.3-5.6-5.1-3.8-7.6-8.9c-4.3-9,3.2-17.1-0.7-26.7c-2.7-6.7-7.3-5-9.4-12c-1.9-6.5,1.4-10-0.6-17.4
			c-1.2-4.3-2.6-4.3-6.3-10.5c-6.8-11.4-4.3-15.6-10.1-23.2c-3.6-4.8-4.6-3.2-11.7-10.5C858.1,311.5,850.6,303.1,851.7,301.2z"/>
		<path class="st11" d="M991.5,630.3c-1.1-0.1-2.8-10.3,0.5-20.1c2.3-7,4.7-6.5,6.8-12.8c3.7-11.2-2.5-16.7,1.1-25
			c3.4-7.9,10.3-5.7,13.9-14.9c2.1-5.3,0-6.4,2.2-12c3.1-7.9,7.9-7.2,11.5-15.1c2.8-6.1,0.4-7.6,2.8-13.4c4.4-10.4,13-7.7,16.3-15.7
			c4.2-10.6-7.2-24.2-2.7-30c2.5-3.3,7.5-0.5,12.3-6.2c0.6-0.7,1.8-2.2,2.7-4.5c2.9-7.5-2.1-12.6-0.3-18.8c2-6.7,9-4.4,12.1-11.7
			c2.9-6.8-2.3-11,0-19.5c2.6-9.4,10.2-8.8,12-17.9c1.2-6.4-2-8.9-1.2-15.4c1.1-8.6,7.9-7.5,12.3-17.1c4.5-9.7,0.6-16.1,6-23.4
			c2.9-3.9,7.2-6.4,8.5-5.1c1.2,1.2-0.9,4.9-3.6,15.2c-2.7,10.3-2.1,11.8-4.5,17.6c-2.9,7.2-4.3,5.9-6.2,11.3
			c-3.9,10.9,1.3,16.7-2.5,25.1c-3.2,6.9-7.3,4.1-10.9,11.3c-4,8.1,0.1,13.3-4.1,22.8c-2.9,6.5-5.2,4.6-8,11
			c-4.1,9.4,0,14.9-4.1,22.8c-3.3,6.3-6.5,3.9-9.6,9.8c-4.9,9.3,2,17.6-2.5,26.5c-3.4,6.7-8.1,3.6-13.5,11.6
			c-4.8,7.2-1.9,11-6.9,20.1c-5,9.2-9.3,7.8-11.3,15.3c-1.9,7,1.3,10.2-1.3,17.1c-1.9,5-3.9,4.1-7.3,9.8c-4.5,7.6-2.1,11-6.3,20.2
			c-3.4,7.4-5.6,6.4-9.2,14.3C992.1,623,992.4,630.4,991.5,630.3z"/>
		<path class="st12" d="M872.6,306.6c-0.2,1.4,4.1,4,8.4,4.3c5.2,0.4,6.2-2.9,9.5-1.8c4.4,1.4,4,7.8,10.6,13.7
			c2.1,1.8,3.3,2.9,5.2,3.5c8.3,2.3,12.7-11.1,22.9-10.9c4.8,0.1,5.1,3.1,10.1,2.5c6.4-0.8,7.4-5.9,12.6-6.8
			c7.4-1.2,9.1,8.8,16.8,9.3c9.9,0.6,13.9-15.4,22.7-13.5c5.5,1.2,5.9,7.8,12.2,8.4c3.5,0.3,4.1-1.6,12.1-4.7
			c7.2-2.8,10.9-4.2,13.9-2.5c5,2.8,4.1,10.1,8.6,11.7c3.7,1.4,5-3.4,11.8-4.6c6.9-1.2,8.7,3.3,14.3,1c4.1-1.6,4.8-4.6,8.1-4.5
			c3.4,0.1,3.9,3.5,7.5,5.4c5.5,3,11.8-0.6,19.1-4.7c4.7-2.6,11.3-6.4,10.8-8.7c-0.8-3.8-20,4.6-48.5,1c-15.4-2-21.9-6.1-35.8-3.2
			c-6.2,1.3-9.1,3.1-15.9,2.9c-12.8-0.3-15-6.7-23.9-4.9c-10,1.9-10.6,10.7-19.4,10.5c-7.7-0.2-9.2-7-16.8-6.1
			c-6.5,0.8-6.9,5.9-13.7,6.7c-7.4,0.8-8.8-5-15.6-4.1c-7.2,1-8.6,7.8-14.7,8.1c-3.2,0.2-7.8-1.4-13.7-9.7
			C876.4,304.3,872.7,305.4,872.6,306.6z"/>
		<path class="st13" d="M858.7,315.5c6.6,2.8,10.3,6.9,12.3,10.1c4.7,7.1,3.1,12.1,8.5,22.1c4.3,7.9,6.1,6.4,8.2,12.4
			c3.1,9-0.6,13.5,2.8,20.9c3,6.4,6.5,4.7,8.5,10.5c2.9,7.9-3.1,12.9-0.6,22.1c1.7,6.4,4.9,4.9,7.6,12.8c2.6,7.5,0.4,10.9,3.5,17.8
			c2.4,5.3,4,4,6.3,8.9c4.2,8.8-0.3,14.7,3.5,23.2c2.9,6.6,6.1,4.2,9.2,10.9c4.2,8.9-0.9,14.8,3.2,25.2c2.4,6.2,4.4,4.5,7.6,11.6
			c4.7,10.4,1.2,15.5,5.7,22.1c4.2,6.2,8.3,3,12.3,9.3c4,6.2,0.9,10.9,4.7,19.8c3.2,7.6,6.9,5.6,9.8,12.8c1.4,3.6,1.1,5.4,2.4,18
			c0.9,8.7,2.3,12.5,1.4,13c-1.2,0.7-3.6-6.9-10.4-14.7c-6.7-7.8-9.1-5.9-11.8-11c-5.1-9.8,2.6-18.4-1.9-27.9
			c-4.5-9.4-14-5.1-18.2-15.1c-3.1-7.2,0.7-12.2-3.5-19.8c-3.1-5.6-6-4.4-7.8-9.6c-2.2-6.2,1.2-10.4-1.2-17.4
			c-1.2-3.8-3.2-5.5-4.7-7.6c-8-10.3-2.6-21.4-8.8-41c-4-12.8-11.6-24.5-12.1-25.3c-4-6.2-6.9-9.1-8.3-15.7
			c-1.6-7.8,1.2-9.8-0.3-17.3c-1.8-8.6-6.2-9.5-9.4-18.2c-3.1-8.3-1.6-14.8-1.7-21.5C875.4,347.2,872.4,333.2,858.7,315.5z"/>
	</g>
	<path id="indicator_1_" class="st14" d="M987.5,501.9c11.5,2.6,24.5,14.5,24.1,29.6c-0.4,16.7-17,29.8-31.5,27.3
		c-15.3-2.7-28.1-22.6-24.1-38.7C959.5,505.7,975.3,499.2,987.5,501.9z"/>
</g>
</svg>
