<?xml version="1.0" encoding="utf-8"?>
<!-- Generator: Adobe Illustrator 25.0.0, SVG Export Plug-In . SVG Version: 6.00 Build 0)  -->
<svg version="1.1" id="Layer_1" xmlns="http://www.w3.org/2000/svg" xmlns:xlink="http://www.w3.org/1999/xlink" x="0px" y="0px"
	 viewBox="0 0 1920 1080" style="enable-background:new 0 0 1920 1080;" xml:space="preserve">
<style type="text/css">
	.st0{fill:none;stroke:#671837;stroke-width:2;stroke-miterlimit:10;}
	.st1{fill:#E66E91;stroke:#E66E91;stroke-miterlimit:10;}
	.st2{fill:#F695B0;stroke:#F695B0;stroke-width:0.75;stroke-miterlimit:10;}
	.st3{fill:#FAFAFD;stroke:#FAFAFD;stroke-miterlimit:10;}
	.st4{fill:#E1748D;stroke:#E1748D;stroke-miterlimit:10;}
	.st5{fill:#FFFFFF;stroke:#FFFFFF;stroke-width:0.75;stroke-miterlimit:10;}
</style>
<g>
	<path class="st0" d="M1057.38,489.88c-4.14-6.75-11.46-16.94-22.7-25.2c-15.01-11.04-28.73-12.51-34.31-13.04
		c-2.74-0.26-52.39-3.93-75.21,41.32c-13.88,27.5-13.97,65.42-5.01,72c5.19,3.83,13.57-2.76,23.55,4.98
		c0.73,0.56,4.56,3.53,4.16,5.92c-0.67,3.87-11.74,1.49-13.16,6.43c-1.01,3.49,3.94,6.61,7.81,16.72c0.26,0.68,5.53,14.3,2.67,17.49
		c-2.34,2.6-9.35-2.62-11.97-4.9c-2.65-2.3-3.18-3.63-6.64-6.43c-3.97-3.22-6.4-5.2-7.92-4.11c-1.89,1.35-0.96,6.49-0.5,19.54
		c0.6,17-0.57,18.68-1.38,19.16c-1.88,1.15-4.79-2.18-8.42-6.31c-2.85-3.26-6.45-7.35-8.31-14.14c-1.69-6.14-1.05-11.14-1.49-11.18
		c-1.04-0.08-1.05,28.75-5.53,29.7c-2.79,0.6-7.71-9.45-8.51-20.07c-0.9-11.83,4.02-15.07,4.95-28.67
		c0.74-10.84-2.06-13.4-4.42-30.3c-0.17-1.23-2.34-17.29-1.58-34.98c0.42-9.79,1.33-30.89,10.82-51.78
		c7.91-17.45,18.16-26.76,26.65-34.29c27.89-24.76,56.59-27.88,64.12-28.47c40.43-3.14,70.14,20.11,80.36,28.97"/>
	<path class="st1" d="M1058.25,488.08c1.05-1.33-19.32-38.3-42.48-43.9c-1.49-0.36-6.6-2.05-13.26-2.05c0,0-11.88-1.05-22.56,0.52
		c-4.33,0.62-34.62,5.08-52.25,30.6c-19.64,28.45-15.29,71.04-15.54,70.98c-0.19-0.04-1.16-21.96,8.68-45.19
		c6.79-16.04,15.78-25.67,20.45-30.1c14.78-14,29.54-16.48,39.16-18.09c8.56-1.43,26.19-4.11,45.23,5.78
		C1047.67,468.12,1057.47,489.05,1058.25,488.08z"/>
	<path class="st1" d="M931.5,431.94c2.28,2.74-29.33,33.65-38,75.11c-12.78,61.07,28.16,126.34,22.56,130.15
		c-2.06,1.41-9.09-6.51-11.81-13.12c-1.57-3.81-2.36-5.72-2.64-8.24c-0.22-1.95-0.2-4.15-1.32-6.77c-0.34-0.79-1.15-2.7-1.98-2.58
		c-0.84,0.12-1.3,2.18-1.64,3.95c-1.26,6.45-1.09,10.8-1.58,15.69c-0.48,4.69-0.95,9.37-2.31,9.69c-2,0.46-5.8-8.5-6.06-17.23
		c-0.09-3.16,0.26-6.19,0.53-8.32c0.6-4.96,1.46-7.74,2.05-10.46c1.38-6.39,1.12-11.6,0.79-18.25c-0.47-9.55-2.25-16.5-2.9-19.28
		c-5.12-21.86-1.97-46.92-1.38-51.52c1.1-8.8,3.53-26.8,13.6-44.75c7.13-12.73,14.93-19.76,25.74-29.5
		C930.56,431.57,931.27,431.63,931.5,431.94z"/>
	<path class="st2" d="M1058.98,485.99c-11.64-20.55-24.92-35.74-40.74-42.31c-15.41-3.32-31.97-3.3-48.99,0
		c-23.8,5.54-40.08,20.81-50.37,43.86c-4.37,12.53-6.84,26.25-8.08,40.76c0.65,12.19,1.8,22.32,3.5,30.18
		c3.53,8.12,8.06,12.25,14.25,9.69c8,0.1,14.23,2.16,17.81,7.11c-5.13,0.44-9.3,2.16-12.6,4.98c-0.99,4.55,0.33,8.28,3.3,11.4
		c4.47,9.17,6.96,17.04,7.05,23.31c-5.91-1.87-11.63-6.45-17.29-12.01c-3.55-3.28-6.64-4.13-9.44-3.34c-1.43,3-1.75,6.65-1.19,10.8
		l0.53,21.01l-9.77-26.31c-7.21-17.51-12.16-34.13-14.12-49.56c-0.99-20.31-1.09-38.64,1.78-50.65
		c5.88-19.06,13.58-36.08,23.55-50.49c5.18-12.25,11.78-21.78,20.45-27.44c21.61-11.97,43.23-17.69,64.85-15.43
		c15.8,3.3,30.68,8.64,44.53,16.34l18.02,11.44L1058.98,485.99z"/>
	<path class="st3" d="M997.39,417.79c-4.12-9.81-41.55,2.96-41.21,9.17c0.12,2.28,5.35,3.49,6.6,3.77
		c7.63,1.75,10.17-3.47,19.95-5.06c7.91-1.29,12.79,1.07,14.51-2.74C997.92,421.48,998.03,419.3,997.39,417.79z"/>
	<path class="st0" d="M1189.53,497.43c4.4-7.47,12.78-19.64,26.16-28.55c16.99-11.28,32.45-10.92,43.05-10.68
		c10.68,0.26,26.6,0.62,43.47,13.16c4.78,3.55,17.01,12.89,25.6,31.89c10.09,22.3,10.34,47.26,5.53,53.83
		c-3.05,4.19-6.87,5.82-6.87,5.82c-2.33,1.01-4.2,0.99-5.01,1.03c-8.57,0.34-19.35,10.9-18.6,13.38c0.36,1.21,3.29,0.04,13.55,0.79
		c1.84,0.14,4.81,0.4,7.35,3.06c1.12,1.17,2.19,2.28,2.25,3.81c0.14,3.87-6.42,4.63-10.84,11.71c-3.49,5.6-4.62,13.52-3.02,15.05
		c0.98,0.95,2.73-0.79,11.09-6.69c7.1-5.02,8.19-5.42,9.21-4.82c3.09,1.81,2.88,11.14,2.73,19.16c-0.25,11.44-1.95,16.28-0.25,17.69
		c2.06,1.69,7.43-2.98,10.68-8.62c4.51-7.78,3.92-15.49,5.74-15.69c3.07-0.34,5.38,21.62,9.5,21.6c2.43,0,4.25-7.66,4.62-9.23
		c3.41-14.43-0.6-24.56-1.84-37.33c-1.66-16.94,3.4-19.72,5.09-41.02c0,0,2.03-25.75-4.74-51.44
		c-11.33-42.89-43.15-63.46-49.88-67.55c-32.51-19.78-71.29-14.79-90.51-3.42c-4.37,2.58-21.86,13.84-46.93,19.74
		c-0.71,0.16-1.3,0.3-1.69,0.38"/>
	<path class="st4" d="M1173.67,484.7c4.78-3.83,11.97-9.47,20.87-15.92c1.58-1.15,17.36-12.55,24.95-16.98
		c32.14-18.76,70.51-1.79,72.17-1.03c16.19,7.45,34.5,15.05,44.08,39.08c10.87,27.3,2.96,56.19,0.99,62.84
		c4.6-23.17-3.26-45.19-16.53-66.75c-14-17.27-29.57-26.67-46.48-29.35c-11.94-1.67-24.39-1.11-37.21,1.03
		c-13.01,4.98-24.26,11.3-33.64,19.04l-13.98,18.31L1173.67,484.7z"/>
	<path class="st4" d="M1347.61,462.2c0.53,0.46,6.82,51.31,7.32,83.33c0.39,24.08-0.76,45.87-2.57,64.81
		c3.81,5.24,6.65,12.57,8.71,21.6c5.15-11.73,4.84-27.1,1.49-44.5c-0.17-13.18,0.9-24.8,3.86-34.07
		c1.12-22.24,0.19-43.42-5.24-62.23C1358.22,481.64,1347.09,461.73,1347.61,462.2z"/>
	<path class="st2" d="M1174.6,483.55c18.4-15.88,37.4-29.17,57.16-39.08c17.69-4.05,34.87-3.99,51.33,1.53
		c14.03,4.37,26.92,11.71,38.85,21.54c11.53,16.56,19.19,31.35,19.41,42.77c0.54,14.79-1.24,29.54-4.53,44.24
		c-3.77,8.95-10.11,12.15-17.91,12.09c-4.82,2.03-9.26,5.3-13.46,9.27c14.34-2.18,20.74,1.01,21.97,7.72
		c-3.13,6.41-9.91,11.79-13.55,20.57c-4.59,12.67,8.2,0.89,17.72-6.31c1.91-1.57,3.72,0.62,5.24,11.91
		c0.56,9.13,0.5,17.71-0.59,25.36c3.84-3.04,7.16-6.93,10.09-11.42c0.98-5.64,2.65-10.21,5.05-13.38
		c2.43-21.96,3.55-43.17,2.67-63.28c-1.02-28.08-3.55-56.77-7.52-86.03c-19.04-24.92-41.24-38.44-65.81-43.34
		c-1.84-3.95-50.42,2.26-49.18,5.28c0.17,0.4-37.5,18.66-37.5,18.66c-0.76,0.26-21.32,6.81-17.81,4.9
		C1174.6,445.98,1174.6,483.55,1174.6,483.55z"/>
	<path class="st5" d="M1223.71,431.33c-0.39-2.92,10.74-8.72,20.59-11.06c7.64-1.81,14.47-1.31,28.11-0.26
		c6.47,0.5,12.64,0.99,12.67,2.05c0.05,1.49-12.25,2.18-30.87,8.24c-3.57,1.17-3.61,1.29-5.53,1.79
		C1237.04,435.14,1224.11,434.37,1223.71,431.33z"/>
	<path class="st0" d="M1057.38,489.88c-4.14-6.75-11.46-16.94-22.7-25.2c-15.01-11.04-28.73-12.51-34.31-13.04
		c-2.74-0.26-52.39-3.93-75.21,41.32c-13.88,27.5-13.97,65.42-5.01,72c5.19,3.83,13.57-2.76,23.55,4.98
		c0.73,0.56,4.56,3.53,4.16,5.92c-0.67,3.87-11.74,1.49-13.16,6.43c-1.01,3.49,3.94,6.61,7.81,16.72c0.26,0.68,5.53,14.3,2.67,17.49
		c-2.34,2.6-9.35-2.62-11.97-4.9c-2.65-2.3-3.18-3.63-6.64-6.43c-3.97-3.22-6.4-5.2-7.92-4.11c-1.89,1.35-0.96,6.49-0.5,19.54
		c0.6,17-0.57,18.68-1.38,19.16c-1.88,1.15-4.79-2.18-8.42-6.31c-2.85-3.26-6.45-7.35-8.31-14.14c-1.69-6.14-1.05-11.14-1.49-11.18
		c-1.04-0.08-1.05,28.75-5.53,29.7c-2.79,0.6-7.71-9.45-8.51-20.07c-0.9-11.83,4.02-15.07,4.95-28.67
		c0.74-10.84-2.06-13.4-4.42-30.3c-0.17-1.23-2.34-17.29-1.58-34.98c0.42-9.79,1.33-30.89,10.82-51.78
		c7.91-17.45,18.16-26.76,26.65-34.29c27.89-24.76,56.59-27.88,64.12-28.47c40.43-3.14,70.14,20.11,80.36,28.97"/>
	<path class="st1" d="M1058.25,488.08c1.05-1.33-19.32-38.3-42.48-43.9c-1.49-0.36-6.6-2.05-13.26-2.05c0,0-11.88-1.05-22.56,0.52
		c-4.33,0.62-34.62,5.08-52.25,30.6c-19.64,28.45-15.29,71.04-15.54,70.98c-0.19-0.04-1.16-21.96,8.68-45.19
		c6.79-16.04,15.78-25.67,20.45-30.1c14.78-14,29.54-16.48,39.16-18.09c8.56-1.43,26.19-4.11,45.23,5.78
		C1047.67,468.12,1057.47,489.05,1058.25,488.08z"/>
	<path class="st1" d="M931.5,431.94c2.28,2.74-29.33,33.65-38,75.11c-12.78,61.07,28.16,126.34,22.56,130.15
		c-2.06,1.41-9.09-6.51-11.81-13.12c-1.57-3.81-2.36-5.72-2.64-8.24c-0.22-1.95-0.2-4.15-1.32-6.77c-0.34-0.79-1.15-2.7-1.98-2.58
		c-0.84,0.12-1.3,2.18-1.64,3.95c-1.26,6.45-1.09,10.8-1.58,15.69c-0.48,4.69-0.95,9.37-2.31,9.69c-2,0.46-5.8-8.5-6.06-17.23
		c-0.09-3.16,0.26-6.19,0.53-8.32c0.6-4.96,1.46-7.74,2.05-10.46c1.38-6.39,1.12-11.6,0.79-18.25c-0.47-9.55-2.25-16.5-2.9-19.28
		c-5.12-21.86-1.97-46.92-1.38-51.52c1.1-8.8,3.53-26.8,13.6-44.75c7.13-12.73,14.93-19.76,25.74-29.5
		C930.56,431.57,931.27,431.63,931.5,431.94z"/>
	<path class="st2" d="M1058.98,485.99c-11.64-20.55-24.92-35.74-40.74-42.31c-15.41-3.32-31.97-3.3-48.99,0
		c-23.8,5.54-40.08,20.81-50.37,43.86c-4.37,12.53-6.84,26.25-8.08,40.76c0.65,12.19,1.8,22.32,3.5,30.18
		c3.53,8.12,8.06,12.25,14.25,9.69c8,0.1,14.23,2.16,17.81,7.11c-5.13,0.44-9.3,2.16-12.6,4.98c-0.99,4.55,0.33,8.28,3.3,11.4
		c4.47,9.17,6.96,17.04,7.05,23.31c-5.91-1.87-11.63-6.45-17.29-12.01c-3.55-3.28-6.64-4.13-9.44-3.34c-1.43,3-1.75,6.65-1.19,10.8
		l0.53,21.01l-9.77-26.31c-7.21-17.51-12.16-34.13-14.12-49.56c-0.99-20.31-1.09-38.64,1.78-50.65
		c5.88-19.06,13.58-36.08,23.55-50.49c5.18-12.25,11.78-21.78,20.45-27.44c21.61-11.97,43.23-17.69,64.85-15.43
		c15.8,3.3,30.68,8.64,44.53,16.34l18.02,11.44L1058.98,485.99z"/>
	<path class="st3" d="M997.39,417.79c-4.12-9.81-41.55,2.96-41.21,9.17c0.12,2.28,5.35,3.49,6.6,3.77
		c7.63,1.75,10.17-3.47,19.95-5.06c7.91-1.29,12.79,1.07,14.51-2.74C997.92,421.48,998.03,419.3,997.39,417.79z"/>
	<path class="st0" d="M1189.53,497.43c4.4-7.47,12.78-19.64,26.16-28.55c16.99-11.28,32.45-10.92,43.05-10.68
		c10.68,0.26,26.6,0.62,43.47,13.16c4.78,3.55,17.01,12.89,25.6,31.89c10.09,22.3,10.34,47.26,5.53,53.83
		c-3.05,4.19-6.87,5.82-6.87,5.82c-2.33,1.01-4.2,0.99-5.01,1.03c-8.57,0.34-19.35,10.9-18.6,13.38c0.36,1.21,3.29,0.04,13.55,0.79
		c1.84,0.14,4.81,0.4,7.35,3.06c1.12,1.17,2.19,2.28,2.25,3.81c0.14,3.87-6.42,4.63-10.84,11.71c-3.49,5.6-4.62,13.52-3.02,15.05
		c0.98,0.95,2.73-0.79,11.09-6.69c7.1-5.02,8.19-5.42,9.21-4.82c3.09,1.81,2.88,11.14,2.73,19.16c-0.25,11.44-1.95,16.28-0.25,17.69
		c2.06,1.69,7.43-2.98,10.68-8.62c4.51-7.78,3.92-15.49,5.74-15.69c3.07-0.34,5.38,21.62,9.5,21.6c2.43,0,4.25-7.66,4.62-9.23
		c3.41-14.43-0.6-24.56-1.84-37.33c-1.66-16.94,3.4-19.72,5.09-41.02c0,0,2.03-25.75-4.74-51.44
		c-11.33-42.89-43.15-63.46-49.88-67.55c-32.51-19.78-71.29-14.79-90.51-3.42c-4.37,2.58-21.86,13.84-46.93,19.74
		c-0.71,0.16-1.3,0.3-1.69,0.38"/>
	<path class="st4" d="M1173.67,484.7c4.78-3.83,11.97-9.47,20.87-15.92c1.58-1.15,17.36-12.55,24.95-16.98
		c32.14-18.76,70.51-1.79,72.17-1.03c16.19,7.45,34.5,15.05,44.08,39.08c10.87,27.3,2.96,56.19,0.99,62.84
		c4.6-23.17-3.26-45.19-16.53-66.75c-14-17.27-29.57-26.67-46.48-29.35c-11.94-1.67-24.39-1.11-37.21,1.03
		c-13.01,4.98-24.26,11.3-33.64,19.04l-13.98,18.31L1173.67,484.7z"/>
	<path class="st4" d="M1347.61,462.2c0.53,0.46,6.82,51.31,7.32,83.33c0.39,24.08-0.76,45.87-2.57,64.81
		c3.81,5.24,6.65,12.57,8.71,21.6c5.15-11.73,4.84-27.1,1.49-44.5c-0.17-13.18,0.9-24.8,3.86-34.07
		c1.12-22.24,0.19-43.42-5.24-62.23C1358.22,481.64,1347.09,461.73,1347.61,462.2z"/>
	<path class="st2" d="M1174.6,483.55c18.4-15.88,37.4-29.17,57.16-39.08c17.69-4.05,34.87-3.99,51.33,1.53
		c14.03,4.37,26.92,11.71,38.85,21.54c11.53,16.56,19.19,31.35,19.41,42.77c0.54,14.79-1.24,29.54-4.53,44.24
		c-3.77,8.95-10.11,12.15-17.91,12.09c-4.82,2.03-9.26,5.3-13.46,9.27c14.34-2.18,20.74,1.01,21.97,7.72
		c-3.13,6.41-9.91,11.79-13.55,20.57c-4.59,12.67,8.2,0.89,17.72-6.31c1.91-1.57,3.72,0.62,5.24,11.91
		c0.56,9.13,0.5,17.71-0.59,25.36c3.84-3.04,7.16-6.93,10.09-11.42c0.98-5.64,2.65-10.21,5.05-13.38
		c2.43-21.96,3.55-43.17,2.67-63.28c-1.02-28.08-3.55-56.77-7.52-86.03c-19.04-24.92-41.24-38.44-65.81-43.34
		c-1.84-3.95-50.42,2.26-49.18,5.28c0.17,0.4-37.5,18.66-37.5,18.66c-0.76,0.26-21.32,6.81-17.81,4.9
		C1174.6,445.98,1174.6,483.55,1174.6,483.55z"/>
	<path class="st5" d="M1223.71,431.33c-0.39-2.92,10.74-8.72,20.59-11.06c7.64-1.81,14.47-1.31,28.11-0.26
		c6.47,0.5,12.64,0.99,12.67,2.05c0.05,1.49-12.25,2.18-30.87,8.24c-3.57,1.17-3.61,1.29-5.53,1.79
		C1237.04,435.14,1224.11,434.37,1223.71,431.33z"/>
</g>
</svg>
