<?xml version="1.0" encoding="utf-8"?>
<!-- Generator: Adobe Illustrator 25.0.0, SVG Export Plug-In . SVG Version: 6.00 Build 0)  -->
<svg version="1.1" id="Layer_1" xmlns="http://www.w3.org/2000/svg" xmlns:xlink="http://www.w3.org/1999/xlink" x="0px" y="0px"
	 viewBox="0 0 1920 1080" style="enable-background:new 0 0 1920 1080;" xml:space="preserve">
<style type="text/css">
	.st0{fill:#973027;stroke:#973027;stroke-miterlimit:10;}
</style>
<g id="urethra">
	<path class="st0" d="M1070.57,416.92c-5,4.66,2.39,21.82,2.46,37.58c0.02,3.03-0.27,27.41-19.71,42
		c-2.34,1.75-9.26,6.83-19.71,8.84c-14.93,2.87-22.77-3.25-49.28-11.05c-20.6-6.06-34.25-9.95-51.75-8.84
		c-7.76,0.49-21.29,1.35-34.5,8.84c-12.49,7.1-19.98,21.04-34.5,48.63c-9.78,18.61-14.66,27.9-17.25,39.79
		c-3.67,16.91,0.32,18.94-4.93,33.16c-5.45,14.79-9.26,19.56-7.39,28.74c2.49,12.18,14.41,21.27,17.25,19.9
		c3.2-1.55-7.71-15.08-7.39-37.58c0.1-6.57,2.74-16.12,7.39-35.37c2.29-9.51,4.09-16.89,7.39-26.53
		c7.12-20.76,15.3-34.37,17.25-37.58c6.85-11.25,11.83-19.19,22.18-26.53c2.86-2.03,8.75-6.12,17.25-8.84
		c10.35-3.29,21.39-3.56,39.43,0c29.08,5.75,30.97,12.49,56.67,17.68c17.94,3.63,31.81,6.45,44.35,0
		c11.41-5.86,15.1-15.96,22.18-35.37c0,0,12.54-34.35,0-57.48c-0.27-0.49-1.03-1.9-2.46-2.21
		C1073.43,414.24,1071.23,416.3,1070.57,416.92z"/>
</g>
</svg>
