<?xml version="1.0" encoding="utf-8"?>
<!-- Generator: Adobe Illustrator 25.0.0, SVG Export Plug-In . SVG Version: 6.00 Build 0)  -->
<svg version="1.1" id="Layer_1" xmlns="http://www.w3.org/2000/svg" xmlns:xlink="http://www.w3.org/1999/xlink" x="0px" y="0px"
	 viewBox="0 0 1920 1080" style="enable-background:new 0 0 1920 1080;" xml:space="preserve">
<style type="text/css">
	.st0{fill:#D95853;stroke:#C35B34;stroke-width:0.75;stroke-miterlimit:10;}
	.st1{fill:#973027;stroke:#973027;stroke-miterlimit:10;}
</style>
<g id="seminal_vesicle">
	<path class="st0" d="M981.62,488.79c13.11-34.64,38.18-55.03,38.18-55.03c18.07-15.29,29.12-17.46,33.29-18.12
		c9.12-1.32,23.93-3.49,29.55,9.63c5.32,12.36,0.54,33.51-6.16,46.16c-8.04,15.1-17.1,14.82-47.55,32.75
		c-8.04,4.72-14.14,4.62-20.24,12.74c-2.36,3.11-4.71,8.31-7.13,7.27c-1.03-0.47-1.57-1.79-4.65-11.14
		c-2.78-8.31-3.26-9.91-4.65-11.14c-1.03-0.85-2.66-1.23-5.92-1.89c-4.05-0.85-5.26-0.47-5.92-1.89
		C979.15,495.5,981.02,490.3,981.62,488.79z"/>
	<path class="st1" d="M834.4,646.25l69-54.65l65.62-75.04l8.34-16.61c15.1-2.57,22.15,6.21,21.21,26.24l-52.5,69.66l-34.5,27.37
		l-73.71,43.42l-5.92-1.89L834.4,646.25z"/>
</g>
</svg>
