<?xml version="1.0" encoding="utf-8"?>
<!-- Generator: Adobe Illustrator 25.0.0, SVG Export Plug-In . SVG Version: 6.00 Build 0)  -->
<svg version="1.1" id="Layer_1" xmlns="http://www.w3.org/2000/svg" xmlns:xlink="http://www.w3.org/1999/xlink" x="0px" y="0px"
	 viewBox="0 0 1920 1080" style="enable-background:new 0 0 1920 1080;" xml:space="preserve">
<style type="text/css">
	.st0{fill:#B94C2D;stroke:#B94C2D;stroke-miterlimit:10;}
	.st1{fill:#F4D4D3;stroke:#F4D4D3;stroke-miterlimit:10;}
</style>
<g id="epididymis">
	<path class="st0" d="M835.93,471.95c-7.71-11.77,20.35-43.86,57.44-53.81c36.68-9.82,71.06,5.11,90.26,13.45
		c10.67,4.64,84.19,37.87,98.47,107.63c9.35,45.67-7.06,105.41-49.23,121.08c-12.97,4.84-33.4,7.33-41.03,0
		c-8.12-7.8,4.6-20.92,8.21-40.36c6.48-35.18-21.5-65.99-41.03-87.45c-17.97-19.78-42.1-46.28-82.06-53.81
		C854.39,474.44,840.44,478.81,835.93,471.95z"/>
	<path class="st1" d="M942.6,431.59c3.2-1.28,14.77-5.11,41.03,6.73c56.37,25.43,73.85,73.99,73.85,73.99
		c8.37,23.27,11.65,57.04,0,60.54c-11.65,3.57-22.81-28.18-73.85-67.27c-32.82-25.16-59.33-35.79-57.44-53.81
		C927.01,443.56,933.66,435.15,942.6,431.59z"/>
</g>
</svg>
