<?xml version="1.0" encoding="utf-8"?>
<!-- Generator: Adobe Illustrator 25.0.0, SVG Export Plug-In . SVG Version: 6.00 Build 0)  -->
<svg version="1.1" id="Layer_1" xmlns="http://www.w3.org/2000/svg" xmlns:xlink="http://www.w3.org/1999/xlink" x="0px" y="0px"
	 viewBox="0 0 1920 1080" style="enable-background:new 0 0 1920 1080;" xml:space="preserve">
<style type="text/css">
	.st0{fill:#B76E81;stroke:#88412D;stroke-miterlimit:10;}
</style>
<g id="prostate">
	<path class="st0" d="M862.26,424.94c-22.96,24.58-26.99,77.71-27.26,81.59c-4.36,64.25,24.59,110.65,32.72,122.38
		c21.59,31.31,44.93,33.25,73.61,35.69c19.3,1.63,45.91,3.37,76.34-20.4c19.19-14.99,57.85-45.08,65.43-112.18
		c0.55-4.69,6.65-62.72-10.91-91.78c-20.39-33.76-47.11,14.18-103.6,10.2c-1.66-0.12-3.28-0.27-4.88-0.47
		c-5.85-0.71-11.3-1.92-16.41-3.48C905.85,433.88,886.76,398.67,862.26,424.94z"/>
</g>
</svg>
