<?xml version="1.0" encoding="utf-8"?>
<!-- Generator: Adobe Illustrator 25.0.0, SVG Export Plug-In . SVG Version: 6.00 Build 0)  -->
<svg version="1.1" xmlns="http://www.w3.org/2000/svg" xmlns:xlink="http://www.w3.org/1999/xlink" x="0px" y="0px"
	 viewBox="0 0 1920 1080" style="enable-background:new 0 0 1920 1080;" xml:space="preserve">
<style type="text/css">
	.st0{fill:#FAC577;stroke:#FAC577;stroke-miterlimit:10;}
	.st1{fill:#D0584A;stroke:#D0584A;stroke-miterlimit:10;}
	.st2{fill:#D7995E;stroke:#D7995E;stroke-miterlimit:10;}
	.st3{fill:#F5BB8D;stroke:#F5BB8D;stroke-miterlimit:10;}
	.st4{fill:#B08D6F;stroke:#B08D6F;stroke-miterlimit:10;}
	.st5{fill:#8E7151;stroke:#8E7151;stroke-miterlimit:10;}
	.st6{fill:#973027;stroke:#973027;stroke-miterlimit:10;}
	.st7{fill:#D95853;stroke:#C35B34;stroke-width:0.5;stroke-miterlimit:10;}
	.st8{fill:#B76E81;stroke:#88412D;stroke-miterlimit:10;}
	.st9{fill:#D95853;stroke:#C35B34;stroke-width:0.75;stroke-miterlimit:10;}
	.st10{fill:#B94723;stroke:#B94723;stroke-miterlimit:10;}
	.st11{fill:#B54A36;stroke:#B54A36;stroke-miterlimit:10;}
	.st12{fill:#942D24;}
	.st13{fill:#FFFFFF;}
	.st14{fill:#E7576E;stroke:#E7576E;stroke-miterlimit:10;}
	.st15{fill:#B94C2D;stroke:#B94C2D;stroke-miterlimit:10;}
	.st16{fill:#F4D4D3;stroke:#F4D4D3;stroke-miterlimit:10;}
	.st17{fill:#EFBAB6;stroke:#EFBAB6;stroke-miterlimit:10;}
	.st18{fill:#F4D4D3;stroke:#EFBAB6;stroke-miterlimit:10;}
</style>
<g id="structure">
	<path class="st0" d="M860.5,657.5c3.81,1.58,10.02,2.36,14-1c1.85-1.56,3.22-4.01,4-13c0.82-9.35-0.06-13.64,0-19
		c0.17-16.02,8.5-32.34,14-32c1.49,0.09,2.51,1.38,3,2c2.54,3.2,1.32,8.12-2,18c-3.03,9-3.91,10.54-5,14c-1.74,5.49-7.18,22.71,1,32
		c4.96,5.64,13.25,6.44,19,7c4.3,0.42,7.93,0.77,12-1c9.37-4.08,11.67-15.39,12-17c0.32-1.59,2.37-11.67-3-19
		c-1.54-2.11-2.99-3.02-3-5c-0.03-4.88,8.66-8.46,10-9c4.54-1.81,6.75-1.34,15-2c13.41-1.07,20.09-3.32,22-4
		c5.84-2.06,10.31-3.72,12-8c1.56-3.96-0.08-8.1-1-10c-1.92-1.84-2.71-4.55-2-7c0.92-3.2,5.15-4.4,7-5c0,0,8.79-2.84,23-13
		c6.94-4.96,13.92-14.19,15-24c2.14-19.45-19.6-34.88-24-38c-9.16-6.5-22.11-9.33-48-15c-26.5-5.8-32.53-4.81-36-4
		c-2.32,0.54-22.05,5.42-32,23c-1.67,2.94-9.18,16.22-7,31c0.54,3.66,1.67,7.39,0,12c-1.73,4.78-4.81,5.92-11,12
		c-4.05,3.98-8.66,8.5-12,15c-3.32,6.45-4.11,12.38-5,19c-1.13,8.42-1.69,12.63-1,16c0.39,1.9,1.12,4.37,0,7
		c-1.22,2.85-3.37,2.99-5,5c-4.92,6.06,2.69,19.67,4,22C853.23,651.37,855.49,655.42,860.5,657.5z"/>
	<path class="st1" d="M861.5,623.5c-4.68,2.95-8.38-0.31-11,2c-3.14,2.77-0.84,10.14,1,16c1.95,6.22,3.41,10.88,8,14
		c0.39,0.26,7.32,4.85,12,2c3.5-2.14,3.76-7.23,4-12c0.5-10.01-2.86-12.69-3-22c-0.1-7.02,1.71-12.28,3-16
		c1.81-5.25,4.76-13.79,13-20c2.04-1.53,4.07-3.07,7-4c11.14-3.53,19.2,6.8,38,13c1.98,0.65,23.48,7.74,27,2
		c2.66-4.34-4.83-16.23-15-20c-4.09-1.51-4.89-0.34-14-1c-14.97-1.09-16.63-4.54-27-4c-4.46,0.23-11.29,0.58-18,5
		c-8.53,5.61-12.06,14.61-13,17c-3.81,9.71-5,16-5,16c-0.2,1.04-0.6,3.34-2,6C865.78,618.86,864.26,621.76,861.5,623.5z"/>
	<path class="st2" d="M904.5,665.5c8.27,4,14.14,2.57,16,2c12.99-3.95,19.45-23.03,15-35c-2.42-6.51-7.01-8.11-6-11
		c1.7-4.84,15.31-2.28,39-7c12.48-2.49,16.1-4.67,18-8c3.28-5.75-1.17-10.35,2-18c0.61-1.47,2.04-4.34,14-13
		c13.68-9.9,15.75-8.99,20-14c7.13-8.41,7.79-18.65,8-22c0.16-2.53,0.87-17.46-10-30c-7.61-8.78-16.88-11.74-21-13
		c-7.19-2.2-13.94-2.34-14-2c-0.05,0.27,4.21,0.79,9.85,3.31c3.37,1.51,5.67,3.03,8.15,4.69c3.34,2.24,7.57,5.1,12,10
		c3.98,4.39,6.17,8.26,6.84,9.49c1.14,2.08,1.9,3.9,2.16,4.51c0.57,1.37,1.34,3.26,1.93,5.73c0,0,0.79,3.31,0.86,6.44
		c0.12,6.25-3.59,11.85-6.66,16.49c-1.91,2.88-5.21,7.78-11.13,12.35c-2.66,2.05-6.71,5.18-12.65,7.2
		c-4.14,1.42-7.96,3.64-11.94,5.45c-0.42,0.19-1.42,0.66-2.14,1.72c-0.97,1.42-0.84,3.07-0.78,3.68c0.14,1.5,0.7,2.35,1.51,3.94
		c1.6,3.14,2.4,4.7,2.52,6.24c0.27,3.52-2.18,6.34-2.68,6.91c-1.02,1.18-2.15,1.95-3.84,2.84c-4.5,2.38-8.64,3.31-12,4
		c-4.98,1.03-7.47,1.54-11,2c-8.84,1.16-10.89,0.45-18,2c0,0-5.82,1.27-10,5c-0.81,0.72-1.71,1.69-1.96,3.08
		c-0.23,1.31,0.21,2.46,0.96,3.92c1.64,3.19,3.09,4.6,4,6c1.68,2.57,1.61,5.17,1.48,9.71c-0.08,3.12-0.34,9.32-4.48,15.29
		c-1.01,1.46-2.99,4.23-6.66,6.37c-3.47,2.02-6.67,2.43-8.34,2.63c-3.83,0.45-6.99-0.12-8.99-0.66"/>
	<path class="st3" d="M908.58,668.22L995,673h41.06c-3.16-34.33-2.16-63.84,13.44-76.5c15.59-21.48,24.46-45.45,24.27-72.8
		c1.81-20.76-7.6-39.98-24.27-58.2c-10.12-12.97-17.68-25.95-17-39l6-19H872.32l6.18,104c1.44,30.64-2.65,46.87-11,52l9-8
		c1.75-2.2,3.1-4.53,4-7v-8l-1-7l2-13c2.07-6.47,4.56-12.38,8-17c3.03-4.72,7.07-8.35,12-11c6.47-4.48,13.1-7.71,20-9
		c8.63-0.19,15.62,0.34,20,2l23,5c10.65,2.55,21.84,5.41,23.54,2.93c7.16,0.96,13.16,2.27,17.46,4.07l10,7c4.16,3.57,7.36,6.94,9,10
		l6,13c0.86,4.11,1.13,8.09,1,12c-0.27,4.62-1.3,8.94-3,13c-1.91,4.21-4.7,8.18-8,12l-10,6c-5.96,3.98-11.19,7.77-14.22,11
		c-3.75,2.79-6.75,5.72-7.78,9c-0.68,3.17-0.74,6.65-0.24,10.41c-0.43,5.15-2.41,8.26-5.76,9.59c-3.46,2.25-7.52,3.49-12,4l-12,2
		l-15,2l-10,1c-3.68,1.12-4.12,3.18-2,6c2.12,2.74,3.9,5.91,5.46,9.4c0.7,5.27,0.61,9.54-0.46,12.6c-1.32,5.58-3.72,10.54-7,15l-5,4
		L908.58,668.22z"/>
	<path class="st3" d="M998.5,701.5"/>
	<path class="st4" d="M1035,407c-1.93,4.69-4.18,11.99-4,21c0.29,14.75,8.12,25.87,15,36c8.13,11.96,10.62,11.19,16.5,21.5
		c7.49,13.13,9.54,25.05,10,28c2.72,17.39-1.52,30.82-6,45c-3.94,12.48-8.07,25.55-19,38c-4.49,5.11-6.98,6.54-10,12
		c-2.94,5.31-4.99,11.92-5,31c-0.01,8.47,0.39,19.72,2,33l4,1l-2-3l-1-17c-0.58-7.6-0.53-15.27,0-23c0.88-11.19,3.38-20.39,8-27
		c5.86-5.54,10.73-12.38,15-20c4.29-7.47,7.92-15.5,11-24l3.86-15.52l1.14-15.48c0.07-9.53,0.1-18.98-2-24
		c-0.57-5.3-4.47-13.39-9-22l-16-20c-4.79-7.16-8.76-14.15-12-21c-1.82-5.56-2.59-10.91-2-16l5.48-18.5H1035z"/>
</g>
<g id="scrotum">
	<path class="st5" d="M893.5,613.5c-1.24-0.34-8.58,15.36-8,33c0.26,7.77,1.87,10.53,3,12c5.19,6.78,15.96,7.13,16,7
		c0.02-0.07-3.32-0.6-8-3c-3.43-1.76-6.15-3.15-8-6c-0.64-0.98-1.63-2.84-2-8c-0.36-4.98-0.8-11.14,2-18c1.93-4.73,4.3-7.07,5-13
		C893.68,615.97,893.96,613.62,893.5,613.5z"/>
</g>
<g id="cowper_x27_s_gland">
	<polygon class="st6" points="959.06,579.16 966.88,579.68 974.87,578.94 976.06,578.47 977.42,580.93 970.79,582.04 966.88,581.78 
		958.89,580.43 958.38,580.03 	"/>
	<path class="st7" d="M975.5,577.5c0.69-1.08,2.18-2.37,5-4c2.47-0.72,5.08,0.3,7.76,2.2c-2,2.76-5.3,4.84-10.76,5.8L975.5,577.5z"
		/>
</g>
<g id="prostate">
	<path class="st8" d="M943,544c-4.21,2.41-4.95,7.62-5,8c-0.8,6.3,4.51,10.85,6,12c3.96,3.07,8.24,3.26,13.5,3.5
		c3.54,0.16,8.42,0.33,14-2c3.52-1.47,10.61-4.42,12-11c0.1-0.46,1.22-6.15-2-9c-3.74-3.31-8.64,1.39-19,1
		C952.07,546.11,948.2,541.02,943,544z"/>
</g>
<g id="seminal_vesicle">
	<path class="st9" d="M983.72,557.07c2.17-3.67,6.32-5.83,6.32-5.83c2.99-1.62,4.82-1.85,5.51-1.92c1.51-0.14,3.96-0.37,4.89,1.02
		c0.88,1.31,0.09,3.55-1.02,4.89c-1.33,1.6-2.83,1.57-7.87,3.47c-1.33,0.5-2.34,0.49-3.35,1.35c-0.39,0.33-0.78,0.88-1.18,0.77
		c-0.17-0.05-0.26-0.19-0.77-1.18c-0.46-0.88-0.54-1.05-0.77-1.18c-0.17-0.09-0.44-0.13-0.98-0.2c-0.67-0.09-0.87-0.05-0.98-0.2
		C983.31,557.78,983.62,557.23,983.72,557.07z"/>
	<polygon class="st6" points="959.85,573.54 971.27,567.75 982.13,559.8 983.51,558.04 987.02,560.82 978.33,568.2 972.62,571.1 
		960.42,575.7 959.44,575.5 	"/>
</g>
<g id="urethra">
	<path class="st6" d="M957.5,546.5c-2.03,2.11,0.97,9.87,1,17c0.01,1.37-0.11,12.4-8,19c-0.95,0.79-3.76,3.09-8,4
		c-6.06,1.3-9.24-1.47-20-5c-8.36-2.74-13.9-4.5-21-4c-3.15,0.22-8.64,0.61-14,4c-5.07,3.21-8.11,9.52-14,22
		c-3.97,8.42-5.95,12.62-7,18c-1.49,7.65,0.13,8.57-2,15c-2.21,6.69-3.76,8.85-3,13c1.01,5.51,5.85,9.62,7,9c1.3-0.7-3.13-6.82-3-17
		c0.04-2.97,1.11-7.29,3-16c0.93-4.3,1.66-7.64,3-12c2.89-9.39,6.21-15.55,7-17c2.78-5.09,4.8-8.68,9-12c1.16-0.92,3.55-2.77,7-4
		c4.2-1.49,8.68-1.61,16,0c11.8,2.6,12.57,5.65,23,8c7.28,1.64,12.91,2.92,18,0c4.63-2.65,6.13-7.22,9-16c0,0,5.09-15.54,0-26
		c-0.11-0.22-0.42-0.86-1-1C958.66,545.29,957.77,546.22,957.5,546.5z"/>
</g>
<g id="vas_deferens">
	<path class="st10" d="M913.5,624.5c1-4.65-4-14-4-14c-4.29-8.03-7.16-16.74-11-25c-3.67-7.89-5.5-11.84-6-13
		c-4.59-10.73-11.28-26.37-8-43c0.73-3.71,5.3-24.39,24-33c0,0,16.37-7.53,36,1c1.31,0.57,4.13,1.8,4,3c-0.13,1.22-3.29,2.13-6,2
		c-2.69-0.12-4.31-1.23-6-2c-3.38-1.54-6.28-1.36-12-1c-3.98,0.25-15.62,0.97-24,9c-11.98,11.47-9.66,30.55-9,36
		c0.65,5.35,2.53,13.07,3,15c0.41,1.7,1.72,6.98,4,14c3.4,10.5,5.24,16.17,9,23c4.53,8.21,6.35,8.14,9,15c2.6,6.71,4.35,15.81,2,17
		c-1.35,0.68-4.56-0.99-5-3C913.39,624.99,913.48,624.59,913.5,624.5z"/>
</g>
<g id="bladder">
	<path class="st11" d="M968.5,502.5c-3.68-1.16-8.45-1.11-18-1c-17.49,0.19-23.06,2.95-25,4c-3.34,1.81-8.16,4.52-10,10
		c-1.82,5.41,0.34,10.46,1,12c3.58,8.35,12.9,11.02,26,15c2.23,0.68,16.16,4.77,33,3c3.52-0.37,6.39-0.91,9-3
		c5.79-4.63,6.44-13.83,5-20C986.21,508.35,970.33,503.08,968.5,502.5z"/>
	<path class="st12" d="M965.76,506.72c-20.5-4.25-36.08-0.21-38.78,7.63c-2.73,7.91,8.24,17.98,9.46,19.08
		c10.2,9.17,27.1,12.25,37.84,4.77c1.67-1.16,7.33-5.11,8.51-12.4c1.32-8.11-3.88-14.29-4.73-15.27"/>
	<path class="st13" d="M971,511c1.27-1.46,5.73-0.66,7,2c0.38,0.79,0.7,2.2,0,3c-1.27,1.46-5.73,0.66-7-2
		C970.62,513.21,970.3,511.8,971,511z"/>
</g>
<g id="penis">
	<path class="st14" d="M854.5,619.5c-1.97-2.32-1.47-5.64-1-8c2.64-13.37,8-22,8-22c8.87-14.29,13.3-21.44,20-25
		c7.34-3.9,14.56-3.94,29-4c0,0,5.57-0.02,13,2c5.89,1.6,7.86,3.16,9,5c0.83,1.34,2.23,4.46,1,6c-2.15,2.7-9.62-2.82-22-4
		c-3.55-0.34-10.88-0.96-19,2c-1.76,0.64-12.16,4.59-19,15c-3.06,4.65-7.27,13.43-9,24c-0.79,4.84-1.03,9.84-4,11
		C858.55,622.26,855.91,621.16,854.5,619.5z"/>
</g>
<g id="epididymis">
	<path class="st15" d="M893.5,630.5c-0.94-1.75,2.48-6.52,7-8c4.47-1.46,8.66,0.76,11,2c1.3,0.69,10.26,5.63,12,16
		c1.14,6.79-0.86,15.67-6,18c-1.58,0.72-4.07,1.09-5,0c-0.99-1.16,0.56-3.11,1-6c0.79-5.23-2.62-9.81-5-13
		c-2.19-2.94-5.13-6.88-10-8C895.75,630.87,894.05,631.52,893.5,630.5z"/>
	<path class="st16" d="M906.5,624.5c0.39-0.19,1.8-0.76,5,1c6.87,3.78,9,11,9,11c1.02,3.46,1.42,8.48,0,9c-1.42,0.53-2.78-4.19-9-10
		c-4-3.74-7.23-5.32-7-8C904.6,626.28,905.41,625.03,906.5,624.5z"/>
</g>
<g id="testis">
	<path class="st17" d="M894,632c-4.78,2.84-3.21,21.5,7,27c2.98,1.61,7.92,2.75,10.5,0.5c3.96-3.45,1.09-13.76-4-20
		C904.07,635.29,897.29,630.05,894,632z"/>
	<path class="st18" d="M898.91,634.83c-2.06,0.94-2.13,8.46,1.9,12.9c2.84,3.13,7.81,4.83,9.26,3.36c1.74-1.76-1.69-8.03-4.83-11.69
		C903.97,637.91,900.65,634.03,898.91,634.83z"/>
</g>
</svg>
