<svg version="1.1" xmlns="http://www.w3.org/2000/svg" xmlns:xlink="http://www.w3.org/1999/xlink" x="0px" y="0px"
	 viewBox="0 0 1920 1080" style="enable-background:new 0 0 1920 1080;" xml:space="preserve">
<style type="text/css">
	.st0{display:none;}
	.st1{fill:none;stroke:#671837;stroke-width:2;stroke-miterlimit:10;}
	.st2{fill:#E66E91;stroke:#E66E91;stroke-miterlimit:10;}
	.st3{fill:#F695B0;stroke:#F695B0;stroke-width:0.75;stroke-miterlimit:10;}
	.st4{fill:#FAFAFD;stroke:#FAFAFD;stroke-miterlimit:10;}
	.st5{fill:#E1748D;stroke:#E1748D;stroke-miterlimit:10;}
	.st6{fill:#FFFFFF;stroke:#FFFFFF;stroke-width:0.75;stroke-miterlimit:10;}
	.st7{fill:#E2748A;stroke:#671837;stroke-width:2;stroke-miterlimit:10;}
	.st8{fill:none;stroke:#E1748D;stroke-miterlimit:10;}
	.st9{fill:#DA4F6E;stroke:#671837;stroke-width:2;stroke-miterlimit:10;}
	.st10{fill:#DA4F6E;stroke:#DA4F6E;stroke-width:0.75;stroke-miterlimit:10;}
	.st11{fill:#F7DCD5;stroke:#671837;stroke-width:2;stroke-miterlimit:10;}
	.st12{fill:#F5C4B3;stroke:#F5C4B3;stroke-width:0.75;stroke-miterlimit:10;}
	.st13{fill:#FAFEFF;stroke:#FAFEFF;stroke-width:0.75;stroke-miterlimit:10;}
	.st14{fill:#FFFFFF;stroke:#FAFFFF;stroke-width:0.75;stroke-miterlimit:10;}
	.st15{fill:#F3C3B9;stroke:#F3C3B9;stroke-width:0.75;stroke-miterlimit:10;}
	.st16{fill:#F8C2B8;stroke:#F6C2B7;stroke-width:0.75;stroke-miterlimit:10;}
	.st17{fill:#FFFCF9;stroke:#FFFCF9;stroke-width:0.75;stroke-miterlimit:10;}
	.st18{fill:#F6BFB8;stroke:#F6BFB8;stroke-width:0.75;stroke-miterlimit:10;}
	.st19{fill:#D97091;stroke:#E27795;stroke-width:0.75;stroke-miterlimit:10;}
	.st20{fill:#DB6C8D;stroke:#E27795;stroke-width:0.75;stroke-miterlimit:10;}
	.st21{fill:#DE7292;stroke:#E27795;stroke-width:0.75;stroke-miterlimit:10;}
</style>
<g id="fallopiantube">
	<path class="st1" d="M835.74,431.74c-2.67-3.35-7.39-8.41-14.64-12.51c-9.68-5.48-18.53-6.21-22.13-6.47
		c-1.77-0.13-33.79-1.95-48.51,20.51c-8.95,13.65-9.01,32.47-3.23,35.74c3.35,1.9,8.75-1.37,15.19,2.47
		c0.47,0.28,2.94,1.75,2.68,2.94c-0.43,1.92-7.57,0.74-8.49,3.19c-0.65,1.73,2.54,3.28,5.04,8.3c0.17,0.34,3.57,7.1,1.72,8.68
		c-1.51,1.29-6.03-1.3-7.72-2.43c-1.71-1.14-2.05-1.8-4.28-3.19c-2.56-1.6-4.13-2.58-5.11-2.04c-1.22,0.67-0.62,3.22-0.32,9.7
		c0.39,8.44-0.37,9.27-0.89,9.51c-1.21,0.57-3.09-1.08-5.43-3.13c-1.84-1.62-4.16-3.65-5.36-7.02c-1.09-3.05-0.68-5.53-0.96-5.55
		c-0.67-0.04-0.68,14.27-3.57,14.74c-1.8,0.3-4.97-4.69-5.49-9.96c-0.58-5.87,2.59-7.48,3.19-14.23c0.48-5.38-1.33-6.65-2.85-15.04
		c-0.11-0.61-1.51-8.58-1.02-17.36c0.27-4.86,0.86-15.33,6.98-25.7c5.1-8.66,11.71-13.28,17.19-17.02
		c17.99-12.29,36.5-13.84,41.36-14.13c26.08-1.56,45.24,9.98,51.83,14.38"/>
	<path class="st2" d="M836.3,430.85c0.68-0.66-12.46-19.01-27.4-21.79c-0.96-0.18-4.26-1.02-8.55-1.02c0,0-7.66-0.52-14.55,0.26
		c-2.79,0.31-22.33,2.52-33.7,15.19c-12.67,14.12-9.86,35.26-10.02,35.23c-0.12-0.02-0.75-10.9,5.6-22.43
		c4.38-7.96,10.18-12.74,13.19-14.94c9.53-6.95,19.05-8.18,25.26-8.98c5.52-0.71,16.89-2.04,29.17,2.87
		C829.48,420.94,835.8,431.33,836.3,430.85z"/>
	<path class="st2" d="M754.55,402.98c1.47,1.36-18.92,16.7-24.51,37.28c-8.24,30.31,18.16,62.71,14.55,64.6
		c-1.33,0.7-5.86-3.23-7.62-6.51c-1.01-1.89-1.52-2.84-1.7-4.09c-0.14-0.97-0.13-2.06-0.85-3.36c-0.22-0.39-0.74-1.34-1.28-1.28
		c-0.54,0.06-0.84,1.08-1.06,1.96c-0.81,3.2-0.7,5.36-1.02,7.79c-0.31,2.33-0.61,4.65-1.49,4.81c-1.29,0.23-3.74-4.22-3.91-8.55
		c-0.06-1.57,0.17-3.07,0.34-4.13c0.39-2.46,0.94-3.84,1.32-5.19c0.89-3.17,0.72-5.76,0.51-9.06c-0.3-4.74-1.45-8.19-1.87-9.57
		c-3.3-10.85-1.27-23.29-0.89-25.57c0.71-4.37,2.28-13.3,8.77-22.21c4.6-6.32,9.63-9.81,16.6-14.64
		C753.94,402.8,754.4,402.83,754.55,402.98z"/>
	<path class="st3" d="M836.77,429.81c-7.51-10.2-16.07-17.74-26.28-21c-9.94-1.65-20.62-1.64-31.6,0
		c-15.35,2.75-25.85,10.33-32.49,21.77c-2.82,6.22-4.41,13.03-5.21,20.23c0.42,6.05,1.16,11.08,2.26,14.98
		c2.28,4.03,5.2,6.08,9.19,4.81c5.16,0.05,9.18,1.07,11.49,3.53c-3.31,0.22-6,1.07-8.13,2.47c-0.64,2.26,0.21,4.11,2.13,5.66
		c2.88,4.55,4.49,8.46,4.55,11.57c-3.81-0.93-7.5-3.2-11.15-5.96c-2.29-1.63-4.28-2.05-6.09-1.66c-0.92,1.49-1.13,3.3-0.77,5.36
		l0.34,10.43l-6.3-13.06c-4.65-8.69-7.84-16.94-9.11-24.6c-0.64-10.08-0.7-19.18,1.15-25.14c3.79-9.46,8.76-17.91,15.19-25.06
		c3.34-6.08,7.6-10.81,13.19-13.62c13.94-5.94,27.88-8.78,41.83-7.66c10.19,1.64,19.79,4.29,28.72,8.11l11.62,5.68L836.77,429.81z"
		/>
	<path class="st4" d="M797.05,395.96c-2.66-4.87-26.8,1.47-26.58,4.55c0.08,1.13,3.45,1.73,4.26,1.87
		c4.92,0.87,6.56-1.72,12.87-2.51c5.1-0.64,8.25,0.53,9.36-1.36C797.39,397.79,797.46,396.71,797.05,395.96z"/>
	<path class="st1" d="M1038.98,435.49c2.84-3.71,8.24-9.75,16.87-14.17c10.96-5.6,20.93-5.42,27.77-5.3
		c6.89,0.13,17.16,0.31,28.04,6.53c3.08,1.76,10.97,6.4,16.51,15.83c6.51,11.07,6.67,23.46,3.57,26.72
		c-1.97,2.08-4.43,2.89-4.43,2.89c-1.5,0.5-2.71,0.49-3.23,0.51c-5.53,0.17-12.48,5.41-12,6.64c0.23,0.6,2.12,0.02,8.74,0.39
		c1.19,0.07,3.1,0.2,4.74,1.52c0.72,0.58,1.41,1.13,1.45,1.89c0.09,1.92-4.14,2.3-6.99,5.81c-2.25,2.78-2.98,6.71-1.95,7.47
		c0.63,0.47,1.76-0.39,7.15-3.32c4.58-2.49,5.28-2.69,5.94-2.39c1.99,0.9,1.86,5.53,1.76,9.51c-0.16,5.68-1.26,8.08-0.16,8.78
		c1.33,0.84,4.79-1.48,6.89-4.28c2.91-3.86,2.53-7.69,3.7-7.79c1.98-0.17,3.47,10.73,6.13,10.72c1.57,0,2.74-3.8,2.98-4.58
		c2.2-7.16-0.39-12.19-1.19-18.53c-1.07-8.41,2.19-9.79,3.28-20.36c0,0,1.31-12.78-3.06-25.53c-7.31-21.29-27.83-31.5-32.17-33.53
		c-20.97-9.82-45.98-7.34-58.38-1.7c-2.82,1.28-14.1,6.87-30.27,9.8c-0.46,0.08-0.84,0.15-1.09,0.19"/>
	<path class="st5" d="M1028.75,429.17c3.08-1.9,7.72-4.7,13.46-7.9c1.02-0.57,11.2-6.23,16.09-8.43
		c20.73-9.31,45.48-0.89,46.55-0.51c10.44,3.7,22.25,7.47,28.43,19.4c7.01,13.55,1.91,27.89,0.64,31.19
		c2.97-11.5-2.1-22.43-10.66-33.13c-9.03-8.57-19.07-13.24-29.98-14.57c-7.7-0.83-15.73-0.55-24,0.51
		c-8.39,2.47-15.65,5.61-21.7,9.45l-9.02,9.09L1028.75,429.17z"/>
	<path class="st5" d="M1140.94,418c0.34,0.23,4.4,25.47,4.72,41.36c0.25,11.95-0.49,22.77-1.66,32.17c2.46,2.6,4.29,6.24,5.62,10.72
		c3.32-5.82,3.12-13.45,0.96-22.09c-0.11-6.54,0.58-12.31,2.49-16.91c0.72-11.04,0.12-21.55-3.38-30.89
		C1147.78,427.65,1140.6,417.77,1140.94,418z"/>
	<path class="st3" d="M1029.35,428.6c11.87-7.88,24.12-14.48,36.87-19.4c11.41-2.01,22.49-1.98,33.11,0.76
		c9.05,2.17,17.36,5.81,25.06,10.69c7.44,8.22,12.38,15.56,12.52,21.23c0.35,7.34-0.8,14.66-2.92,21.96
		c-2.43,4.44-6.52,6.03-11.55,6c-3.11,1.01-5.97,2.63-8.68,4.6c9.25-1.08,13.38,0.5,14.17,3.83c-2.02,3.18-6.39,5.85-8.74,10.21
		c-2.96,6.29,5.29,0.44,11.43-3.13c1.23-0.78,2.4,0.31,3.38,5.91c0.36,4.53,0.32,8.79-0.38,12.59c2.48-1.51,4.62-3.44,6.51-5.67
		c0.63-2.8,1.71-5.07,3.26-6.64c1.57-10.9,2.29-21.43,1.72-31.41c-0.66-13.94-2.29-28.18-4.85-42.7
		c-12.28-12.37-26.6-19.08-42.45-21.51c-1.19-1.96-32.52,1.12-31.72,2.62c0.11,0.2-24.19,9.26-24.19,9.26
		c-0.49,0.13-13.75,3.38-11.49,2.43C1029.35,409.95,1029.35,428.6,1029.35,428.6z"/>
	<path class="st6" d="M1061.02,402.68c-0.25-1.45,6.93-4.33,13.28-5.49c4.93-0.9,9.33-0.65,18.13-0.13
		c4.17,0.25,8.15,0.49,8.17,1.02c0.03,0.74-7.9,1.08-19.91,4.09c-2.3,0.58-2.33,0.64-3.57,0.89
		C1069.62,404.57,1061.28,404.19,1061.02,402.68z"/>
</g>
<g id="structure">
	<path class="st1" d="M907.66,689.14c-1.12-11.76-0.95-21.23-0.6-27.61c0.69-12.58,2.25-16.39,0.85-25.53
		c-0.36-2.37-0.72-3.75-5.96-20.26c-6.36-20.05-6.24-19.28-6.47-20.43c-3.12-15.59,1.54-20.13-1.87-32.85
		c-1.75-6.51-4-9.19-9.53-18.38c-8.12-13.49-19.57-32.52-25.79-53.96c-4.63-15.95-2.13-18.68-7.91-33.19
		c-4.52-11.33-10.12-19.91-14.3-25.53"/>
	<path class="st1" d="M971.66,688.97c0.4-5.39,0.95-13.9,1.28-24.38c0.91-28.76-1.01-34.8,2.38-49.02
		c3.62-15.14,6.94-13.08,9.19-26.55c3.35-20.06-3.91-25.22,1.7-37.45c4.12-8.98,8.8-7.84,20.43-23.49
		c3.53-4.75,7.83-10.53,11.23-18.04c9.14-20.15,2.08-31.09,9.53-52.77c1.79-5.19,5.09-12.99,11.57-21.79"/>
	<path class="st7" d="M1023.74,494.47c1.38-0.33,2.82,3.4,5.49,6.77c4.09,5.17,9.3,7.29,13.66,9.06c12.7,5.17,23.58,1.6,24.64,5.49
		c0.46,1.69-1.42,2.93-1.53,7.15c-0.09,3.25,1.76,4.59,1.02,5.87c-1.02,1.76-5.15,1.19-8.43,0.64c-9.28-1.55-13.92-2.32-18.77-4.34
		c-7.2-2.99-20.42-8.49-20.43-15.57c0-1.84,0.89-1.95,2.3-8.04C1022.78,496.82,1022.75,494.71,1023.74,494.47z"/>
	<path class="st7" d="M813.36,515.15c1.71-1.57,3.84-1.2,6.89-1.28c7.42-0.19,12.87-3.19,19.79-6.38c4.82-2.23,7.24-3.34,9.19-5.23
		c5.44-5.28,6.85-12.76,7.66-12.51c0.39,0.12-0.15,1.79,0.38,4.34c0.49,2.37,1.58,3.91,2.17,4.85c1.88,2.98,3.98,8.12,3.83,11.11
		c-0.24,4.88-7.29,8.02-21.19,14.68c-1.65,0.79-9.39,4.42-19.79,5.49c-3.48,0.36-5.77,0.27-7.66-1.15
		C810.58,526.01,810.15,518.11,813.36,515.15z"/>
	<path class="st1" d="M840.94,406.13c25.09,7.53,60.02-8.97,99.6-12.26c35.55,2.61,64.27,19.85,90.11,15.32"/>
	<path class="st5" d="M1030.38,429.62c-2.04,0.44-3.11,2.36-4.72,5.36c-5.12,9.51-7.67,14.26-7.79,14.55
		c-3.49,8.99-5.25,16.46-6,19.66c-4.33,18.41-2.59,21.62-6.38,33.19c-1.63,4.98-4.28,12.85-10.34,21.19
		c-10.75,14.79-20.39,14.76-23.49,26.68c-1.18,4.55-1.12,9.68-1.02,16.72c0.07,4.87,0.38,4.64,1.02,14.17
		c1.07,15.75,0.58,21.74-3.06,26.81c-0.6,0.84-0.53,0.59-1.53,1.91c-3.34,4.41-7.33,9.6-7.4,15.83c-0.02,1.32-0.04,3.55,1.15,5.87
		c0.55,1.06,0.92,1.32,1.66,2.68c0.69,1.28,1.7,3.14,1.79,4.98c0.18,3.54-3.34,4.28-3.83,9.06c-0.09,0.9-0.23,2.25,0.13,3.96
		c0.85,4.02,3.44,5.2,3.36,8.28c-0.04,1.58-0.72,1.32-1.19,3.46c-0.78,3.5,0.91,4.74,1.4,10.98c0.16,1.99,0.1,3.33-0.51,4.72
		c-0.69,1.57-1.29,1.4-1.91,2.81c-1.15,2.59,0.55,3.9-0.51,6.64c-0.7,1.82-1.7,1.88-1.79,3.32c-0.09,1.56,0.98,3.26,2.43,3.96
		c2.47,1.19,5.54-0.78,7.02-2.55c1.67-2,1.86-4.4,1.91-5.23c0.79-12.24,1.19-18.36,0.89-26.17c-0.32-8.5,0.56-5.46,0.64-20.94
		c0.04-7.69-0.15-13.12,1.15-21.19c0.72-4.44,1.58-7.75,1.79-8.55c2.93-11.12,5.88-13.06,7.91-20.94c1.44-5.59,1.3-9.85,1.02-18.38
		c-0.37-11.13-2.21-14.11,0.13-20.04c2.11-5.37,6.23-9.54,6.77-10.09c2.56-2.56,3.81-2.88,6.77-5.49c2.34-2.07,4.33-4.32,8.3-10.09
		c2.1-3.05,7.61-11.06,10.6-17.11c8.34-16.87,2.09-27.46,7.91-48.13c1.66-5.9,4.22-12.34,8.43-18.77c1.13-1.72,2.13-3.08,2.81-3.96
		c0.12-0.39,0.35-1.04,0.77-1.79c0.69-1.25,1.2-1.5,1.32-1.96C1038.43,433.25,1034.02,428.84,1030.38,429.62z"/>
	<path class="st8" d="M988.77-1059.28c6.17,0.26,12.34,0.51,18.51,0.77"/>
	<path class="st3" d="M944.69,618.89c7.85,1.94,14.69-0.8,20.5-8.21c7.26-3.1,7.7-22.12,5.4-47.52
		c-0.53-12.76,1.81-23.01,11.78-26.63c16.13-13.62,25.15-35.06,28.48-62.77c2.8-16.9,8.88-31.85,18.13-44.92l0.98-18.9
		c-14.39,1.95-29.88-1.13-45.79-6.12c-14.06-4.03-28.63-6.95-43.64-8.94c-19.42,2.73-38.54,6.32-57.38,10.72
		c-14.31,3.87-28.4,4.6-42.21,1.7l-4.17,23.96c12.89,16.59,19.15,32.83,20.26,48.81c5.37,21.83,13.71,41.24,25.02,58.21
		c4.85,6.98,8.85,14.07,12,21.28c2.24,5.54,2.6,11.27,1.96,17.11c-0.41,9.26-0.16,17.62,2.21,23.15l8.85,27.53
		c2.18,7.45,3.07,14.59,2.17,21.31c-1.21,11.59-1.44,23.37-0.75,35.34c0.96,10.73,4.32,14.72,10.97,9.51
		c-1.13-2.8-1.63-5.44-1.09-7.83c-1.31-2.23-2.01-4.62-1.98-7.21c-0.5-3.29-0.67-6.37-0.04-8.89c-1.31-2.19-1.95-4.47-1.6-6.87
		c0.15-3.51,1.06-6.52,2.81-8.94c-2.55-3.81-2.93-7.02-1.11-9.62c3.3-2.19,3.57-5.19,0.66-9.04c-0.79-3.02-0.84-5.86-0.04-8.49
		c1.77-3.37,1-6.36-2.02-9.02c-1.32-3.29-1.8-5.97-0.21-7.19c1.45-0.32,2.56,0.19,3.43,1.32c5.44,5.89,11.52,9.41,18.71,8.72
		c2.28-7.54,2.1-14.36-1.01-20.34c-2.48-5.52-3.24-10.53-2.13-14.98c1.12-9.63-0.56-16.93-6.68-20.51c-3.31-1.63-5.67-3.6-6.3-6.19
		c1.27-5.83,1.63-11.18-4.55-13.1c-3.65-0.79-5.47-3.01-6.13-6.16c0.37-4.13-1.35-7.48-5.13-10.06c-0.55-1.14-0.71-2.39-0.72-3.68
		c0.58-3.5-1.17-6.85-4.36-10.11c-1.05-4.11-1.67-7.75-1.68-10.72c-1.57-5.01-3.98-9.99-7.04-14.94c-4.14-4.27-6.33-8.26-5.43-11.81
		c0.68-3.59-1.99-8.13-5.68-12.98c-0.06-7.37-0.85-14.22-3.86-19.51l-9.83-12.16c-0.21-1.74,0.42-2.68,2.41-2.33
		c5.11,2.95,11.73,3.88,20.13,2.43c4.62,5.53,9.85,5.27,15.53,0.72c5.36,2.63,10.71,2.1,16.04-1.06c6.74,3.8,13.4,2.98,19.98-2.09
		c8.21,2.37,15.84,3.11,22.32,0.64c16.69,1.78,32.09,2.76,43.03,0.98c1.22,1.5,4.26,0.8,7.88-0.61c1.4,1.99,1.23,3.93,0,5.82
		c-2.06,3.94-4.67,6.44-7.88,7.4c-4.38,10.45-9.72,21.72-7.92,26.87c-5.49,6.13-9.16,12.24-8.77,18.3
		c-4.46,3.78-6.39,9.41-7.06,15.96c-6.23,2.56-7.45,9.01-7.39,16.44c-5.53,1.95-8.68,6.99-10.66,13.56
		c-5.19,2.98-7.33,7.53-6.42,13.66c-3.57,3.64-6.01,8.49-7.57,14.3c-3.56,3.4-5.96,7.74-7.28,12.94c-1.06,4.02-1.62,7.91-1.36,11.57
		c0.72,3.05,1.73,6.38,2.94,9.91c0.97,3.7,1.51,7.16,1.32,10.21L944.69,618.89z"/>
</g>
<g id="vagina">
	<path class="st1" d="M937.79,621.48c-3.49,0.36-7.98,0.22-12.26-2.04c-5.84-3.09-8.86-8.85-10.34-8.04
		c-0.82,0.45-0.55,2.59-0.26,3.7c0.7,2.67,2.46,3.05,3.57,4.98c2.32,3.98-2.35,7.22-0.89,13.4c0.91,3.85,3.17,4.5,2.68,7.28
		c-0.54,3.03-3.37,3.03-4.09,6c-0.92,3.82,3.34,5.57,2.81,10.09c-0.42,3.55-3.18,3.57-3.45,7.15c-0.27,3.53,2.36,4.25,2.68,8.94
		c0.22,3.28-1.04,3.26-0.77,6.64c0.25,3.1,1.33,3.46,2.43,8.43c0.94,4.26,0.47,5.48,0.13,6.13c-0.84,1.57-2.55,2.62-4.09,2.81
		c-3.14,0.38-6.86-2.66-8.3-7.79"/>
	<path class="st1" d="M943.74,619.95c3.35,0.91,7.64,1.42,11.91-0.17c6.47-2.41,10.07-8.59,10.38-8.34
		c0.38,0.3-8.25,7.13-7.91,15.49c0.27,6.76,6.21,9.65,4.6,15.32c-1.02,3.58-3.78,3.82-4,7.23c-0.26,4.14,3.71,5.02,4.09,9.7
		c0.35,4.44-3.08,5.41-2.64,10.04c0.39,4.1,3.19,4.45,3.15,8c-0.04,3.8-3.26,4.31-4.77,9.45c-0.2,0.67-2.13,7.54,1.36,10.21
		c2.14,1.64,5.47,1.04,7.57-0.17c2.63-1.51,4.23-4.48,4.17-7.74"/>
	<path class="st9" d="M915.87,612.51c0.76-0.51,3.33,4.67,9.11,7.74c1.89,1.01,7.95,4.49,12.72,2.26c2.2-1.03,4.29-3.34,5.23-2.68
		c0.36,0.25,0.18,0.67,0.47,1.19c0.92,1.69,4.93,1.15,8.26,0.77c4.15-0.48,6.2-3.05,7.06-2.26c0.86,0.8-1.46,3.15-1.55,6.87
		c-0.13,5.09,4.03,7.31,3.13,9.13c-1.25,2.52-9.2-2.33-20.55-0.89c-2.62,0.33-10.18,1.6-13.34,1.66c-0.47,0.01-1.44,0-2.74,0.26
		c-2.06,0.4-2.33,0.93-3,0.77c-1.83-0.44-3.16-5.21-2.11-9.45c0.67-2.7,2.1-3.16,1.85-5.23c-0.26-2.25-2.07-2.81-3.7-6.64
		C916.4,615.3,915.36,612.85,915.87,612.51z"/>
	<path class="st9" d="M921.23,638.09c4.58-0.8,10.93-1.79,18.57-2.55c17.12-1.72,19.55-0.24,20.68,1.34
		c2.39,3.35,0.93,10.04-2.81,12.51c-4.26,2.82-8.07-2.1-17.36-1.91c-11.32,0.23-18.14,7.78-21.19,4.79
		c-1.19-1.17-1.65-3.79-0.96-5.62c0.54-1.42,1.51-1.71,2.36-3.26C921.55,641.53,921.47,639.52,921.23,638.09z"/>
	<path class="st9" d="M957.45,650.64c3.6,2.18,5.44,8.31,3.4,11.06c-2.27,3.06-7.71-0.28-17.79,0c-15.13,0.42-22.18,8.49-25.79,5.02
		c-2.97-2.85-1.27-11.25,2.21-13.19c0.16-0.09,0.2-0.1,3.66-1.45c3.24-1.26,3.98-1.56,4.34-1.7c4.19-1.6,9.4-1.67,11.91-1.71
		c4.36-0.06,3.21,0.5,11.91,1.02C955.25,649.94,956.17,649.86,957.45,650.64z"/>
	<path class="st9" d="M918.43,668.47c-3.15,1.82-1.14,14.08,1.91,14.43c0.94,0.11,1.54-0.99,2.68-2.17c1.22-1.26,3.52-3.08,16.6-4.6
		c14.4-1.67,17-0.09,18.34,1.18c1.35,1.29,1.67,2.5,2.47,2.4c2.54-0.33,4.88-13.28,0.38-16.34c-1.34-0.91-2.14-0.16-7.4,0
		c-6.89,0.21-7.29-1.01-12.77-0.51c-2.67,0.24-4.97,0.84-9.57,2.04c-0.82,0.21-3.07,1.68-6.13,2.3c-0.14,0.03-0.19,0.04-1.4,0.26
		C920.24,668.07,918.59,668.38,918.43,668.47z"/>
	<path class="st9" d="M921.74,693.49c1.4,0.36,2.06-1.9,5.11-3.45c2.53-1.28,3.8-0.61,13.4-0.13c6.73,0.34,7.27,0.06,9.57,0.77
		c3.81,1.16,4.81,2.66,6.51,2.17c3.21-0.92,5.8-8.01,3.7-12.13c-4.77-9.36-35.99-7.89-40.34,2.68
		C918.15,687.17,919.65,692.95,921.74,693.49z"/>
	<path class="st9" d="M921.74,694.16c1.4,0.36,2.06-1.9,5.11-3.45c2.53-1.28,3.8-0.61,13.4-0.13c6.73,0.34,7.27,0.06,9.57,0.77
		c3.81,1.16,4.81,2.66,6.51,2.17c3.21-0.92,5.8-8.01,3.7-12.13c-4.77-9.36-35.99-7.89-40.34,2.68
		C918.15,687.84,919.65,693.62,921.74,694.16z"/>
</g>
<g id="cervix">
	<path class="st1" d="M934.13,571.66c0.75,5.84,0.79,10.53,0.68,13.79c-0.11,3.39-0.4,5.35,0.17,8.51c0.78,4.36,2.4,6.67,3.4,9.02
		c1.49,3.5,2.47,9.12-0.51,18.04"/>
	<path class="st1" d="M940.92,579.6c-0.45,2.16-0.88,5.39-0.41,9.22c0.5,4.16,1.83,7.06,2.3,8.2c1.67,4.04,2.9,10.74,0.68,22.3"/>
	<path class="st10" d="M935.43,574.09c0.15-0.04,0.31,1.58,1.55,3.19c1.25,1.62,2.32,1.55,2.89,2.77c0.59,1.25-0.12,2.23-0.55,4.17
		c-0.79,3.55,0.18,6.73,1.06,9.66c0.68,2.24,1.14,2.61,1.83,5.32c0.44,1.73,0.66,3.14,0.81,4.36c1.04,8.04,1.56,12.07-0.6,15.13
		c-1.19,1.69-3,2.95-3.53,2.6c-0.66-0.44,1.15-3.02,1.83-7.02c0.86-5.09-0.61-9.55-1.53-12.34c-1.54-4.66-2.65-4.58-3.23-8.3
		c-0.43-2.71-0.28-5.57-0.17-7.79c0.16-3.1,0.44-3.58,0.34-5.87C935.98,576.68,935.23,574.14,935.43,574.09z"/>
</g>
<g id="ovaries">
	<path class="st11" d="M1117.32,493.06c-1.8-1.37-1.25-6.24,1.15-9.32c2.88-3.7,7.5-3.64,7.4-4.72c-0.11-1.28-6.65-1.98-12.64-1.77
		c-7.15,0.25-11.34,0.39-14.93,3.3c-4.19,3.39-3.1,6.9-6.77,8.3c-4.11,1.56-7.06-2.24-11.11-0.26c-1.59,0.78-2.55,2.27-4.47,5.23
		c-1.3,2.02-3.06,4.74-3.7,8.43c-0.73,4.21,0.89,4.58,0.38,8.17c-0.87,6.1-5.81,6.79-6.06,11.76c-0.24,4.59,3.76,8.25,5.04,9.43
		c3.5,3.21,6.01,2.75,11.87,5.23c9.13,3.86,8.28,7.64,14.55,8.81c7.05,1.31,13.32-2.16,13.79-2.43c3.59-2.05,2.79-3.19,5.36-3.96
		c4.85-1.44,8.39,2.39,14.81,0.26c0.59-0.2,0.9-0.3,1.28-0.51c4.33-2.39,2.53-8.86,4.85-15.57c2.63-7.61,7.38-6.41,9.45-13.4
		c2.41-8.17-2.04-16.74-3.57-16.6c-1.22,0.12-0.12,5.7-4.09,9.57c-2.44,2.39-6.42,3.76-8.04,2.43c-0.88-0.73-0.72-1.97-0.26-7.53
		c0.68-8.13,0.7-9.79-0.13-10.21c-1-0.51-2.15,1.29-6,3.32C1122.95,492.36,1119.07,494.4,1117.32,493.06z"/>
	<path class="st12" d="M1142.21,501.68c0.61-0.91,1.1-1.75,1.47-2.87c0.69-2.1,0.39-3.52,0.7-3.57c0.48-0.08,1.56,3.12,2.17,6.32
		c0.5,2.63,0.76,4,0.45,5.87c-0.45,2.68-1.77,4.55-2.87,6.06c-1.75,2.41-2.31,2.1-3.89,4.15c-2.34,3.04-3.08,6.31-3.57,8.49
		c-0.78,3.45-0.29,4.36-1.4,7.47c-0.81,2.26-1.16,3.41-2.23,4.28c-2.4,1.95-6.16,1.27-8.54,0.84c-1.69-0.31-1.92-0.8-3.39-0.9
		c-0.74-0.05-2.54-0.08-5.21,1.13c-2.66,1.21-3.18,2.29-5.19,3.6c-4.65,3.03-9.88,2.48-10.34,2.43c-3.4-0.43-5.88-2.08-8.3-3.7
		c-2.51-1.68-2.51-2.3-2.49-2.49c0.16-1.55,4.47-1.37,8.87-3.32c5.6-2.48,6.04-6.05,10.79-9.7c6.04-4.65,8.4-0.79,15.32-4.98
		c3.82-2.31,2.33-2.84,11.62-11.62C1136.15,509.15,1139.03,506.43,1142.21,501.68z"/>
	<path class="st13" d="M1114.13,502.04c-0.66,0.23-0.92,0.73-1.38,1.3c-2.2,2.76-5.18,2.46-5.26,3.64
		c-0.08,1.13,2.58,2.67,5.11,2.55c1.87-0.08,3.66-1.15,4.6-2.72c0.32-0.53,1.08-1.86,0.51-3.15
		C1117.1,502.3,1115.31,501.63,1114.13,502.04z"/>
	<path class="st13" d="M1093.19,523.49c-3.94,1.24-5.91,1.86-5.96,2.79c-0.06,1.19,2.64,2.67,5.11,2.55
		c1.87-0.08,3.66-1.15,4.6-2.72c0.46-0.77,1.16-2.43,0.51-3.15C1097.14,522.63,1096.5,522.45,1093.19,523.49z"/>
	<path class="st13" d="M1084,507.13c-1.5,0.28-5.59,1-6.13,3.83c-0.31,1.61,0.61,3.55,2.04,4.27c2.62,1.31,6.26-1.77,7.66-4.44
		c0.33-0.64,1.16-2.2,0.51-3.15C1087.32,506.52,1085.08,506.93,1084,507.13z"/>
	<path class="st14" d="M1102.04,490.28c-3.04,0.56-6.4,2.55-6.13,3.83c0.25,1.17,3.48,1.34,4.26,1.38c1.46,0.07,4.1,0.21,5.45-1.55
		c0.64-0.84,1.1-2.28,0.51-3.15C1105.36,489.67,1103.12,490.08,1102.04,490.28z"/>
	<path class="st15" d="M1095.04,510.87c-0.68-0.29-0.71-5.52,2.36-6.77c2.32-0.94,5.31,0.84,5.23,1.72
		c-0.06,0.76-2.4,0.45-4.98,2.43C1095.82,509.66,1095.41,511.03,1095.04,510.87z"/>
	<path class="st11" d="M757.45,478.55c1.12-4.37,26.45-4.3,29.62,4.09c0.61,1.62,0.51,3.83,2.38,5.28c1.9,1.46,3.95,0.68,7.15,1.02
		c3.41,0.36,7.12,1.9,9.19,3.91c4.4,4.28-0.07,9.35,3.57,18.72c2.42,6.22,5.53,6.92,5.45,11.74c-0.06,3.67-1.93,7.3-4.6,9.53
		c-2.8,2.34-4.83,1.77-9.36,3.23c-8.22,2.66-7.44,6.45-14.64,8.85c-4.54,1.51-13.08,2.74-17.53-1.53c-1.9-1.82-2.16-3.79-4.43-4.43
		c-2.62-0.73-4.13,1.37-7.83,1.7c-3.86,0.35-6.96-1.52-7.83-2.04c-4.8-2.89-2.19-8.09-6.64-16.17c-3.09-5.61-5.07-4.76-7.32-9.87
		c-3.29-7.48-1.71-15.36-0.68-15.49c0.7-0.09,0.76,3.46,3.91,6.81c1.89,2,5.41,4.49,7.49,3.4c0.37-0.19,1.51-0.92,1.87-6.3
		c0.5-7.44-1.3-11.55,0-12.26c1.03-0.56,2.53,1.83,6.81,4.26c1.2,0.68,7.79,4.41,10.04,2.38c1.69-1.52,0.28-5.66-0.17-6.98
		C761.67,481.83,756.95,480.51,757.45,478.55z"/>
	<path class="st16" d="M745.38,508.26c-2.28,0.35-4.58-0.54-7.24-2.71c-3.11-2.54-3.5-6.17-4.18-6c-0.71,0.18-0.46,4.19,0.22,7.47
		c0.38,1.83,0.92,4.29,2.49,7.02c2.06,3.58,3.25,3.03,5.46,6.48c2.73,4.26,3.54,9.13,3.54,9.13c0.34,2,0.38,3.91,1.8,6.02
		c0.32,0.47,1.01,1.48,2.25,2.34c3.22,2.24,7.2,1.47,7.94,1.32c2.83-0.6,3.4-1.89,5.53-1.54c1.41,0.23,2.46,1,3.19,1.53
		c1.78,1.31,2.35,2.57,3.11,3.46c3.72,4.36,13.75,1.74,14.96,1.41c2.41-0.66,4.36-1.12,6.32-2.69c1.13-0.9,2.08-2.01,4.23-3.4
		c1.09-0.71,1.96-1.15,2.51-1.42c5.07-2.54,9.83-2.68,9.81-3.22c-0.02-0.71-8.33-3.06-16.09,0.17c-2.28,0.95-3.45,1.94-6.13,2.21
		c-1.19,0.12-5.53,0.4-8.77-2.3c-0.61-0.51-1.51-1.7-3.32-4.09c-2.67-3.53-2.28-3.44-2.89-3.91c-3.27-2.53-9.14-1.07-11.74-0.43
		c-2.84,0.71-4.03,1.49-5.02,0.77c-1.29-0.94-0.32-3.02-0.68-6.21C752.16,515.1,747.66,507.9,745.38,508.26z"/>
	<path class="st17" d="M782.8,514.97c0.84-1.08,4.54-0.97,6,1.66c1.35,2.44-0.08,5.5-1.4,5.74
		C785.32,522.77,781.54,516.6,782.8,514.97z"/>
	<path class="st18" d="M780.38,498.63c0.84-1.08,4.54-0.97,6,1.66c1.35,2.44-0.08,5.5-1.4,5.74
		C782.9,506.43,779.11,500.25,780.38,498.63z"/>
	<path class="st17" d="M763.88,502.18c0.84-1.08,4.54-0.97,6,1.66c1.35,2.44-0.08,5.5-1.4,5.74
		C766.4,509.97,762.62,503.8,763.88,502.18z"/>
	<path class="st17" d="M771.23,483.49c0.84-1.08,4.54-0.97,6,1.66c1.35,2.44-0.08,5.5-1.4,5.74
		C773.76,491.28,769.97,485.11,771.23,483.49z"/>
	<path class="st17" d="M797.02,509.91c0.84-1.08,4.54-0.97,6,1.66c1.35,2.44-0.08,5.5-1.4,5.74
		C799.54,517.71,795.76,511.54,797.02,509.91z"/>
</g>
<g id="uterus">
	<path class="st9" d="M867.36,432.12c0.65-0.97,7.93,1.42,12.3,4.22c0.75,0.48,1.82,1.24,3.34,1.27c2.24,0.05,3.1-1.51,4.66-1.1
		c1.2,0.31,1.26,1.39,2.89,3.4c1.1,1.35,2.64,3.26,4.77,3.91c2.36,0.73,4.67-0.33,7.66-1.7c3.65-1.67,3.73-2.75,5.79-2.89
		c2.89-0.21,3.62,1.85,6.3,1.53c2.84-0.33,2.9-2.74,5.45-3.23c3.81-0.74,5.85,4.22,10.21,4.26c1.72,0.02,4.1-0.73,6.98-4.09
		c2.32-1.8,4.07-2.03,5.28-1.87c3.35,0.43,4.49,4.08,7.49,3.91c1.36-0.07,1.34-0.84,3.74-2.04c0.98-0.49,6.13-3.07,9.36-1.19
		c2.4,1.39,1.54,3.96,3.74,4.94c2.24,0.98,3.29-1.57,7.83-1.87c3.9-0.26,6.08,1.43,8.34-0.17c0.81-0.58,1.11-1.21,2.04-1.36
		c1.73-0.29,3.21,1.46,3.91,2.04c5.03,4.1,21.65-9.65,24-7.32c1.17,1.16-1.04,6.52-4.94,9.7c-3.88,3.18-6.53,1.81-8.85,4.77
		c-2.73,3.47,0.06,6.46-2.72,10.72c-2.45,3.75-5.51,2.81-6.81,6.13c-1.47,3.75,1.96,6.14,0.34,9.7c-1.39,3.07-4.33,2.15-5.96,5.28
		c-2.09,4.01,1.58,7.74-0.68,10.55c-1.67,2.08-4.17,0.67-5.79,2.72c-2.37,3.02,1.75,7.71-0.51,10.72c-1.82,2.43-5.31,0.47-7.15,2.72
		c-2.81,3.44,3.56,10.21,0.68,14.64c-1.74,2.68-4.58,1.01-7.32,4.26c-2.91,3.45-0.71,6.52-3.91,9.87c-2.03,2.12-3.8,1.81-5.11,4.26
		c-1.12,2.09-0.18,2.98-1.02,5.11c-1.58,3.99-5.74,2.96-7.49,6.47c-1.78,3.57,1.7,6.29-0.34,11.06c-0.82,1.93-1.52,1.78-2.72,3.74
		c-3.92,6.38-0.29,13.96-1.7,14.47c-1.22,0.44-5.51-4.62-6.81-11.15c-1.07-5.37,0.8-7.16-1.19-10.64c-2.02-3.52-4.72-3.05-6.3-6.81
		c-1.39-3.31,0.25-4.78-1.36-7.15c-1.88-2.76-4.59-1.48-6.98-4.26c-2.13-2.47-0.53-4.13-2.55-8.51c-1.98-4.3-3.98-3.71-5.45-7.49
		c-1.71-4.41,0.73-5.94-1.02-9.87c-1.87-4.2-5.08-3.41-6.3-7.32c-1.15-3.68,1.2-6-0.68-8.85c-1.2-1.82-2.36-1.19-3.57-3.06
		c-1.8-2.79,0.23-5.03-1.36-8.17c-1.24-2.45-2.77-1.66-4.09-3.91c-2.32-3.96,1.74-7.52-0.38-11.74c-1.48-2.95-3.95-2.18-5.06-5.28
		c-1.03-2.85,0.74-4.4-0.34-7.66c-0.63-1.91-1.42-1.91-3.4-4.6c-3.69-5-2.32-6.84-5.45-10.21c-1.96-2.11-2.5-1.4-6.3-4.6
		C870.8,436.66,866.8,432.95,867.36,432.12z"/>
	<path class="st19" d="M942.72,576.68c-0.57-0.05-1.49-4.53,0.26-8.85c1.24-3.08,2.53-2.84,3.66-5.62c1.99-4.91-1.34-7.35,0.6-10.98
		c1.84-3.45,5.54-2.49,7.49-6.55c1.11-2.32,0-2.83,1.19-5.28c1.69-3.48,4.28-3.18,6.21-6.64c1.49-2.67,0.23-3.36,1.53-5.87
		c2.36-4.55,7.03-3.37,8.77-6.89c2.29-4.64-3.86-10.65-1.45-13.19c1.37-1.44,4.02-0.21,6.64-2.72c0.32-0.31,0.97-0.95,1.45-1.96
		c1.54-3.29-1.14-5.54-0.17-8.26c1.06-2.96,4.84-1.93,6.51-5.15c1.56-3-1.24-4.83,0-8.55c1.38-4.13,5.5-3.85,6.47-7.87
		c0.67-2.8-1.09-3.9-0.64-6.77c0.59-3.77,4.25-3.28,6.64-7.49c2.41-4.26,0.3-7.06,3.26-10.28c1.56-1.7,3.89-2.81,4.57-2.23
		c0.62,0.53-0.47,2.17-1.96,6.68c-1.48,4.51-1.14,5.17-2.43,7.74c-1.58,3.16-2.31,2.61-3.36,4.98c-2.12,4.78,0.71,7.35-1.36,11.02
		c-1.71,3.02-3.92,1.79-5.87,4.98c-2.16,3.54,0.08,5.86-2.21,10c-1.57,2.84-2.79,2.04-4.3,4.85c-2.21,4.11,0,6.54-2.21,10
		c-1.76,2.75-3.5,1.73-5.15,4.3c-2.63,4.08,1.07,7.73-1.36,11.66c-1.83,2.96-4.37,1.6-7.28,5.11c-2.61,3.15-1.04,4.82-3.74,8.85
		c-2.71,4.04-4.99,3.42-6.09,6.72c-1.02,3.09,0.69,4.5-0.72,7.49c-1.03,2.19-2.12,1.79-3.96,4.3c-2.45,3.33-1.11,4.82-3.4,8.89
		c-1.85,3.27-3,2.81-4.94,6.26C943.06,573.46,943.21,576.73,942.72,576.68z"/>
	<path class="st20" d="M878.64,434.47c-0.09,0.6,2.19,1.74,4.52,1.88c2.81,0.17,3.35-1.27,5.11-0.8c2.36,0.63,2.14,3.43,5.74,6.03
		c1.12,0.81,1.78,1.29,2.8,1.52c4.49,1.02,6.82-4.87,12.34-4.77c2.6,0.05,2.77,1.37,5.44,1.1c3.43-0.35,3.99-2.61,6.77-2.97
		c3.97-0.51,4.91,3.87,9.06,4.09c5.34,0.28,7.51-6.75,12.26-5.91c2.94,0.52,3.19,3.43,6.56,3.68c1.87,0.14,2.19-0.71,6.5-2.06
		c3.9-1.22,5.85-1.84,7.49-1.11c2.7,1.21,2.19,4.43,4.64,5.15c2.02,0.6,2.69-1.5,6.34-2c3.73-0.51,4.69,1.45,7.73,0.45
		c2.19-0.72,2.58-2.03,4.35-1.98c1.81,0.05,2.1,1.52,4.04,2.38c2.98,1.32,6.38-0.26,10.3-2.06c2.51-1.16,6.07-2.81,5.83-3.81
		c-0.41-1.69-10.8,2.02-26.13,0.43c-8.28-0.86-11.8-2.69-19.28-1.4c-3.36,0.58-4.91,1.34-8.55,1.28c-6.88-0.11-8.1-2.93-12.89-2.17
		c-5.39,0.85-5.74,4.7-10.47,4.6c-4.13-0.09-4.97-3.06-9.06-2.68c-3.53,0.33-3.73,2.6-7.4,2.94c-3.97,0.36-4.72-2.21-8.43-1.79
		c-3.87,0.44-4.61,3.42-7.91,3.57c-1.73,0.08-4.23-0.61-7.4-4.28C880.69,433.48,878.71,433.94,878.64,434.47z"/>
	<path class="st21" d="M871.15,438.38c3.58,1.25,5.53,3.05,6.64,4.43c2.52,3.14,1.65,5.3,4.6,9.7c2.32,3.46,3.31,2.81,4.43,5.45
		c1.66,3.94-0.34,5.91,1.53,9.19c1.61,2.82,3.48,2.07,4.6,4.6c1.54,3.48-1.69,5.65-0.34,9.7c0.94,2.83,2.63,2.16,4.09,5.62
		c1.39,3.31,0.2,4.78,1.87,7.83c1.29,2.35,2.15,1.76,3.4,3.91c2.26,3.88-0.14,6.45,1.87,10.21c1.56,2.92,3.28,1.86,4.94,4.77
		c2.24,3.91-0.5,6.48,1.7,11.06c1.31,2.73,2.35,1.97,4.09,5.11c2.54,4.59,0.67,6.83,3.06,9.7c2.27,2.72,4.47,1.32,6.64,4.09
		c2.15,2.74,0.5,4.79,2.55,8.68c1.75,3.32,3.74,2.44,5.28,5.62c0.75,1.56,0.61,2.37,1.28,7.91c0.46,3.84,1.22,5.49,0.77,5.7
		c-0.63,0.29-1.95-3.02-5.62-6.47c-3.63-3.41-4.93-2.6-6.38-4.85c-2.77-4.3,1.42-8.09-1.02-12.26c-2.4-4.11-7.53-2.22-9.83-6.64
		c-1.65-3.17,0.36-5.34-1.91-8.68c-1.69-2.48-3.24-1.92-4.21-4.21c-1.17-2.74,0.62-4.55-0.64-7.66c-0.67-1.66-1.7-2.43-2.55-3.32
		c-4.32-4.51-1.4-9.42-4.72-18c-2.18-5.63-6.24-10.76-6.51-11.11c-2.16-2.71-3.74-4-4.47-6.89c-0.85-3.41,0.67-4.29-0.16-7.59
		c-0.95-3.79-3.35-4.17-5.08-7.99c-1.65-3.65-0.88-6.48-0.89-9.45C880.12,452.31,878.53,446.19,871.15,438.38z"/>
</g>
</svg>