<?xml version="1.0" encoding="utf-8"?>
<!-- Generator: Adobe Illustrator 25.0.0, SVG Export Plug-In . SVG Version: 6.00 Build 0)  -->
<svg version="1.1" id="Layer_1" xmlns="http://www.w3.org/2000/svg" xmlns:xlink="http://www.w3.org/1999/xlink" x="0px" y="0px"
	 viewBox="0 0 1920 1080" style="enable-background:new 0 0 1920 1080;" xml:space="preserve">
<style type="text/css">
	.st0{fill:#F7DCD5;stroke:#671837;stroke-width:2;stroke-miterlimit:10;}
	.st1{fill:#F5C4B3;stroke:#F5C4B3;stroke-width:0.75;stroke-miterlimit:10;}
	.st2{fill:#FAFEFF;stroke:#FAFEFF;stroke-width:0.75;stroke-miterlimit:10;}
	.st3{fill:#FFFFFF;stroke:#FAFFFF;stroke-width:0.75;stroke-miterlimit:10;}
	.st4{fill:#F3C3B9;stroke:#F3C3B9;stroke-width:0.75;stroke-miterlimit:10;}
	.st5{fill:#F8C2B8;stroke:#F6C2B7;stroke-width:0.75;stroke-miterlimit:10;}
	.st6{fill:#FFFCF9;stroke:#FFFCF9;stroke-width:0.75;stroke-miterlimit:10;}
	.st7{fill:#F6BFB8;stroke:#F6BFB8;stroke-width:0.75;stroke-miterlimit:10;}
</style>
<g>
	<path class="st0" d="M1127.39,429.64c-5.38-4.35-3.73-19.79,3.43-29.56c8.6-11.74,22.4-11.55,22.1-14.97
		c-0.33-4.06-19.86-6.28-37.74-5.61c-21.35,0.79-33.86,1.24-44.58,10.47c-12.51,10.75-9.26,21.89-20.22,26.33
		c-12.27,4.95-21.08-7.1-33.18-0.82c-4.75,2.47-7.61,7.2-13.35,16.59c-3.88,6.41-9.14,15.03-11.05,26.74
		c-2.18,13.35,2.66,14.53,1.13,25.91c-2.6,19.35-17.35,21.54-18.1,37.3c-0.72,14.56,11.23,26.17,15.05,29.91
		c10.45,10.18,17.95,8.72,35.45,16.59c27.26,12.24,24.72,24.23,43.45,27.94c21.05,4.16,39.77-6.85,41.18-7.71
		c10.72-6.5,8.33-10.12,16.01-12.56c14.48-4.57,25.05,7.58,44.22,0.82c1.76-0.63,2.69-0.95,3.82-1.62
		c12.93-7.58,7.55-28.1,14.48-49.38c7.85-24.14,22.04-20.33,28.22-42.5c7.2-25.91-6.09-53.1-10.66-52.65
		c-3.64,0.38-0.36,18.08-12.21,30.35c-7.29,7.58-19.17,11.93-24.01,7.71c-2.63-2.32-2.15-6.25-0.78-23.88
		c2.03-25.79,2.09-31.05-0.39-32.38c-2.99-1.62-6.42,4.09-17.92,10.53C1144.21,427.42,1132.62,433.9,1127.39,429.64z"/>
	<path class="st1" d="M1201.72,456.99c1.82-2.89,3.28-5.55,4.39-9.1c2.06-6.66,1.16-11.16,2.09-11.32c1.43-0.25,4.66,9.9,6.48,20.05
		c1.49,8.34,2.27,12.69,1.34,18.62c-1.34,8.5-5.29,14.43-8.57,19.22c-5.23,7.64-6.9,6.66-11.62,13.16
		c-6.99,9.64-9.2,20.01-10.66,26.93c-2.33,10.94-0.87,13.83-4.18,23.69c-2.42,7.17-3.46,10.82-6.66,13.58
		c-7.17,6.18-18.39,4.03-25.5,2.66c-5.05-0.98-5.73-2.54-10.12-2.85c-2.21-0.16-7.58-0.25-15.56,3.58
		c-7.94,3.84-9.5,7.26-15.5,11.42c-13.89,9.61-29.5,7.87-30.88,7.71c-10.15-1.36-17.56-6.6-24.78-11.74c-7.5-5.33-7.5-7.29-7.44-7.9
		c0.48-4.92,13.35-4.35,26.49-10.53c16.72-7.87,18.04-19.19,32.22-30.77c18.04-14.75,25.08-2.51,45.75-15.8
		c11.41-7.33,6.96-9.01,34.7-36.86C1183.62,480.68,1192.22,472.05,1201.72,456.99z"/>
	<path class="st2" d="M1117.87,458.13c-1.97,0.73-2.75,2.32-4.12,4.12c-6.57,8.75-15.47,7.8-15.71,11.55
		c-0.24,3.58,7.7,8.47,15.26,8.09c5.58-0.25,10.93-3.65,13.74-8.63c0.96-1.68,3.22-5.9,1.52-9.99
		C1126.74,458.95,1121.39,456.83,1117.87,458.13z"/>
	<path class="st2" d="M1055.34,526.16c-11.77,3.93-17.65,5.9-17.8,8.85c-0.18,3.77,7.88,8.47,15.26,8.09
		c5.58-0.25,10.93-3.65,13.74-8.63c1.37-2.44,3.46-7.71,1.52-9.99C1067.14,523.43,1065.22,522.86,1055.34,526.16z"/>
	<path class="st2" d="M1027.9,474.27c-4.48,0.89-16.69,3.17-18.3,12.15c-0.93,5.11,1.82,11.26,6.09,13.54
		c7.82,4.16,18.69-5.61,22.87-14.08c0.99-2.03,3.46-6.98,1.52-9.99C1037.81,472.34,1031.12,473.64,1027.9,474.27z"/>
	<path class="st3" d="M1081.77,420.83c-9.08,1.78-19.11,8.09-18.3,12.15c0.75,3.71,10.39,4.25,12.72,4.38
		c4.36,0.22,12.24,0.67,16.27-4.92c1.91-2.66,3.28-7.23,1.52-9.99C1091.68,418.89,1084.99,420.19,1081.77,420.83z"/>
	<path class="st4" d="M1060.86,486.13c-2.03-0.92-2.12-17.51,7.05-21.47c6.93-2.98,15.86,2.66,15.62,5.46
		c-0.18,2.41-7.17,1.43-14.87,7.71C1063.19,482.3,1061.97,486.64,1060.86,486.13z"/>
	<path class="st0" d="M639.04,376.89c3.34-13.54,78.83-13.32,88.28,12.67c1.82,5.02,1.52,11.86,7.09,16.35
		c5.66,4.52,11.77,2.11,21.31,3.16c10.16,1.11,21.22,5.88,27.39,12.11c13.11,13.26-0.21,28.96,10.64,57.98
		c7.21,19.27,16.48,21.43,16.24,36.36c-0.18,11.37-5.75,22.61-13.71,29.52c-8.35,7.25-14.4,5.48-27.9,10
		c-24.5,8.24-22.17,19.98-43.63,27.41c-13.53,4.68-38.98,8.49-52.25-4.74c-5.66-5.64-6.44-11.74-13.2-13.72
		c-7.81-2.26-12.31,4.24-23.34,5.27c-11.5,1.08-20.74-4.71-23.34-6.32c-14.31-8.95-6.53-25.06-19.79-50.08
		c-9.21-17.38-15.11-14.74-21.82-30.57c-9.81-23.17-5.1-47.57-2.03-47.98c2.09-0.28,2.27,10.72,11.65,21.09
		c5.63,6.19,16.12,13.91,22.32,10.53c1.1-0.59,4.5-2.85,5.57-19.51c1.49-23.04-3.87-35.77,0-37.97c3.07-1.73,7.54,5.67,20.3,13.19
		c3.58,2.11,23.22,13.66,29.92,7.37c5.04-4.71,0.83-17.53-0.51-21.62C651.62,387.05,637.55,382.96,639.04,376.89z"/>
	<path class="st5" d="M603.07,468.91c-6.8,1.08-13.65-1.67-21.58-8.39c-9.27-7.87-10.43-19.11-12.46-18.58
		c-2.12,0.56-1.37,12.98,0.66,23.14c1.13,5.67,2.74,13.29,7.42,21.74c6.14,11.09,9.69,9.39,16.27,20.07
		c8.14,13.19,10.55,28.28,10.55,28.28c1.01,6.19,1.13,12.11,5.36,18.65c0.95,1.46,3.01,4.58,6.71,7.25
		c9.6,6.94,21.46,4.55,23.66,4.09c8.43-1.86,10.13-5.85,16.48-4.77c4.2,0.71,7.33,3.1,9.51,4.74c5.31,4.06,7,7.96,9.27,10.72
		c11.09,13.5,40.98,5.39,44.59,4.37c7.18-2.04,12.99-3.47,18.84-8.33c3.37-2.79,6.2-6.23,12.61-10.53c3.25-2.2,5.84-3.56,7.48-4.4
		c15.11-7.87,29.3-8.3,29.24-9.97c-0.06-2.2-24.83-9.48-47.95,0.53c-6.8,2.94-10.28,6.01-18.27,6.85
		c-3.55,0.37-16.48,1.24-26.14-7.12c-1.82-1.58-4.5-5.27-9.89-12.67c-7.96-10.93-6.8-10.65-8.61-12.11
		c-9.75-7.84-27.24-3.31-34.99-1.33c-8.46,2.2-12.01,4.61-14.96,2.39c-3.84-2.91-0.95-9.35-2.03-19.23
		C623.27,490.09,609.86,467.79,603.07,468.91z"/>
	<path class="st6" d="M714.59,489.69c2.5-3.35,13.53-3,17.88,5.14c4.02,7.56-0.24,17.04-4.17,17.78
		C722.1,513.85,710.84,494.74,714.59,489.69z"/>
	<path class="st7" d="M707.38,439.08c2.5-3.35,13.53-3,17.88,5.14c4.02,7.56-0.24,17.04-4.17,17.78
		C714.89,463.24,703.6,444.1,707.38,439.08z"/>
	<path class="st6" d="M658.2,450.08c2.5-3.35,13.53-3,17.88,5.14c4.02,7.56-0.24,17.04-4.17,17.78
		C665.71,474.21,654.45,455.09,658.2,450.08z"/>
	<path class="st6" d="M680.11,392.19c2.5-3.35,13.53-3,17.88,5.14c4.02,7.56-0.24,17.04-4.17,17.78
		C687.65,416.32,676.35,397.21,680.11,392.19z"/>
	<path class="st6" d="M756.97,474.02c2.5-3.35,13.53-3,17.88,5.14c4.02,7.56-0.24,17.04-4.17,17.78
		C764.48,498.18,753.22,479.07,756.97,474.02z"/>
</g>
</svg>
