<?xml version="1.0" encoding="utf-8"?>
<!-- Generator: Adobe Illustrator 25.0.0, SVG Export Plug-In . SVG Version: 6.00 Build 0)  -->
<svg version="1.1" id="Layer_1" xmlns="http://www.w3.org/2000/svg" xmlns:xlink="http://www.w3.org/1999/xlink" x="0px" y="0px"
	 viewBox="0 0 1920 1080" style="enable-background:new 0 0 1920 1080;" xml:space="preserve">
<style type="text/css">
	.st0{fill:#E7576E;stroke:#E7576E;stroke-miterlimit:10;}
</style>
<g id="penis">
	<path class="st0" d="M838.97,655.49c-6.09-9.47-4.54-23.02-3.09-32.66c8.16-54.58,24.72-89.8,24.72-89.8
		c27.41-58.33,41.1-87.52,61.8-102.05c22.68-15.92,44.99-16.08,89.61-16.33c0,0,17.21-0.08,40.17,8.16
		c18.2,6.53,24.29,12.9,27.81,20.41c2.56,5.47,6.89,18.21,3.09,24.49c-6.64,11.02-29.72-11.51-67.98-16.33
		c-10.97-1.39-33.62-3.92-58.71,8.16c-5.44,2.61-37.57,18.74-58.71,61.23c-9.45,18.98-22.46,54.82-27.81,97.97
		c-2.44,19.76-3.18,40.17-12.36,44.9C851.48,666.76,843.33,662.27,838.97,655.49z"/>
</g>
</svg>
