<?xml version="1.0" encoding="utf-8"?>
<!-- Generator: Adobe Illustrator 25.0.0, SVG Export Plug-In . SVG Version: 6.00 Build 0)  -->
<svg version="1.1" id="Layer_1" xmlns="http://www.w3.org/2000/svg" xmlns:xlink="http://www.w3.org/1999/xlink" x="0px" y="0px"
	 viewBox="0 0 1920 1080" style="enable-background:new 0 0 1920 1080;" xml:space="preserve">
<style type="text/css">
	.st0{fill:#FAC577;stroke:#FAC577;stroke-miterlimit:10;}
	.st1{fill:#D0584A;stroke:#D0584A;stroke-miterlimit:10;}
	.st2{fill:#D7995E;stroke:#D7995E;stroke-miterlimit:10;}
	.st3{fill:#F5BB8D;stroke:#F5BB8D;stroke-miterlimit:10;}
	.st4{fill:#B08D6F;stroke:#B08D6F;stroke-miterlimit:10;}
</style>
<g id="structure">
	<path class="st0" d="M754.02,715.63c8.29,2.68,21.81,4.01,30.48-1.7c4.03-2.65,7.01-6.81,8.71-22.07c1.79-15.87-0.13-23.16,0-32.26
		c0.37-27.2,18.51-54.91,30.48-54.33c3.24,0.15,5.46,2.34,6.53,3.4c5.53,5.43,2.87,13.79-4.35,30.56
		c-6.6,15.28-8.51,17.89-10.89,23.77c-3.79,9.32-15.63,38.56,2.18,54.33c10.8,9.58,28.85,10.93,41.37,11.88
		c9.36,0.71,17.26,1.31,26.13-1.7c20.4-6.93,25.41-26.13,26.13-28.86c0.7-2.7,5.16-19.81-6.53-32.26c-3.35-3.58-6.51-5.13-6.53-8.49
		c-0.07-8.29,18.85-14.36,21.77-15.28c9.88-3.07,14.7-2.28,32.66-3.4c29.2-1.82,43.74-5.64,47.9-6.79
		c12.71-3.5,22.45-6.32,26.13-13.58c3.4-6.72-0.17-13.75-2.18-16.98c-4.18-3.12-5.9-7.72-4.35-11.88c2-5.43,11.21-7.47,15.24-8.49
		c0,0,19.14-4.82,50.07-22.07c15.11-8.42,30.31-24.09,32.66-40.75c4.66-33.02-42.67-59.22-52.25-64.52
		c-19.94-11.04-48.14-15.84-104.5-25.47c-57.69-9.85-70.82-8.17-78.38-6.79c-5.05,0.92-48.01,9.2-69.67,39.05
		c-3.64,4.99-19.99,27.54-15.24,52.63c1.18,6.21,3.64,12.55,0,20.37c-3.77,8.12-10.47,10.05-23.95,20.37
		c-8.82,6.76-18.85,14.43-26.13,25.47c-7.23,10.95-8.95,21.02-10.89,32.26c-2.46,14.3-3.68,21.44-2.18,27.16
		c0.85,3.23,2.44,7.42,0,11.88c-2.66,4.84-7.34,5.08-10.89,8.49c-10.71,10.29,5.86,33.4,8.71,37.35
		C738.19,705.22,743.11,712.1,754.02,715.63z"/>
	<path class="st1" d="M756.2,657.91c-10.19,5.01-18.24-0.53-23.95,3.4c-6.84,4.7-1.83,17.22,2.18,27.16
		c4.25,10.56,7.42,18.47,17.42,23.77c0.85,0.44,15.94,8.23,26.13,3.4c7.62-3.63,8.19-12.28,8.71-20.37
		c1.09-16.99-6.23-21.55-6.53-37.35c-0.22-11.92,3.72-20.85,6.53-27.16c3.94-8.91,10.36-23.41,28.3-33.96
		c4.44-2.6,8.86-5.21,15.24-6.79c24.25-5.99,41.8,11.54,82.73,22.07c4.31,1.1,51.12,13.14,58.78,3.4
		c5.79-7.37-10.52-27.56-32.66-33.96c-8.9-2.56-10.65-0.58-30.48-1.7c-32.59-1.85-36.21-7.71-58.78-6.79
		c-9.71,0.39-24.58,0.98-39.19,8.49c-18.57,9.52-26.26,24.8-28.3,28.86c-8.29,16.49-10.89,27.16-10.89,27.16
		c-0.44,1.77-1.31,5.67-4.35,10.19C765.51,650.03,762.21,654.95,756.2,657.91z"/>
	<path class="st2" d="M849.81,729.21c18.01,6.79,30.78,4.36,34.83,3.4c28.28-6.71,42.35-39.1,32.66-59.42
		c-5.27-11.05-15.26-13.77-13.06-18.68c3.7-8.22,33.33-3.87,84.91-11.88c27.17-4.23,35.05-7.93,39.19-13.58
		c7.14-9.76-2.55-17.57,4.35-30.56c1.33-2.5,4.44-7.37,30.48-22.07c29.78-16.81,34.29-15.26,43.54-23.77
		c15.52-14.28,16.96-31.66,17.42-37.35c0.35-4.3,1.89-29.64-21.77-50.93c-16.57-14.91-36.75-19.93-45.72-22.07
		c-15.65-3.74-30.35-3.97-30.48-3.4c-0.11,0.46,9.17,1.34,21.44,5.62c7.34,2.56,12.34,5.14,17.74,7.96
		c7.27,3.8,16.48,8.66,26.13,16.98c8.66,7.45,13.43,14.02,14.89,16.11c2.48,3.53,4.14,6.62,4.7,7.66c1.24,2.33,2.92,5.53,4.2,9.73
		c0,0,1.72,5.62,1.87,10.93c0.26,10.61-7.82,20.12-14.5,28c-4.16,4.89-11.34,13.21-24.23,20.97c-5.79,3.48-14.61,8.79-27.54,12.22
		c-9.01,2.41-17.33,6.18-25.99,9.25c-0.91,0.32-3.09,1.12-4.66,2.92c-2.11,2.41-1.83,5.21-1.7,6.25c0.3,2.55,1.52,3.99,3.29,6.69
		c3.48,5.33,5.23,7.98,5.49,10.59c0.59,5.98-4.75,10.76-5.83,11.73c-2.22,2-4.68,3.31-8.36,4.82c-9.8,4.04-18.81,5.62-26.13,6.79
		c-10.84,1.75-16.26,2.61-23.95,3.4c-19.25,1.97-23.71,0.76-39.19,3.4c0,0-12.67,2.16-21.77,8.49c-1.76,1.22-3.72,2.87-4.27,5.23
		c-0.5,2.22,0.46,4.18,2.09,6.66c3.57,5.42,6.73,7.81,8.71,10.19c3.66,4.36,3.51,8.78,3.22,16.49c-0.17,5.3-0.74,15.82-9.75,25.96
		c-2.2,2.48-6.51,7.18-14.5,10.81c-7.55,3.43-14.52,4.13-18.16,4.47c-8.34,0.76-15.22-0.2-19.57-1.12"/>
	<path class="st3" d="M858.7,733.83l188.15,8.12h89.39c-6.88-58.29-4.7-108.39,29.26-129.88c33.94-36.47,53.25-77.16,52.84-123.6
		c3.94-35.25-16.55-67.88-52.84-98.81c-22.03-22.02-38.49-44.06-37.01-66.21l13.06-32.26h-361.8l13.45,176.57
		c3.14,52.02-5.77,79.58-23.95,88.29l19.59-13.58c3.81-3.74,6.75-7.69,8.71-11.88v-13.58l-2.18-11.88l4.35-22.07
		c4.51-10.98,9.93-21.02,17.42-28.86c6.6-8.01,15.39-14.18,26.13-18.68c14.09-7.61,28.52-13.09,43.54-15.28
		c18.79-0.32,34.01,0.58,43.54,3.4l50.07,8.49c23.19,4.33,47.55,9.19,51.25,4.97c15.59,1.63,28.65,3.85,38.01,6.91l21.77,11.88
		c9.06,6.06,16.02,11.78,19.59,16.98l13.06,22.07c1.87,6.98,2.46,13.74,2.18,20.37c-0.59,7.84-2.83,15.18-6.53,22.07
		c-4.16,7.15-10.23,13.89-17.42,20.37l-21.77,10.19c-12.98,6.76-24.36,13.19-30.96,18.68c-8.16,4.74-14.7,9.71-16.94,15.28
		c-1.48,5.38-1.61,11.29-0.52,17.67c-0.94,8.74-5.25,14.02-12.54,16.28c-7.53,3.82-16.37,5.93-26.13,6.79l-26.13,3.4l-32.66,3.4
		l-21.77,1.7c-8.01,1.9-8.97,5.4-4.35,10.19c4.62,4.65,8.49,10.03,11.89,15.96c1.52,8.95,1.33,16.2-1,21.39
		c-2.87,9.47-8.1,17.89-15.24,25.47l-10.89,6.79L858.7,733.83z"/>
	<path class="st3" d="M1054.46,790.33"/>
	<path class="st4" d="M1133.93,290.33c-4.2,7.96-9.1,20.36-8.71,35.65c0.63,25.04,17.68,43.92,32.66,61.12
		c17.7,20.31,23.12,19,35.92,36.5c16.31,22.29,20.77,42.53,21.77,47.54c5.92,29.52-3.31,52.33-13.06,76.4
		c-8.58,21.19-17.57,43.38-41.37,64.52c-9.78,8.68-15.2,11.1-21.77,20.37c-6.4,9.02-10.86,20.24-10.89,52.63
		c-0.02,14.38,0.85,33.48,4.35,56.03l8.71,1.7l-4.35-5.09l-2.18-28.86c-1.26-12.9-1.15-25.93,0-39.05
		c1.92-19,7.36-34.62,17.42-45.84c12.76-9.41,23.36-21.02,32.66-33.96c9.34-12.68,17.24-26.32,23.95-40.75l8.4-26.35l2.48-26.28
		c0.15-16.18,0.22-32.22-4.35-40.75c-1.24-9-9.73-22.73-19.59-37.35l-34.83-33.96c-10.43-12.16-19.07-24.02-26.13-35.65
		c-3.96-9.44-5.64-18.52-4.35-27.16l11.93-31.41H1133.93z"/>
</g>
</svg>
