<?xml version="1.0" encoding="utf-8"?>
<!-- Generator: Adobe Illustrator 25.0.0, SVG Export Plug-In . SVG Version: 6.00 Build 0)  -->
<svg version="1.1" id="Layer_1" xmlns="http://www.w3.org/2000/svg" xmlns:xlink="http://www.w3.org/1999/xlink" x="0px" y="0px"
	 viewBox="0 0 1920 1080" style="enable-background:new 0 0 1920 1080;" xml:space="preserve">
<style type="text/css">
	.st0{fill:#DA4F6E;stroke:#671837;stroke-width:2;stroke-miterlimit:10;}
	.st1{fill:#D97091;stroke:#E27795;stroke-width:0.75;stroke-miterlimit:10;}
	.st2{fill:#DB6C8D;stroke:#E27795;stroke-width:0.75;stroke-miterlimit:10;}
	.st3{fill:#DE7292;stroke:#E27795;stroke-width:0.75;stroke-miterlimit:10;}
</style>
<g id="uterus">
	<path class="st0" d="M693.86,198.92c1.55-2.94,18.95,4.31,29.4,12.8c1.79,1.46,4.35,3.76,7.98,3.85c5.35,0.15,7.41-4.58,11.14-3.34
		c2.87,0.94,3.01,4.22,6.91,10.31c2.63,4.09,6.31,9.89,11.4,11.86c5.64,2.21,11.16-1,18.31-5.16c8.72-5.06,8.91-8.34,13.84-8.76
		c6.91-0.64,8.65,5.61,15.06,4.64c6.79-1,6.93-8.31,13.03-9.79c9.11-2.24,13.98,12.8,24.4,12.92c4.11,0.06,9.8-2.21,16.68-12.4
		c5.54-5.46,9.73-6.16,12.62-5.67c8.01,1.3,10.73,12.37,17.9,11.86c3.25-0.21,3.2-2.55,8.94-6.19c2.34-1.49,14.65-9.31,22.37-3.61
		c5.74,4.22,3.68,12.01,8.94,14.98c5.35,2.97,7.86-4.76,18.71-5.67c9.32-0.79,14.53,4.34,19.93-0.52c1.94-1.76,2.65-3.67,4.88-4.12
		c4.13-0.88,7.67,4.43,9.34,6.19c12.02,12.43,51.74-29.26,57.36-22.2c2.8,3.52-2.49,19.77-11.81,29.41
		c-9.27,9.64-15.61,5.49-21.15,14.46c-6.52,10.52,0.14,19.59-6.5,32.51c-5.86,11.37-13.17,8.52-16.28,18.59
		c-3.51,11.37,4.68,18.62,0.81,29.41c-3.32,9.31-10.35,6.52-14.24,16.01c-5,12.16,3.78,23.47-1.63,31.99
		c-3.99,6.31-9.97,2.03-13.84,8.25c-5.66,9.16,4.18,23.38-1.22,32.51c-4.35,7.37-12.69,1.43-17.09,8.25
		c-6.72,10.43,8.51,30.96,1.63,44.39c-4.16,8.13-10.95,3.06-17.49,12.92c-6.95,10.46-1.7,19.77-9.34,29.93
		c-4.85,6.43-9.08,5.49-12.21,12.92c-2.68,6.34-0.43,9.04-2.44,15.5c-3.78,12.1-13.72,8.98-17.9,19.62
		c-4.25,10.83,4.06,19.07-0.81,33.54c-1.96,5.85-3.63,5.4-6.5,11.34c-9.37,19.35-0.69,42.33-4.06,43.88
		c-2.92,1.33-13.17-14.01-16.28-33.81c-2.56-16.28,1.91-21.71-2.84-32.26c-4.83-10.67-11.28-9.25-15.06-20.65
		c-3.32-10.04,0.6-14.5-3.25-21.68c-4.49-8.37-10.97-4.49-16.68-12.92c-5.09-7.49-1.27-12.52-6.09-25.81
		c-4.73-13.04-9.51-11.25-13.03-22.71c-4.09-13.37,1.74-18.01-2.44-29.93c-4.47-12.74-12.14-10.34-15.06-22.2
		c-2.75-11.16,2.87-18.19-1.63-26.84c-2.87-5.52-5.64-3.61-8.53-9.28c-4.3-8.46,0.55-15.25-3.25-24.77
		c-2.96-7.43-6.62-5.03-9.77-11.86c-5.54-12.01,4.16-22.8-0.91-35.6c-3.54-8.95-9.44-6.61-12.09-16.01
		c-2.46-8.64,1.77-13.34-0.81-23.23c-1.51-5.79-3.39-5.79-8.13-13.95c-8.82-15.16-5.54-20.74-13.03-30.96
		c-4.68-6.4-5.97-4.25-15.06-13.95C702.08,212.69,692.52,201.44,693.86,198.92z"/>
	<path class="st1" d="M871.96,636.29c-1.36-0.15-3.56-13.74,0.62-26.84c2.96-9.34,6.05-8.61,8.75-17.04
		c4.76-14.89-3.2-22.29,1.43-33.3c4.4-10.46,13.24-7.55,17.9-19.86c2.65-7.04,0-8.58,2.84-16.01c4.04-10.55,10.23-9.64,14.84-20.14
		c3.56-8.1,0.55-10.19,3.66-17.8c5.64-13.8,16.8-10.22,20.96-20.89c5.47-14.07-7.67-31.35-3.47-40c3.25-6.67,9.58-2.87,15.87-8.25
		c0.92-0.79,2.32-2.88,3.47-5.94c3.68-9.98-2.72-16.8-0.41-25.05c2.53-8.98,11.57-5.85,15.56-15.62c3.73-9.1-2.96-14.65,0-25.93
		c3.3-12.52,13.14-11.67,15.46-23.87c1.6-8.49-2.61-11.83-1.53-20.53c1.41-11.43,10.16-9.95,15.87-22.71
		c5.76-12.92,0.72-21.41,7.79-31.17c3.73-5.16,9.3-8.52,10.92-6.76c1.48,1.61-1.12,6.58-4.68,20.26
		c-3.54,13.68-2.72,15.68-5.81,23.47c-3.78,9.58-5.52,7.91-8.03,15.1c-5.07,14.49,1.7,22.29-3.25,33.42
		c-4.09,9.16-9.37,5.43-14.03,15.1c-5.16,10.73,0.19,17.77-5.28,30.32c-3.75,8.61-6.67,6.19-10.28,14.71
		c-5.28,12.46,0,19.83-5.28,30.32c-4.21,8.34-8.36,5.25-12.31,13.04c-6.29,12.37,2.56,23.44-3.25,35.36
		c-4.37,8.98-10.44,4.85-17.4,15.5c-6.24,9.55-2.49,14.62-8.94,26.84c-6.48,12.25-11.93,10.37-14.55,20.38
		c-2.44,9.37,1.65,13.65-1.72,22.71c-2.46,6.64-5.07,5.43-9.46,13.04c-5.86,10.1-2.65,14.62-8.13,26.96
		c-4.42,9.92-7.17,8.52-11.81,18.98C872.78,626.52,873.13,636.44,871.96,636.29z"/>
	<path class="st2" d="M720.81,209.05c-0.22,1.82,5.23,5.28,10.8,5.7c6.72,0.52,8.01-3.85,12.21-2.43
		c5.64,1.91,5.11,10.4,13.72,18.29c2.68,2.46,4.25,3.91,6.69,4.61c10.73,3.09,16.3-14.77,29.49-14.46c6.21,0.15,6.62,4.15,13,3.34
		c8.2-1.06,9.54-7.91,16.18-9.01c9.49-1.55,11.73,11.74,21.65,12.4c12.76,0.85,17.95-20.47,29.3-17.92
		c7.03,1.58,7.62,10.4,15.68,11.16c4.47,0.42,5.23-2.15,15.53-6.25c9.32-3.7,13.98-5.58,17.9-3.37c6.45,3.67,5.23,13.43,11.09,15.62
		c4.83,1.82,6.43-4.55,15.15-6.06c8.91-1.55,11.21,4.4,18.47,1.36c5.23-2.18,6.17-6.16,10.4-6c4.33,0.15,5.02,4.61,9.66,7.22
		c7.12,4,15.25-0.79,24.62-6.25c6-3.52,14.51-8.52,13.93-11.55c-0.98-5.12-25.81,6.13-62.45,1.3c-19.79-2.61-28.2-8.16-46.08-4.25
		c-8.03,1.76-11.73,4.06-20.43,3.88c-16.44-0.33-19.36-8.88-30.81-6.58c-12.88,2.58-13.72,14.25-25.02,13.95
		c-9.87-0.27-11.88-9.28-21.65-8.13c-8.44,1-8.91,7.88-17.69,8.92c-9.49,1.09-11.28-6.7-20.15-5.43
		c-9.25,1.33-11.02,10.37-18.9,10.83c-4.13,0.24-10.11-1.85-17.69-12.98C725.71,206.05,720.98,207.44,720.81,209.05z"/>
	<path class="st3" d="M704.91,217.91c8.56,3.79,13.22,9.25,15.87,13.43c6.02,9.52,3.94,16.07,10.99,29.41
		c5.54,10.49,7.91,8.52,10.59,16.53c3.97,11.95-0.81,17.92,3.66,27.87c3.85,8.55,8.32,6.28,10.99,13.95
		c3.68,10.55-4.04,17.13-0.81,29.41c2.25,8.58,6.29,6.55,9.78,17.04c3.32,10.04,0.48,14.49,4.47,23.74
		c3.08,7.13,5.14,5.34,8.13,11.86c5.4,11.77-0.33,19.56,4.47,30.96c3.73,8.85,7.84,5.64,11.81,14.46
		c5.35,11.86-1.2,19.65,4.06,33.54c3.13,8.28,5.62,5.97,9.78,15.5c6.07,13.92,1.6,20.71,7.31,29.41c5.43,8.25,10.68,4,15.87,12.4
		c5.14,8.31,1.2,14.53,6.09,26.32c4.18,10.07,8.94,7.4,12.62,17.04c1.79,4.73,1.46,7.19,3.06,23.99c1.1,11.64,2.92,16.65,1.84,17.28
		c-1.51,0.88-4.66-9.16-13.43-19.62c-8.68-10.34-11.78-7.88-15.25-14.71c-6.62-13.04,3.39-24.53-2.44-37.18
		c-5.74-12.46-18-6.73-23.49-20.14c-3.94-9.61,0.86-16.19-4.56-26.32c-4.04-7.52-7.74-5.82-10.06-12.77
		c-2.8-8.31,1.48-13.8-1.53-23.23c-1.6-5.03-4.06-7.37-6.09-10.07c-10.32-13.68-3.35-28.57-11.28-54.58
		c-5.21-17.07-14.91-32.63-15.56-33.69c-5.16-8.22-8.94-12.13-10.68-20.89c-2.03-10.34,1.6-13.01-0.38-23.02
		c-2.27-11.49-8.01-12.65-12.14-24.23c-3.94-11.07-2.1-19.65-2.13-28.66C726.35,260.15,722.55,241.59,704.91,217.91z"/>
</g>
</svg>
