<?xml version="1.0" encoding="utf-8"?>
<!-- Generator: Adobe Illustrator 25.0.0, SVG Export Plug-In . SVG Version: 6.00 Build 0)  -->
<svg version="1.1" id="Layer_1" xmlns="http://www.w3.org/2000/svg" xmlns:xlink="http://www.w3.org/1999/xlink" x="0px" y="0px"
	 viewBox="0 0 1920 1080" style="enable-background:new 0 0 1920 1080;" xml:space="preserve">
<style type="text/css">
	.st0{fill:#DA4F6E;stroke:#671837;stroke-width:2;stroke-miterlimit:10;}
</style>
<g id="vagina">
	<path class="st0" d="M936,452.05c1.44-0.79,6.31,7.27,17.27,12.05c3.58,1.57,15.07,6.99,24.11,3.52c4.17-1.6,8.13-5.2,9.91-4.17
		c0.68,0.39,0.34,1.04,0.89,1.85c1.74,2.63,9.34,1.79,15.66,1.2c7.87-0.75,11.75-4.75,13.38-3.52c1.63,1.25-2.77,4.91-2.94,10.7
		c-0.25,7.93,7.64,11.38,5.93,14.22c-2.37,3.92-17.44-3.63-38.95-1.39c-4.97,0.51-19.3,2.49-25.29,2.58c-0.89,0.02-2.73,0-5.19,0.4
		c-3.9,0.62-4.42,1.45-5.69,1.2c-3.47-0.69-5.99-8.11-4-14.72c1.27-4.2,3.98-4.92,3.51-8.14c-0.49-3.5-3.92-4.38-7.01-10.34
		C937,456.4,935.03,452.58,936,452.05z"/>
	<path class="st0" d="M946.16,491.89c8.68-1.25,20.72-2.79,35.2-3.97c32.45-2.68,37.06-0.37,39.2,2.09
		c4.53,5.22,1.76,15.63-5.33,19.48c-8.07,4.39-15.3-3.27-32.91-2.97c-21.46,0.36-34.38,12.12-40.17,7.46
		c-2.26-1.82-3.13-5.9-1.82-8.75c1.02-2.21,2.86-2.66,4.47-5.08C946.76,497.25,946.61,494.12,946.16,491.89z"/>
	<path class="st0" d="M1014.81,511.43c6.82,3.39,10.31,12.94,6.44,17.22c-4.3,4.77-14.61-0.44-33.72,0
		c-28.68,0.65-42.04,13.22-48.88,7.82c-5.63-4.44-2.41-17.52,4.19-20.54c0.3-0.14,0.38-0.16,6.94-2.26
		c6.14-1.96,7.54-2.43,8.23-2.65c7.94-2.49,17.82-2.6,22.58-2.66c8.26-0.09,6.08,0.78,22.58,1.59
		C1010.64,510.34,1012.38,510.22,1014.81,511.43z"/>
	<path class="st0" d="M940.85,539.2c-5.97,2.83-2.16,21.93,3.62,22.47c1.78,0.17,2.92-1.54,5.08-3.38c2.31-1.96,6.67-4.8,31.47-7.16
		c27.29-2.6,32.22-0.14,34.76,1.84c2.56,2.01,3.17,3.89,4.68,3.74c4.81-0.51,9.25-20.68,0.72-25.45c-2.54-1.42-4.06-0.25-14.03,0
		c-13.06,0.33-13.82-1.57-24.21-0.79c-5.06,0.37-9.42,1.31-18.14,3.18c-1.55,0.33-5.82,2.62-11.62,3.58
		c-0.27,0.05-0.36,0.06-2.65,0.4C944.28,538.57,941.15,539.06,940.85,539.2z"/>
	<path class="st0" d="M947.12,578.16c2.65,0.56,3.9-2.96,9.69-5.37c4.8-1.99,7.2-0.95,25.4-0.2c12.76,0.53,13.78,0.09,18.14,1.2
		c7.22,1.81,9.12,4.14,12.34,3.38c6.08-1.43,10.99-12.47,7.01-18.89c-9.04-14.58-68.22-12.29-76.46,4.17
		C940.32,568.32,943.16,577.32,947.12,578.16z"/>
	<path class="st0" d="M947.12,579.2c2.65,0.56,3.9-2.96,9.69-5.37c4.8-1.99,7.2-0.95,25.4-0.2c12.76,0.53,13.78,0.09,18.14,1.2
		c7.22,1.81,9.12,4.14,12.34,3.38c6.08-1.43,10.99-12.47,7.01-18.89c-9.04-14.58-68.22-12.29-76.46,4.17
		C940.32,569.36,943.16,578.36,947.12,579.2z"/>
</g>
</svg>
