<?xml version="1.0" encoding="utf-8"?>
<!-- Generator: Adobe Illustrator 25.0.0, SVG Export Plug-In . SVG Version: 6.00 Build 0)  -->
<svg version="1.1" id="Layer_1" xmlns="http://www.w3.org/2000/svg" xmlns:xlink="http://www.w3.org/1999/xlink" x="0px" y="0px"
	 viewBox="0 0 1920 1080" style="enable-background:new 0 0 1920 1080;" xml:space="preserve">
<style type="text/css">
	.st0{fill:#B94723;stroke:#B94723;stroke-miterlimit:10;}
</style>
<g id="vas_deferens">
	<path class="st0" d="M950.73,658.95c3.85-8.6-15.41-25.88-15.41-25.88c-16.53-14.85-27.59-30.95-42.39-46.22
		c-14.14-14.59-21.19-21.89-23.12-24.03c-17.69-19.84-43.47-48.75-30.83-79.5c2.81-6.86,20.42-45.09,92.48-61.01
		c0,0,63.08-13.92,138.72,1.85c5.05,1.05,15.91,3.33,15.41,5.55c-0.5,2.26-12.68,3.94-23.12,3.7c-10.37-0.22-16.61-2.27-23.12-3.7
		c-13.02-2.85-24.2-2.51-46.24-1.85c-15.34,0.46-60.19,1.79-92.48,16.64c-46.16,21.21-37.22,56.48-34.68,66.56
		c2.5,9.89,9.75,24.16,11.56,27.73c1.58,3.14,6.63,12.9,15.41,25.88c13.1,19.41,20.19,29.9,34.68,42.52
		c17.46,15.18,24.47,15.05,34.68,27.73c10.02,12.41,16.76,29.23,7.71,31.43c-5.2,1.26-17.57-1.83-19.27-5.55
		C950.31,659.86,950.66,659.12,950.73,658.95z"/>
</g>
</svg>
